<?xml version="1.0" standalone="no"?>
<!DOCTYPE svg PUBLIC "-//W3C//DTD SVG 1.1//EN" "http://www.w3.org/Graphics/SVG/1.1/DTD/svg11.dtd" >
<svg>
<metadata>
Created by FontForge 20110222 at Fri Feb 28 09:38:21 2014
 By Orthosie Webhosting
(c) 1989, 1990, 1991, 1992, 2002 Adobe Systems Incorporated. All rights reserved. Protected by U.S. Patents D324,063.
</metadata>
<defs>
<font id="UtopiaStdBoldDisplayItalic" horiz-adv-x="373" >
  <font-face 
    font-family="UtopiaStdBoldDisplayItalic"
    font-weight="700"
    font-style="italic"
    font-stretch="normal"
    units-per-em="1000"
    panose-1="2 4 8 3 6 5 6 9 2 4"
    ascent="728"
    descent="-272"
    x-height="470"
    cap-height="660"
    bbox="-181 -256 1063 875"
    underline-thickness="50"
    underline-position="-50"
    slope="-13"
    unicode-range="U+0020-FB04"
  />
<missing-glyph horiz-adv-x="607" 
d="M107 0v700h500v-700h-500zM357 395l170 255h-340zM387 350l170 -255v510zM187 50h340l-170 255zM157 605v-510l170 255z" />
    <glyph glyph-name="T_h" unicode="Th" horiz-adv-x="1063" 
d="M118 660h558l10 45l129 13l3 -2l-104 -438h5q43 81 106 138.5t132 57.5q53 0 68 -41.5t-7 -106.5l-70 -235q-13 -43 13 -43q33 0 85 98l17 -13q-33 -72 -70.5 -109t-100.5 -37q-47 0 -65.5 31t-1.5 89l72 249q16 53 -19 53q-32 0 -72.5 -43.5t-75.5 -117.5
q-31 -68 -77 -248l-124 -11l139 636q-11 0 -56.5 2.5t-79.5 2.5h-56l-125 -550q-7 -25 -4.5 -38t21.5 -14l63 -5l-6 -23h-324l6 23l56 4q19 1 26.5 12.5t13.5 40.5l125 550h-75q-54 0 -76.5 -22t-67.5 -111l-9 -18h-23z" />
    <glyph glyph-name="f_f" unicode="ff" horiz-adv-x="576" 
d="M265 425l-91 -409q-27 -119 -96 -188.5t-140 -69.5q-62 0 -90.5 18.5t-28.5 47.5q0 23 21.5 44.5t45.5 21.5q9 0 15.5 -5t9 -9.5t6.5 -14.5q10 -23 15.5 -34t18 -24.5t25.5 -13.5q18 0 29 44q31 121 126 592h-84l12 36h80l8 33q47 215 247 215q91 0 128 -47q56 56 143 56
q113 0 113 -74q0 -19 -19.5 -35t-42.5 -16q-12 0 -19.5 4.5t-10 9.5t-5.5 15q-13 47 -20.5 59t-19.5 12q-25 0 -40 -67l-40 -165h98l-9 -36h-96l-80 -373q-27 -126 -88.5 -201.5t-138.5 -75.5q-110 0 -110 61q0 19 19.5 37t39.5 18q6 0 10 -1t6.5 -4.5t3.5 -5.5t2.5 -8
t2.5 -8q24 -58 55 -58q14 0 21 23q32 111 124 596h-156zM271 461h157q26 98 48 137q-5 46 -30.5 66.5t-53.5 20.5q-76 0 -121 -224z" />
    <glyph glyph-name="f_f_i" unicode="ffi" horiz-adv-x="872" 
d="M523 661q20 16 33.5 24.5t52.5 20.5t88 12q89 0 129 -30t40 -75q0 -31 -21.5 -49.5t-51.5 -18.5q-43 0 -41 38q1 59 -14 84.5t-51 25.5q-31 0 -62 -42t-48 -126l-14 -64h90q97 0 199 10l3 -3l-99 -371q-13 -43 10 -43q15 0 42 29.5t45 61.5l16 -11q-33 -71 -72.5 -108.5
t-103.5 -37.5q-96 0 -63 115l73 275q7 28 -0.5 37.5t-32.5 9.5h-116q1 2 -18.5 -87t-40 -183.5t-21.5 -101.5q-27 -126 -88.5 -202t-138.5 -76q-110 0 -110 61q0 19 19.5 37t39.5 18q6 0 10 -1t6.5 -4.5t3.5 -5.5t2.5 -8t2.5 -8q25 -58 55 -58q14 0 21 23q32 111 124 596
h-156q0 2 -21.5 -96.5t-44.5 -201t-25 -110.5q-27 -119 -96 -189t-140 -70q-62 0 -90.5 18.5t-28.5 47.5q0 23 21.5 44.5t45.5 21.5q9 0 15.5 -5t8 -9t6.5 -15q25 -53 40 -65q10 -7 20 -7q6 0 15.5 15t15.5 39q27 100 124 582h-84l11 36h81l8 33q23 106 81 160.5t163 54.5
q94 0 132 -48zM271 461h157q26 98 48 136q-5 46 -30.5 67t-53.5 21q-76 0 -121 -224z" />
    <glyph glyph-name="f_f_l" unicode="ffl" horiz-adv-x="876" 
d="M59 461h81l7 34q24 106 81.5 160t162.5 54q93 0 132 -48q52 57 164 57q91 0 131 -35l88 35l6 -3l-148 -619q-10 -43 13 -43q38 0 87 91l16 -12q-34 -70 -73.5 -107t-102.5 -37q-92 0 -63 123l122 507q-8 75 -69 75q-79 0 -115 -168l-14 -64h111l-10 -36h-112
q1 3 -37.5 -175.5t-42.5 -196.5q-27 -127 -88 -202.5t-138 -75.5q-111 0 -111 61q0 19 21 38t41 19q7 0 12 -3t6.5 -5t4 -9.5t3.5 -9.5q24 -60 51 -60q14 0 20 19q33 113 125 600h-156q0 2 -21.5 -96.5t-44.5 -201t-25 -110.5q-27 -119 -96 -189t-140 -70q-62 0 -90.5 18.5
t-28.5 47.5q0 23 21 44.5t43 21.5q15 0 20.5 -6.5t11.5 -22.5q31 -72 61 -72q16 0 31 52q25 94 124 584h-84zM271 461h157q35 113 48 136q-5 46 -30.5 67t-53.5 21q-76 0 -121 -224z" />
    <glyph glyph-name="f_i" unicode="fi" horiz-adv-x="581" 
d="M53 425l11 36h76l9 42q6 26 15 50.5t29.5 56t47 54t70 38.5t96.5 16q89 0 128.5 -29.5t39.5 -75.5q0 -31 -21.5 -49.5t-51.5 -18.5q-43 0 -41 38q1 59 -12.5 84.5t-49.5 25.5q-32 0 -63 -40t-50 -128l-14 -64h92q97 0 197 10l3 -3l-99 -372q-13 -43 10 -43q16 0 40 24
t47 67l16 -11q-32 -70 -72 -107.5t-104 -37.5q-96 0 -63 115l73 275q7 28 -0.5 37.5t-32.5 9.5h-116q1 2 -20 -93t-43 -194.5t-24 -107.5q-29 -130 -91.5 -201t-153.5 -71q-53 0 -82.5 20t-29.5 51q1 22 23 42.5t45 20.5q14 0 20.5 -5.5t11.5 -18.5q35 -79 54 -79
q10 0 18 10t11 21q32 113 129 605h-78z" />
    <glyph glyph-name="f_l" unicode="fl" horiz-adv-x="581" 
d="M52 425l11 36h77l5 23q7 32 17 60.5t29.5 61.5t45.5 56.5t66.5 39.5t89.5 16q91 0 131 -34l90 33l7 -3l-153 -617q-10 -43 13 -43q38 0 87 91l16 -12q-34 -71 -72.5 -108t-101.5 -37q-92 0 -63 123l122 507q-8 75 -69 75q-78 0 -117 -179l-12 -53h111l-10 -36h-109
q1 3 -42.5 -193.5t-48.5 -217.5q-28 -120 -86.5 -188t-151.5 -68q-56 0 -85 20t-29 52q0 23 21 42.5t45 19.5q15 0 22 -6t12 -20q17 -45 29.5 -60t26.5 -15q18 0 25 30q16 56 60.5 265t69.5 339h-79z" />
    <glyph glyph-name=".notdef" horiz-adv-x="607" 
d="M107 0v700h500v-700h-500zM357 395l170 255h-340zM387 350l170 -255v510zM187 50h340l-170 255zM157 605v-510l170 255z" />
    <glyph glyph-name=".null" horiz-adv-x="0" 
 />
    <glyph glyph-name="nonmarkingreturn" horiz-adv-x="333" 
 />
    <glyph glyph-name="space" unicode=" " horiz-adv-x="181" 
 />
    <glyph glyph-name="exclam" unicode="!" horiz-adv-x="281" 
d="M153 204h-21l12 346q2 53 22 75t76 22q57 0 70 -28.5t-12 -77.5zM112 -11q-34 0 -50.5 18.5t-16.5 46.5q0 37 21.5 59.5t54.5 22.5q34 0 50.5 -18.5t16.5 -45.5q0 -37 -22 -60t-54 -23z" />
    <glyph glyph-name="quotedbl" unicode="&#x22;" horiz-adv-x="359" 
d="M128 434q20 75 30 149.5t8 107.5q14 11 45 24.5t48 11.5q7 -40 1 -69q-4 -17 -12.5 -39t-16 -38.5t-22 -42t-20.5 -36t-21.5 -36t-16.5 -26.5zM283 434q40 158 38 257q14 11 44.5 24.5t47.5 11.5q8 -38 1 -69q-4 -17 -12 -38.5t-16.5 -39t-21.5 -41.5t-20.5 -36.5
t-21.5 -35.5t-17 -27z" />
    <glyph glyph-name="numbersign" unicode="#" horiz-adv-x="518" 
d="M357 373h-111l-34 -91h113zM492 373h-98l-33 -91h97l-21 -68h-98l-65 -183h-38l65 183h-111l-65 -183h-38l64 183h-95l24 68h93l34 91h-95l22 67h95l60 171h39l-61 -171h112l60 171h38l-60 -171h97z" />
    <glyph glyph-name="dollar" unicode="$" horiz-adv-x="518" 
d="M288 400l47 203q-41 6 -79 -20t-38 -84q0 -37 16.5 -58.5t53.5 -40.5zM388 703l-18 -77q57 -4 102.5 -33t44.5 -75q0 -21 -15 -37t-40 -16q-23 0 -29 24q-17 82 -69 108l-47 -209q97 -55 119 -74q39 -35 42 -97q1 -11 1 -23q0 -31 -13 -63t-40 -63t-78.5 -50t-119.5 -18
l-22 -96h-31l21 98q-74 4 -124 39.5t-50 79.5q0 29 21.5 46t44.5 17q19 0 25.5 -9t9.5 -25q11 -58 36.5 -89t45.5 -31l49 224q-86 38 -117.5 75.5t-31.5 98.5q0 97 64.5 151t169.5 49l19 75h30zM282 242l-48 -219q123 -3 123 113q0 32 -16 56t-59 50z" />
    <glyph glyph-name="percent" unicode="%" horiz-adv-x="731" 
d="M653 667l26 -20l-531 -675l-26 20l459 574h-177q6 -18 6 -40q0 -101 -49.5 -169t-148.5 -68q-56 0 -86.5 32.5t-30.5 88.5q0 97 49.5 163t144.5 66q58 0 96 -34q10 -10 36 -10h125q32 0 47 7t32 29zM284 617q-42 0 -69.5 -91t-27.5 -154q0 -32 7.5 -46.5t28.5 -14.5
q22 0 41 31t30 74t17 82.5t6 64.5q0 54 -33 54zM576 339q64 0 93 -31.5t29 -94.5q0 -85 -50.5 -154.5t-141.5 -69.5q-66 0 -94 30.5t-28 89.5q0 54 19 104.5t64.5 88t108.5 37.5zM573 317q-23 0 -42.5 -29.5t-30.5 -71.5t-17 -81t-6 -64q-1 -60 32 -60q30 0 53.5 51.5
t33.5 106.5t10 90q-1 58 -33 58z" />
    <glyph glyph-name="ampersand" unicode="&#x26;" horiz-adv-x="708" 
d="M377 614q-69 0 -69 -116q0 -27 11 -61.5t24 -54.5q39 16 66 55.5t27 98.5q0 28 -17 53t-42 25zM382 639q140 0 140 -129q0 -21 -10 -40t-21 -31t-39.5 -27.5t-43 -22.5t-53.5 -24q73 -119 164 -216q33 40 46 110.5t4 132.5q44 32 84 26q15 -17 17.5 -54t-9.5 -59
q-23 -43 -32.5 -59.5t-34.5 -49t-58 -62.5q32 -34 47 -49.5t42 -37t49 -31.5l-5 -23l-24 1q-146 6 -211 57q-35 -30 -83 -46t-93 -16q-94 0 -143 51t-49 125q0 33 8 55.5t29.5 42t46.5 33.5t73 37q-28 54 -28 116q0 84 54 137t133 53zM194 207q0 -65 41 -114t111 -49
q51 0 73 21q-96 77 -186 247q-39 -23 -39 -105z" />
    <glyph glyph-name="quotesingle" unicode="'" horiz-adv-x="206" 
d="M128 434q36 136 36 257q12 11 46.5 24.5t51.5 11.5q7 -41 0 -69q-5 -21 -14.5 -45t-24 -50.5t-25 -44.5t-27.5 -45t-20 -33z" />
    <glyph glyph-name="parenleft" unicode="(" horiz-adv-x="403" 
d="M172 164q0 -129 30 -205.5t93 -117.5l-11 -20q-101 26 -152 123t-51 226q0 98 22 191.5t66.5 177.5t123.5 140.5t181 67.5l5 -23q-60 -15 -112.5 -55t-97.5 -106t-71 -169t-26 -230z" />
    <glyph glyph-name="parenright" unicode=")" horiz-adv-x="403" 
d="M281 405q0 130 -29.5 206t-93.5 118l12 19q102 -26 153 -123t51 -226q0 -97 -22.5 -191t-67 -178t-123.5 -140.5t-181 -67.5l-5 23q60 15 112.5 55t97 106.5t70.5 169.5t26 229z" />
    <glyph glyph-name="asterisk" unicode="*" horiz-adv-x="341" 
d="M279 673q17 -3 26 -13t3 -22l-42 -84q-7 -14 1 -15q4 0 8 3l84 62q21 14 36 -24q14 -39 -14 -43l-99 -12q-13 -2 -14 -7.5t10 -10.5l91 -42q26 -13 -4 -47q-28 -33 -43 -10l-55 86q-10 16 -12 0v-9l6 -98q1 -15 -9.5 -20.5t-28.5 -2.5q-19 3 -27 13t-1 24l42 88
q5 10 2 14.5t-12 -2.5l-78 -59q-13 -8 -23.5 -2.5t-17.5 20.5q-7 14 -4 29t17 16l102 13q9 1 9.5 6t-8.5 10l-87 37q-32 13 -6 48q27 35 48 7l57 -78q5 -8 9 -5.5t3 13.5l-11 93q-1 15 10.5 21.5t31.5 2.5z" />
    <glyph glyph-name="plus" unicode="+" horiz-adv-x="490" 
d="M55 203v50h165v170h57v-170h164v-50h-164v-178h-57v178h-165z" />
    <glyph glyph-name="comma" unicode="," horiz-adv-x="233" 
d="M-43 -133q94 113 94 199q0 40 -13 62q14 10 53 24.5t56 12.5q20 -28 20 -54q0 -58 -66.5 -132.5t-132.5 -122.5z" />
    <glyph glyph-name="hyphen" unicode="-" horiz-adv-x="295" 
d="M58 265h220l-14 -61h-220z" />
    <glyph glyph-name="period" unicode="." horiz-adv-x="233" 
d="M83 -10q-27 0 -43 16.5t-16 42.5q0 36 22 60.5t58 24.5q30 0 46.5 -17.5t16.5 -43.5q0 -37 -22.5 -60t-61.5 -23z" />
    <glyph glyph-name="slash" unicode="/" horiz-adv-x="397" 
d="M5 -101l-31 22l468 793l32 -21z" />
    <glyph glyph-name="zero" unicode="0" horiz-adv-x="518" 
d="M353 614q-57 0 -113 -158q-25 -69 -41.5 -160t-16.5 -172q0 -48 14 -79t40 -31q66 0 127 219q39 140 39 280q0 101 -49 101zM341 639q49 0 86 -14.5t57.5 -36t33.5 -51.5t16.5 -55.5t3.5 -53.5q0 -137 -47 -251q-37 -89 -96 -138.5t-154 -49.5q-195 0 -195 216
q0 146 48 252q85 182 247 182z" />
    <glyph glyph-name="one" unicode="1" horiz-adv-x="518" 
d="M66 0l5 23l58 5q18 2 27 9t13 27l104 478q4 21 1 28.5t-15 8.5l-62 6l5 18l235 36l3 -5l-126 -570q-4 -20 2 -26.5t25 -8.5l60 -6l-5 -23h-330z" />
    <glyph glyph-name="two" unicode="2" horiz-adv-x="518" 
d="M432 0h-430l-2 5q13 68 65 128t144 125q169 117 169 262q0 42 -17 68t-46 26q-40 0 -65 -26t-50 -105q-6 -18 -9.5 -26t-12.5 -15t-23 -7q-27 0 -45.5 15t-18.5 41q0 55 64.5 101.5t162.5 46.5q101 0 153 -43.5t52 -122.5q0 -80 -47 -129t-150 -90q-102 -40 -157.5 -71
t-95.5 -76h309q31 0 45.5 11.5t48.5 59.5l19 -9z" />
    <glyph glyph-name="three" unicode="3" horiz-adv-x="518" 
d="M273 326q-24 0 -47 -5.5t-31 -5.5q-10 0 -14.5 1t-8 6t-3.5 16q0 31 31 31q12 0 33.5 -6.5t43.5 -6.5q100 0 100 166q0 92 -59 92q-31 0 -55 -32t-51 -92q-16 -33 -39 -33q-53 0 -56 54q-3 42 54.5 85t155.5 43q193 0 193 -148q0 -63 -47.5 -100.5t-133.5 -45.5v-4
q81 -17 116 -53.5t35 -95.5q0 -54 -22 -95t-59.5 -63.5t-81.5 -33.5t-94 -11q-100 0 -153.5 38.5t-53.5 88.5q0 30 20.5 50t44.5 20q29 0 37 -40q15 -64 42 -98t59 -34q43 0 74.5 55t31.5 134q0 123 -62 123z" />
    <glyph glyph-name="four" unicode="4" horiz-adv-x="518" 
d="M494 182h-85l-26 -125q-4 -17 1 -22.5t20 -7.5l40 -5l-5 -22h-276l3 22l45 6q10 1 14.5 3t9 8t6.5 18l26 125h-232l-8 25q47 61 187.5 227.5t168.5 193.5h121l-86 -406h85zM82 222h193l79 337l-2 -1q-81 -94 -270 -336z" />
    <glyph glyph-name="five" unicode="5" horiz-adv-x="518" 
d="M192 628h196q139 0 159 10l10 -12l-74 -115h-262q-16 0 -23 -5.5t-14 -23.5l-50 -155l2 -2q74 55 161 55q193 0 193 -164q0 -113 -76 -170t-191 -57q-100 0 -146.5 36t-48.5 86q-2 29 18 50.5t48 21.5q19 0 26.5 -10t13.5 -35q16 -66 37 -95t59 -29q46 0 76.5 47.5
t30.5 142.5q0 58 -28 92.5t-78 34.5q-74 0 -115 -59l-18 19l87 333z" />
    <glyph glyph-name="six" unicode="6" horiz-adv-x="518" 
d="M376 639q88 0 126.5 -29.5t38.5 -61.5q0 -24 -20.5 -43t-44.5 -19q-16 0 -22 7.5t-10 26.5q-16 56 -29 75t-46 19q-51 0 -96.5 -79t-66.5 -217h2q24 28 68.5 51.5t76.5 23.5q154 0 154 -169q0 -107 -71.5 -171t-182.5 -64q-64 0 -106 18.5t-62 53.5t-27.5 72t-7.5 87
q0 103 37.5 200t104.5 155q79 64 184 64zM282 334q-24 0 -35.5 -8t-26.5 -33q-32 -52 -32 -141q0 -68 15 -103t56 -35q45 0 74.5 66t29.5 151q0 48 -23 75.5t-58 27.5z" />
    <glyph glyph-name="seven" unicode="7" horiz-adv-x="518" 
d="M158 628h422l5 -6q-27 -99 -193 -285q-55 -62 -87.5 -140.5t-31.5 -151.5q0 -29 -14.5 -42.5t-49.5 -13.5q-72 0 -72 56q0 32 13 64.5t41.5 69t52.5 62.5t68 70l19 19q20 21 50.5 51.5t47.5 48t37 40t34 41.5h-289q-39 0 -56.5 -12t-43.5 -60l-19 14z" />
    <glyph glyph-name="eight" unicode="8" horiz-adv-x="518" 
d="M335 639q109 0 155 -42.5t46 -105.5q0 -127 -153 -150v-4q118 -35 118 -138q0 -110 -71 -160t-183 -50q-219 0 -219 171q0 74 55.5 125t133.5 56v3q-19 6 -33 12t-33 19.5t-29 37t-10 54.5q0 62 32.5 102t80.5 55t110 15zM342 614q-30 0 -53 -32t-33.5 -73.5t-10.5 -79.5
q0 -82 60 -82q39 0 66.5 53t27.5 134q0 80 -57 80zM288 322q-37 0 -64.5 -36.5t-39 -82t-11.5 -88.5q0 -54 17.5 -77.5t53.5 -23.5q48 0 80 64.5t32 146.5q0 97 -68 97z" />
    <glyph glyph-name="nine" unicode="9" horiz-adv-x="518" 
d="M234 248q-69 0 -109 41.5t-40 115.5q0 104 62.5 169t168.5 65q207 0 209 -235q0 -145 -64 -267q-76 -148 -245 -148q-85 0 -130 30.5t-47 77.5q-1 26 20 46t45 20q20 0 28.5 -7.5t13.5 -26.5q15 -59 31 -86t46 -27q26 0 48.5 21.5t37 50t28.5 74.5t21 77t15 74l-2 1
q-60 -66 -137 -66zM299 308q43 0 65 39q11 18 18.5 63t7.5 87q0 114 -62 114q-46 0 -75 -57.5t-29 -134.5q0 -111 75 -111z" />
    <glyph glyph-name="colon" unicode=":" horiz-adv-x="233" 
d="M140 273q-58 0 -58 59q0 36 22 61t58 25q28 0 44.5 -17.5t16.5 -44.5q0 -38 -21.5 -60.5t-61.5 -22.5zM83 -10q-27 0 -43 16.5t-16 42.5q0 36 22 60.5t58 24.5q30 0 46.5 -17.5t16.5 -43.5q0 -37 -22.5 -60t-61.5 -23z" />
    <glyph glyph-name="semicolon" unicode=";" horiz-adv-x="233" 
d="M140 273q-58 0 -58 59q0 36 22 61t58 25q28 0 44.5 -17.5t16.5 -44.5q0 -38 -21.5 -60.5t-61.5 -22.5zM-43 -133q94 113 94 199q0 40 -13 62q13 10 52.5 24.5t56.5 12.5q20 -28 20 -54q0 -59 -67.5 -134t-131.5 -121z" />
    <glyph glyph-name="less" unicode="&#x3c;" horiz-adv-x="490" 
d="M430 79v-56l-381 173v65l381 172v-55l-334 -150z" />
    <glyph glyph-name="equal" unicode="=" horiz-adv-x="490" 
d="M54 290v52h387v-52h-387zM54 114v52h387v-52h-387z" />
    <glyph glyph-name="greater" unicode="&#x3e;" horiz-adv-x="490" 
d="M58 378v55l382 -172v-65l-382 -173v56l335 149z" />
    <glyph glyph-name="question" unicode="?" horiz-adv-x="453" 
d="M314 665h2q173 0 173 -127q0 -45 -30 -75.5t-101 -62.5q-54 -25 -77.5 -46.5t-23.5 -51.5q0 -44 43 -44q20 0 40 6l5 -19q-45 -39 -110 -39q-44 0 -70 25t-26 66q0 23 15 43.5t32 33t54 36.5q58 37 85 75t27 94q0 60 -33 60q-30 0 -45 -26t-33 -91q-7 -33 -43 -33
q-25 0 -46.5 15t-21.5 45q0 37 47.5 76.5t136.5 39.5zM198 -11q-34 0 -50.5 18.5t-16.5 46.5q0 37 22.5 59.5t56.5 22.5q33 0 49 -18.5t16 -45.5q0 -37 -22.5 -60t-54.5 -23z" />
    <glyph glyph-name="at" unicode="@" horiz-adv-x="826" 
d="M565 414h107q-39 -128 -85 -295q-12 -41 -11.5 -60.5t21.5 -19.5q45 0 80.5 29.5t55 74.5t29 89.5t9.5 82.5q0 126 -76.5 195t-196.5 69q-89 0 -158.5 -37t-110.5 -100t-62 -139t-21 -161q0 -44 8.5 -84t29 -79t51.5 -67t79 -45.5t108 -17.5q85 0 142 28t118 100l9 -12
q-107 -158 -305 -158q-52 0 -98 11t-87.5 36t-71.5 62t-47.5 93.5t-17.5 127.5q0 202 118.5 333.5t320.5 131.5q150 0 227 -72.5t77 -203.5q0 -56 -17 -111.5t-48 -102t-81.5 -75.5t-111.5 -29q-113 0 -68 130l-1 1q-31 -53 -78 -92t-99 -39q-28 0 -46.5 20.5t-18.5 65.5
q-1 75 29 148.5t91 125t137 51.5q34 0 65 -20zM379 72q74 0 147 225q24 73 26 79q-13 19 -44 19q-42 0 -80.5 -55.5t-57.5 -119t-19 -103.5q0 -45 28 -45z" />
    <glyph glyph-name="A" unicode="A" horiz-adv-x="622" 
d="M373 247h-187q-8 -14 -99 -185q-9 -16 -5 -24.5t26 -10.5l46 -4l-5 -23h-198l4 23l26 3q20 2 32.5 11.5t27.5 31.5q35 53 166.5 286t166.5 305h103q23 -266 62 -592q3 -40 28 -42l40 -3l-5 -23h-288l4 23l50 4q25 3 22 35q-2 21 -8.5 95t-8.5 90zM371 280
q-16 191 -26 272h-2q-71 -144 -141 -272h169z" />
    <glyph glyph-name="B" unicode="B" horiz-adv-x="629" 
d="M138 660h299q37 0 62 -2t53 -10.5t44 -23.5t27 -41.5t11 -64.5q0 -65 -47.5 -111t-144.5 -54v-7q159 -24 159 -147q0 -199 -300 -199h-306l5 23l43 4q20 2 28 14t14 40l111 498q7 25 4.5 37.5t-22.5 14.5l-47 5zM294 362h37q78 0 118.5 40t40.5 117q0 55 -25 85.5
t-71 30.5q-29 0 -36 -6t-12 -30zM323 336h-34l-55 -248q-10 -29 -1 -46t47 -17q79 0 122 55.5t43 129.5q0 66 -26.5 96t-95.5 30z" />
    <glyph glyph-name="C" unicode="C" horiz-adv-x="648" 
d="M612 206h24l-59 -180q-82 -43 -217 -43q-80 0 -138.5 22t-88 51.5t-46.5 72.5t-20.5 71.5t-3.5 62.5q0 56 17.5 122.5t51.5 119.5q55 84 136.5 128t212.5 44t209 -46l-38 -173h-24q0 30 -3 53.5t-12 51t-23.5 46t-41 30.5t-62.5 12q-68 0 -120.5 -41t-81.5 -107.5
t-43 -137.5t-14 -142q0 -214 141 -214q73 0 130.5 51.5t113.5 145.5z" />
    <glyph glyph-name="D" unicode="D" horiz-adv-x="725" 
d="M232 74q-6 -29 7.5 -39t50.5 -10q63 0 113.5 28t81 71.5t51 99.5t28 107t7.5 100q0 40 -5.5 71.5t-20 64t-46 50.5t-78.5 18q-43 0 -56 -7t-18 -31zM129 636l8 24h280q159 0 235.5 -58.5t76.5 -215.5q0 -124 -57 -215q-35 -55 -79.5 -91t-118.5 -58t-175 -22h-305l6 23
l42 4q20 2 27.5 13.5t14.5 40.5l111 498q7 25 4.5 37.5t-22.5 14.5z" />
    <glyph glyph-name="E" unicode="E" horiz-adv-x="590" 
d="M128 636l8 24h494l-39 -178h-23q-10 96 -28 121.5t-83 25.5h-69q-22 0 -29.5 -5.5t-12.5 -25.5l-51 -234h95q43 0 62 16.5t42 69.5h23l-45 -205h-22q2 47 -12 66.5t-56 19.5h-95l-55 -248q-2 -8 -2.5 -14t1.5 -11t3.5 -8.5t6.5 -6.5t9 -5t12.5 -3.5t14.5 -2t18 -1
t21 -0.5h24q42 0 75 10.5t59 34t43.5 47.5t40.5 64h23l-64 -187h-529l5 23l49 4q20 1 27.5 13t14.5 41l111 497q7 26 4 38.5t-22 14.5z" />
    <glyph glyph-name="F" unicode="F" horiz-adv-x="545" 
d="M129 636l8 24h501l-38 -176h-25q-3 34 -4.5 47t-5 34.5t-8 27.5t-11.5 16.5t-18 12.5t-25.5 4.5t-35.5 2.5h-78q-18 0 -26 -6t-11 -22l-58 -261h117q42 0 61 16.5t42 70.5h24l-44 -206h-25q2 48 -10.5 67t-54.5 19h-119l-52 -229q-7 -25 -1 -37.5t29 -13.5l52 -4l-5 -23
h-314l6 23l43 4q19 2 27 14t15 40l111 497q7 27 4 39t-22 14z" />
    <glyph glyph-name="G" unicode="G" horiz-adv-x="675" 
d="M655 447h-25q-9 105 -40.5 154.5t-110.5 49.5q-65 0 -115.5 -42.5t-78.5 -109t-42 -136.5t-14 -136q0 -218 140 -218q33 0 47.5 10t20.5 38l39 162q11 52 -16 53l-60 5l5 23h298l-6 -23l-38 -6q-16 -3 -22.5 -14t-12.5 -38l-43 -190q-85 -46 -219 -46q-298 0 -298 288
q0 154 89 270q104 136 325 136q140 0 214 -52z" />
    <glyph glyph-name="H" unicode="H" horiz-adv-x="737" 
d="M297 368h237l48 212q7 25 4 37.5t-22 14.5l-48 5l7 23h300l-6 -23l-42 -4q-19 -1 -26.5 -12.5t-14.5 -40.5l-115 -499q-7 -25 -4 -38.5t22 -15.5l48 -4l-6 -23h-299l6 23l42 4q20 2 28 14t14 40l56 253h-237l-56 -253q-7 -25 -3.5 -39t21.5 -15l47 -4l-6 -23h-298l6 23
l43 4q19 2 26.5 13.5t14.5 40.5l112 499q7 25 3.5 37.5t-21.5 14.5l-49 5l7 23h299l-7 -23l-42 -4q-19 -2 -27 -13.5t-14 -39.5z" />
    <glyph glyph-name="I" unicode="I" horiz-adv-x="354" 
d="M136 660h299l-7 -23l-42 -4q-19 -2 -27 -13.5t-14 -39.5l-112 -499q-7 -26 -4 -39t22 -15l47 -4l-6 -23h-298l6 23l43 4q19 2 27 14t14 40l112 499q7 25 3.5 37.5t-21.5 14.5l-49 5z" />
    <glyph glyph-name="J" unicode="J" horiz-adv-x="339" 
d="M135 660h299l-7 -23l-41 -4q-19 -1 -27 -13t-15 -41l-108 -478q-26 -107 -74 -151q-65 -59 -183 -59q-21 0 -30 2l-2 24q55 8 81 37q21 24 35 65t32 118l100 442q7 26 4.5 38.5t-22.5 14.5l-48 5z" />
    <glyph glyph-name="K" unicode="K" horiz-adv-x="664" 
d="M136 660h299l-7 -23l-42 -4q-20 -2 -28 -13.5t-14 -39.5l-111 -499q-7 -26 -4 -39t22 -15l47 -4l-6 -23h-298l6 23l43 4q19 2 26.5 13.5t14.5 40.5l112 499q7 25 3.5 37.5t-21.5 14.5l-49 5zM544 660h227l-5 -23q-65 -7 -87 -17q-16 -7 -35 -20q-23 -16 -46 -33.5
t-48.5 -40t-41.5 -36.5t-47.5 -43t-43.5 -40q26 -71 72.5 -172t89.5 -161q26 -37 38 -45.5t46 -13.5l-4 -21l-65 1q-98 1 -136 21.5t-72 89.5q-41 78 -86 222v5q67 58 163 148t119 118q14 16 13 23.5t-18 9.5l-37 5z" />
    <glyph glyph-name="L" unicode="L" horiz-adv-x="560" 
d="M492 0h-504l6 23l48 4q20 1 27.5 13t14.5 41l111 499q7 25 4 38.5t-22 14.5l-48 4l7 23h305l-5 -23l-48 -4q-20 -1 -28.5 -13t-15.5 -40l-111 -499q-7 -31 18 -40.5t82 -9.5q64 0 94 27t101 139h26z" />
    <glyph glyph-name="M" unicode="M" horiz-adv-x="845" 
d="M124 636l7 23h209q8 -36 48.5 -210t57.5 -248h3q31 54 128 216.5t140 241.5h209l-7 -23l-42 -4q-19 -2 -27 -13.5t-15 -39.5l-108 -498q-6 -25 -2 -38t23 -15l45 -5l-6 -23h-292l5 23l41 4q20 2 28 13.5t15 40.5l108 474h-3q-39 -67 -322 -559h-30q-48 231 -113 558h-4
q-41 -197 -93 -480q-8 -45 33 -48l51 -3l-5 -23h-213l4 23l36 3q34 3 46 48q33 116 116 505q6 26 1.5 38.5t-23.5 13.5z" />
    <glyph glyph-name="N" unicode="N" horiz-adv-x="683" 
d="M128 659h187q32 -69 82.5 -170.5t100.5 -201.5l64 -128h3q80 344 87 426q2 25 -5 36t-27 12l-52 3l5 23h208l-5 -23l-33 -3q-35 -3 -49 -48q-11 -35 -36.5 -143.5t-61 -265.5t-39.5 -176h-90q-39 88 -127.5 275.5t-120.5 256.5h-4q-25 -110 -58 -272t-35 -186
q-5 -44 34 -47l50 -4l-5 -23h-216l5 23l40 3q33 3 48 48q29 89 117 505q5 26 -0.5 38t-26.5 14l-47 5z" />
    <glyph glyph-name="O" unicode="O" horiz-adv-x="709" 
d="M437 677q126 0 202 -69t76 -208q0 -124 -55 -232q-96 -185 -311 -185q-140 0 -212.5 72t-72.5 196q0 130 54 233q100 193 319 193zM450 651q-54 0 -99 -52t-71.5 -128.5t-41 -154t-14.5 -138.5q0 -81 22.5 -125t84.5 -44q50 0 93.5 48.5t71.5 122t43.5 155.5t15.5 154
q0 162 -105 162z" />
    <glyph glyph-name="P" unicode="P" horiz-adv-x="611" 
d="M129 636l7 24h266q44 0 75 -3t64 -13.5t52.5 -29.5t32.5 -53t13 -81q0 -50 -21.5 -97t-58.5 -75q-78 -57 -206 -57q-42 0 -82 10l-38 -180q-7 -25 -4 -38t24 -15l56 -5l-5 -23h-311l5 23l43 4q20 2 27.5 13.5t14.5 40.5l112 498q7 25 4 37.5t-22 14.5zM347 599l-63 -292
q-3 -14 8 -22t42 -8q54 0 91 40t51 89.5t14 100.5q0 58 -22.5 93t-70.5 35q-29 0 -37 -6.5t-13 -29.5z" />
    <glyph glyph-name="Q" unicode="Q" horiz-adv-x="709" 
d="M439 677q126 0 200.5 -69t74.5 -208q0 -126 -55 -232q-77 -146 -217 -174q19 -56 56 -93q29 -33 53.5 -46t63.5 -13l2 -20q-31 -16 -108 -16q-103 0 -164 69q-40 48 -70 113q-106 19 -158.5 89t-52.5 175q0 126 55 234q98 191 320 191zM449 651q-53 0 -98 -53.5
t-71.5 -132.5t-41 -158t-14.5 -139q0 -160 111 -160q49 0 92 50t70 125.5t42.5 159t15.5 155.5q0 153 -106 153z" />
    <glyph glyph-name="R" unicode="R" horiz-adv-x="622" 
d="M136 660h283q36 0 62 -2.5t55 -11t46.5 -23.5t29.5 -42.5t12 -66.5q0 -159 -220 -177v-7q40 -8 69.5 -27.5t44.5 -44.5t22 -48t7 -44q0 -58 3 -82t14 -37q9 -11 21.5 -15.5t41.5 -8.5l-6 -23h-104q-103 0 -119 77q-3 15 -4 35t-1.5 54t-1.5 58q-2 50 -16 71.5t-54 21.5
h-37l-52 -236q-7 -26 -4 -39.5t22 -14.5l46 -4l-6 -23h-296l6 23l43 4q20 1 27.5 13t14.5 41l111 498q7 25 4 37.5t-22 14.5l-48 5zM290 342h42q61 0 105 48.5t44 127.5q0 117 -83 117q-28 0 -36.5 -5.5t-13.5 -28.5z" />
    <glyph glyph-name="S" unicode="S" horiz-adv-x="494" 
d="M481 464h-25q-7 187 -124 187q-52 0 -76.5 -31t-24.5 -72q0 -47 21 -81t87 -75q83 -51 113.5 -90t30.5 -102q0 -95 -60 -155.5t-182 -61.5q-63 0 -122 20t-95 62l22 172h25q11 -105 54 -166.5t115 -61.5q56 0 82.5 31t26.5 82q0 85 -96 146q-88 57 -119 101.5t-31 105.5
q0 35 10 67t34 64t73 51.5t118 19.5q105 0 176 -56z" />
    <glyph glyph-name="T" unicode="T" horiz-adv-x="573" 
d="M118 660h560l-42 -184h-22q-5 92 -22.5 122.5t-65.5 30.5h-62l-125 -548q-7 -25 -4.5 -38.5t21.5 -14.5l65 -5l-5 -23h-329l5 23l56 4q20 1 28 13.5t14 40.5l125 548h-60q-55 0 -77.5 -22.5t-68.5 -112.5l-9 -18h-24z" />
    <glyph glyph-name="U" unicode="U" horiz-adv-x="710" 
d="M122 659h299l-6 -23l-40 -4q-20 -2 -28 -13.5t-14 -39.5l-83 -369q-46 -201 88 -201q57 0 92.5 51t62.5 176l78 343q7 25 4 37.5t-22 14.5l-48 5l6 23h291l-6 -23l-41 -5q-19 -2 -27.5 -13t-14.5 -39l-78 -338q-32 -142 -94.5 -199.5t-208.5 -57.5q-138 0 -198 57.5
t-31 186.5l79 351q7 25 4 37.5t-22 14.5l-48 5z" />
    <glyph glyph-name="V" unicode="V" horiz-adv-x="631" 
d="M93 660h285l-4 -23l-43 -6q-17 -2 -21.5 -8t-2.5 -21q42 -396 53 -489h2q54 93 142.5 265t109.5 221q13 31 -12 32l-58 6l5 23h204l-4 -23q-42 -5 -55 -12t-38 -42q-44 -62 -323 -583h-105q-36 342 -71 589q-3 27 -14.5 35.5t-53.5 12.5z" />
    <glyph glyph-name="W" unicode="W" horiz-adv-x="868" 
d="M94 659h277l-6 -23l-46 -5q-16 -1 -20 -7t-5 -26q-1 -98 16 -469h5q35 73 210 516h95q4 -70 22 -266t22 -255h5q140 315 197 465q15 38 -13 41l-55 6l6 23h200l-6 -23q-30 -4 -40.5 -7t-23 -15t-27.5 -41q-29 -54 -268 -573h-108q-6 128 -33 481h-5q-54 -120 -207 -481
h-107q-2 39 -12.5 258.5t-19.5 335.5q-2 22 -12 30t-47 12z" />
    <glyph glyph-name="X" unicode="X" horiz-adv-x="616" 
d="M96 660h302l-4 -23l-53 -7q-28 -3 -18 -31q14 -43 65 -182h3q104 131 145 187q8 12 5.5 20t-13.5 9l-46 4l5 23h220l-5 -23q-28 -2 -43.5 -4t-36.5 -10.5t-38 -23.5q-10 -9 -21 -20l-20 -20t-22.5 -24t-21 -23.5t-24 -28.5t-23 -27.5t-26 -31.5t-25.5 -31
q62 -175 125 -319q4 -9 8.5 -16t7.5 -12t10 -8.5t9 -5.5t11.5 -3.5t11.5 -2t15.5 -2t16.5 -1.5l-4 -23h-321l5 23l51 6q29 3 21 30q-7 23 -76 217h-2q-118 -148 -166 -218q-18 -28 8 -30l55 -5l-5 -23h-235l4 23q34 4 48 6.5t36.5 12.5t40.5 27q38 38 205 237
q-15 36 -56 142.5t-60 150.5q-5 12 -10 19.5t-13.5 11t-13.5 4.5t-19 1.5t-20 1.5z" />
    <glyph glyph-name="Y" unicode="Y" horiz-adv-x="583" 
d="M92 660h294l-5 -23l-53 -6q-24 -3 -16 -28q13 -52 81 -286h2q29 41 90.5 140.5t84.5 142.5q16 29 -13 32l-50 5l5 23h205l-4 -23q-5 -1 -16 -1.5t-14 -1t-10.5 -1.5t-10 -2t-8 -3t-8 -4.5t-7 -5.5t-8 -7.5t-8 -10t-10.5 -12.5q-25 -30 -186 -274q-22 -31 -30 -75
l-33 -158q-7 -25 -4 -38.5t22 -14.5l61 -5l-6 -23h-326l6 23l56 4q20 1 28 13.5t14 40.5l35 162q8 36 1 63q-45 164 -90 288q-4 12 -9 19.5t-7.5 12t-11 7t-11 3.5t-17 2t-18.5 1z" />
    <glyph glyph-name="Z" unicode="Z" horiz-adv-x="596" 
d="M140 660h506l5 -9q-210 -288 -465 -620h189q66 0 95.5 27t90.5 129q5 8 8 13h23l-57 -200h-545l-6 13q86 104 473 617l-146 -1q-46 0 -71.5 -5.5t-47.5 -26t-35.5 -45t-38.5 -79.5h-22z" />
    <glyph glyph-name="bracketleft" unicode="[" horiz-adv-x="359" 
d="M319 657l-159 -746q-5 -18 -1.5 -29t24 -18t68.5 -12l-6 -25h-190l195 914h190l-6 -25q-73 -9 -91 -19t-24 -40z" />
    <glyph glyph-name="backslash" unicode="\" horiz-adv-x="379" 
d="M266 -92l-119 789l37 6l121 -788z" />
    <glyph glyph-name="bracketright" unicode="]" horiz-adv-x="359" 
d="M90 -89l159 746q6 29 -8.5 40t-83.5 19l6 25h190l-194 -914h-191l6 25q52 5 75.5 12.5t29.5 16.5t11 30z" />
    <glyph glyph-name="asciicircum" unicode="^" horiz-adv-x="445" 
d="M433 293h-63l-123 287l-121 -287h-63l157 346h56z" />
    <glyph glyph-name="underscore" unicode="_" horiz-adv-x="470" 
d="M470 -71v-47h-470v47h470z" />
    <glyph glyph-name="grave" unicode="`" horiz-adv-x="376" 
d="M286 513l-72 94q-6 8 -15.5 19.5t-13 16.5t-6.5 12.5t-3 15.5q0 16 20.5 30t40.5 14q15 0 21.5 -14t15.5 -56l27 -123z" />
    <glyph glyph-name="a" unicode="a" horiz-adv-x="555" 
d="M415 465h123l-97 -370q-12 -43 10 -43q16 0 37.5 24t39.5 63l17 -11q-34 -69 -71.5 -104.5t-99.5 -35.5q-86 0 -53 122l19 69h-4q-102 -191 -231 -191q-82 0 -82 114q0 39 12 86t38.5 97.5t63 92t91.5 68.5t118 27q37 0 64 -16zM401 436q-18 9 -46 9q-48 0 -95.5 -66
t-73.5 -147.5t-26 -137.5q0 -42 26 -42q46 0 99.5 85t85.5 195q21 69 30 104z" />
    <glyph glyph-name="b" unicode="b" horiz-adv-x="544" 
d="M397 348q0 62 -33 62q-31 0 -66.5 -35t-65.5 -91q-21 -39 -37 -100t-16 -93q0 -31 13 -54.5t41 -23.5q47 0 87 68t58.5 143.5t18.5 123.5zM313 716l-110 -430h6q47 88 108.5 137.5t122.5 49.5q97 0 97 -120q0 -108 -55 -207q-88 -158 -249 -158q-89 0 -134 52l-53 -40
h-23l138 621q5 25 2.5 35.5t-15.5 11.5l-48 6l3 22l208 22z" />
    <glyph glyph-name="c" unicode="c" horiz-adv-x="430" 
d="M410 166l15 -12q-47 -94 -108.5 -130t-137.5 -36q-69 0 -108 35.5t-39 121.5q0 43 11 88t34.5 88t56 77t80 54.5t102.5 20.5q61 0 94.5 -23t33.5 -60q0 -26 -21.5 -46.5t-48.5 -20.5q-37 0 -37 45q-1 80 -40 80q-32 0 -62.5 -48.5t-47.5 -118t-17 -133.5q0 -108 78 -108
q44 0 88 36t74 90z" />
    <glyph glyph-name="d" unicode="d" horiz-adv-x="569" 
d="M385 696l215 22l2 -2l-145 -620q-10 -43 11 -43q15 0 40.5 28t44.5 65l15 -12q-69 -146 -178 -146q-47 0 -59.5 22t0.5 80q17 70 20 84l-4 2q-49 -86 -103.5 -137t-127.5 -51q-94 0 -94 125q0 36 11 80.5t36 94t60 90.5t90 68t119 27q44 0 73 -19l41 175q9 36 -15 39
l-57 7zM162 105q0 -52 33 -52q35 0 73.5 43t65 100t40.5 111q2 10 8.5 35.5t14 55t8.5 33.5q-13 11 -53 11q-38 0 -75 -39t-61 -94t-39 -111t-15 -93z" />
    <glyph glyph-name="e" unicode="e" horiz-adv-x="426" 
d="M409 157l13 -12q-48 -88 -108.5 -122.5t-136.5 -34.5q-62 0 -104.5 37.5t-42.5 125.5q0 127 73 219q82 103 211 103q127 0 127 -104q0 -35 -22 -63t-52.5 -45t-71.5 -29.5t-70.5 -18t-58.5 -8.5q-2 -20 -2 -47q0 -51 20 -84.5t61 -33.5q86 0 164 117zM168 228
q78 16 121.5 65.5t43.5 111.5q0 43 -32 43q-39 0 -78 -63t-55 -157z" />
    <glyph glyph-name="f" unicode="f" horiz-adv-x="285" 
d="M131 425h-79l12 36h75q32 128 84 186q64 71 145 71q60 0 85.5 -20.5t25.5 -49.5q0 -24 -18.5 -37.5t-41.5 -13.5q-27 0 -34 29q-9 38 -16.5 53t-20.5 15q-23 0 -46 -95l-31 -138h96l-9 -36h-95l-93 -413q-28 -124 -88.5 -189t-147.5 -65q-53 0 -82.5 20t-29.5 51
q0 24 17 42t43 18q17 0 23 -5.5t11 -22.5q25 -72 55 -72q22 0 29 30q28 98 131 606z" />
    <glyph glyph-name="g" unicode="g" horiz-adv-x="465" 
d="M499 403h-69q19 -30 19 -74q0 -79 -54 -124t-155 -45q-2 0 -62 5q-33 -12 -33 -31q0 -27 62 -41q102 -25 131 -35q53 -15 76 -46t23 -82q0 -74 -67 -123t-185 -49q-103 0 -165.5 37.5t-62.5 96.5q0 77 135 104v2q-62 29 -62 83q0 30 31.5 55.5t84.5 34.5v2
q-35 11 -61.5 42.5t-26.5 82.5q0 31 9 58.5t30.5 55.5t67.5 44.5t112 16.5q72 0 126 -32l121 28l4 -6zM274 449q-41 0 -65 -59t-24 -128q0 -77 49 -77q33 0 55.5 33.5t30.5 72t8 73.5q0 85 -54 85zM215 -215q50 0 82.5 22.5t32.5 63.5q0 49 -70 78q-71 28 -136 37
q-22 -4 -42 -23t-20 -58q0 -53 39.5 -86.5t113.5 -33.5z" />
    <glyph glyph-name="h" unicode="h" horiz-adv-x="562" 
d="M543 152l17 -11q-34 -74 -72 -113.5t-101 -39.5q-47 0 -66 31t-2 89l72 247q16 53 -18 53q-29 0 -70.5 -40.5t-77.5 -117.5q-20 -43 -77 -250l-125 -11l140 639q9 36 -14 39l-55 7l6 22l211 22l3 -2l-104 -438h5q42 81 104.5 138t131.5 57q54 0 69 -41.5t-7 -106.5
l-68 -227q-13 -43 12 -43q35 0 86 97z" />
    <glyph glyph-name="i" unicode="i" horiz-adv-x="297" 
d="M278 142l15 -12q-34 -67 -75.5 -104.5t-101.5 -37.5q-90 0 -59 115l74 280q5 19 2.5 25.5t-16.5 8.5l-46 5l6 23l202 27l4 -4l-101 -372q-13 -43 10 -43q16 0 40.5 25.5t45.5 63.5zM242 667q27 0 44.5 -16.5t17.5 -46.5q0 -35 -20.5 -55.5t-51.5 -20.5q-29 0 -46.5 17
t-17.5 46q0 31 19.5 53.5t54.5 22.5z" />
    <glyph glyph-name="j" unicode="j" horiz-adv-x="276" 
d="M74 422l5 23l208 27l3 -2l-113 -459q-37 -145 -104 -197q-58 -42 -118 -42q-115 0 -115 62q0 22 17.5 41t43.5 19q24 0 36 -33q13 -38 21.5 -51.5t20.5 -13.5q10 0 16.5 10.5t13.5 38.5l131 535q9 35 -14 38zM247 667q27 0 44.5 -16.5t17.5 -46.5q0 -35 -20.5 -55.5
t-51.5 -20.5q-29 0 -46.5 17t-17.5 46q0 31 19.5 53.5t54.5 22.5z" />
    <glyph glyph-name="k" unicode="k" horiz-adv-x="503" 
d="M147 0l-129 -11l146 639q4 19 0.5 28.5t-15.5 10.5l-55 7l9 22l207 22l2 -2zM506 139l13 -10q-60 -142 -162 -142q-38 0 -57 18t-35 61q-34 86 -57 172q185 235 270 235q28 0 39 -11t11 -33q0 -17 -20 -40t-39 -23q-5 0 -16 6q-24 15 -50 15q-17 0 -44.5 -17.5
t-53.5 -47.5q18 -72 84 -224q16 -40 37 -40q36 0 80 81z" />
    <glyph glyph-name="l" unicode="l" horiz-adv-x="283" 
d="M264 138l18 -14q-34 -66 -73.5 -101t-97.5 -35q-94 0 -63 123l122 517q10 36 -15 39l-54 7l4 22l212 22h2l-149 -622q-9 -44 13 -44q32 0 81 86z" />
    <glyph glyph-name="m" unicode="m" horiz-adv-x="830" 
d="M65 422l4 23l205 27l4 -4l-55 -193h5q103 198 223 198q94 0 57 -135l-18 -64l4 -1q47 89 107.5 144.5t127.5 55.5q97 0 58 -137l-72 -240q-13 -44 9 -44q35 0 88 89l17 -13q-33 -68 -73 -104t-105 -36q-43 0 -59.5 30.5t-0.5 84.5l74 252q15 53 -16 53q-25 0 -62.5 -40
t-69.5 -102q-44 -83 -95 -266l-124 -11q7 26 30.5 112.5t44 162.5t27.5 101q11 43 -19 43t-67.5 -42t-70.5 -110q-35 -71 -87 -256l-124 -11l95 387q9 39 -13 41z" />
    <glyph glyph-name="n" unicode="n" horiz-adv-x="574" 
d="M160 0l-127 -11l98 387q7 26 4.5 32.5t-18.5 8.5l-51 6l5 22l211 27l3 -3l-58 -201h6q49 91 109.5 148t128.5 57q55 0 69 -41.5t-7 -96.5l-73 -239q-13 -43 10 -43q34 0 83 90l19 -12q-36 -72 -71.5 -107.5t-100.5 -35.5q-45 0 -63.5 30.5t-2.5 84.5l73 251q16 54 -18 54
q-28 0 -68 -44.5t-75 -115.5q-41 -86 -86 -248z" />
    <glyph glyph-name="o" unicode="o" horiz-adv-x="513" 
d="M315 473q191 0 191 -178q0 -57 -18 -114.5t-47 -93.5q-74 -99 -217 -99q-98 0 -144.5 47.5t-46.5 128.5q0 132 78 220.5t204 88.5zM324 448q-37 0 -69.5 -43t-51.5 -103t-29.5 -116.5t-10.5 -91.5q0 -81 54 -81q34 0 65 43.5t50 103t30.5 114t11.5 83.5q0 44 -9.5 67.5
t-40.5 23.5z" />
    <glyph glyph-name="p" unicode="p" horiz-adv-x="551" 
d="M382 405q-38 0 -76 -49.5t-69 -120.5q-30 -67 -60 -194q30 -22 69 -22q37 0 71 41.5t54.5 99t32.5 110.5t12 83q0 52 -34 52zM113 -231l-126 -11l135 618q8 38 -14 41l-52 5l5 23l209 27l2 -3l-49 -200h4q107 204 232 204q97 0 97 -124q0 -26 -5.5 -60t-17 -76t-34 -80.5
t-52 -71.5t-75 -53t-99.5 -20q-61 0 -103 30z" />
    <glyph glyph-name="q" unicode="q" horiz-adv-x="540" 
d="M387 -223l-131 -19l95 421h-3q-104 -191 -230 -191q-95 0 -95 107q0 42 11.5 90t37.5 99.5t62.5 93t94 68.5t124.5 27q62 0 125 -27l60 38h16zM162 104q0 -53 33 -53q65 0 139 148q47 96 79 238q-14 8 -51 8q-58 0 -106.5 -66.5t-71 -143.5t-22.5 -131z" />
    <glyph glyph-name="r" unicode="r" horiz-adv-x="407" 
d="M163 0l-126 -11l78 332q10 43 11 64.5t-3.5 26.5t-16.5 6l-45 5l5 22l197 27l3 -3l-41 -173h5q36 75 80 126t86 51q55 0 55 -55q0 -25 -23.5 -55.5t-45.5 -30.5q-14 0 -34 16t-33 16q-46 0 -96 -161q-38 -121 -56 -203z" />
    <glyph glyph-name="s" unicode="s" horiz-adv-x="372" 
d="M263 473q54 0 88 -26.5t34 -53.5q0 -24 -18 -40t-36 -16q-24 0 -34 26q-16 45 -34 63.5t-43 18.5q-42 0 -42 -52q0 -48 82 -109q45 -33 66 -64.5t21 -73.5q0 -66 -53.5 -112t-143.5 -46q-73 0 -110 31t-37 65q0 26 18.5 43t40.5 17q25 0 34 -24q23 -51 53.5 -76t54.5 -25
q22 0 33.5 10t11.5 36q0 49 -86 119q-44 35 -64.5 65t-20.5 69q0 67 50 111t135 44z" />
    <glyph glyph-name="t" unicode="t" horiz-adv-x="319" 
d="M364 425h-99l-80 -334q-10 -39 13 -39q45 0 98 91l18 -13q-75 -142 -186 -142q-44 0 -63.5 29.5t-4.5 89.5l79 318h-64l10 36h62l24 88l136 53l5 -1l-38 -140h101z" />
    <glyph glyph-name="u" unicode="u" horiz-adv-x="573" 
d="M428 461l130 11l-97 -376q-11 -43 11 -43q17 0 40.5 22.5t47.5 65.5l14 -11q-34 -67 -75.5 -104.5t-105.5 -37.5q-39 0 -53.5 27.5t-1.5 75.5l29 106h-4q-52 -97 -108 -153t-132 -56q-93 0 -58 137l65 251q10 41 -11 43l-53 6l6 23l208 24l2 -4l-91 -362q-7 -26 -4 -40
t22 -14q32 0 76 57.5t79 138.5q27 62 64 213z" />
    <glyph glyph-name="v" unicode="v" horiz-adv-x="474" 
d="M65 448l201 24l6 -5l-81 -350q-16 -65 31 -65q61 0 114 81.5t53 200.5q0 74 -14 120q55 20 88 20q4 0 10.5 -9.5t12.5 -27t6 -36.5q-1 -48 -31.5 -121t-81.5 -138q-123 -154 -236 -154q-55 0 -74.5 31t-3.5 99l60 258q9 42 -11 44l-54 6z" />
    <glyph glyph-name="w" unicode="w" horiz-adv-x="730" 
d="M415 458l122 5l-68 -303q-10 -42 -6 -65.5t13 -32.5t22 -9q49 0 96.5 72t51.5 204q3 72 -15 125q60 20 88 20q4 0 11 -9.5t12.5 -27.5t5.5 -36q0 -44 -28.5 -115.5t-75.5 -137.5q-57 -77 -107 -118.5t-113 -41.5q-84 0 -84 86q0 40 15 102l-4 -1q-48 -91 -100 -139
t-119 -48q-44 0 -64 34t-4 99l62 256q10 42 -14 43l-50 6l4 22l204 24l3 -5l-83 -349q-15 -64 21 -64q32 0 74 65.5t69 132.5t35 102q8 36 26 104z" />
    <glyph glyph-name="x" unicode="x" horiz-adv-x="469" 
d="M49 403l-1 22l191 47l3 -4l37 -153h2q52 90 84 121q37 37 74 37q58 0 58 -50q0 -18 -17 -37t-34 -19q-16 0 -23 6q-24 21 -39 21q-16 0 -45.5 -36t-51.5 -76q7 -30 17.5 -71t13.5 -53q25 -101 52 -101q37 0 86 102l14 -11q-24 -68 -70.5 -114t-110.5 -46q-10 0 -18.5 1.5
t-15 6t-11.5 8t-10 12t-8 13t-6.5 16.5t-5 17.5t-5.5 20.5t-6 21q-7 34 -12 51h-3q-4 -7 -18.5 -36.5t-25 -46.5t-27.5 -40t-37.5 -34t-44.5 -11q-65 0 -65 55q0 23 18 42.5t34 19.5q17 0 30 -11q25 -25 40 -25q18 0 39 30.5t51 92.5l-47 185q-5 18 -13 24t-25 5z" />
    <glyph glyph-name="y" unicode="y" horiz-adv-x="447" 
d="M14 427l195 45l4 -2q12 -24 31 -174t19 -249h3q66 110 100 261q12 59 4 141q54 24 87 24q6 0 13 -17.5t7 -33.5q0 -52 -94 -220q-85 -153 -151 -255q-66 -105 -109 -147t-98 -42q-67 0 -67 55q0 26 18 47t43 21q17 0 30 -18q27 -36 52 -36q27 0 47 45q16 43 12 96
q-12 220 -58 381q-10 34 -16.5 45t-20.5 11h-50z" />
    <glyph glyph-name="z" unicode="z" horiz-adv-x="424" 
d="M131 464q15 -3 85 -3h159q59 0 80 9l6 -12q-32 -31 -109 -104.5t-139 -134t-98 -99.5v-2q19 -2 76 -16q56 -16 108 -16q43 0 68.5 18.5t56.5 77.5l17 -8q-26 -80 -70 -135.5t-96 -55.5t-124 24q-82 26 -90 26q-36 0 -55 -33q-5 -9 -9 -9q-7 0 -7 10q0 28 38 70
q111 120 294 291v2h-153q-38 0 -64 -19.5t-51 -60.5l-12 9q14 47 43 102t46 69z" />
    <glyph glyph-name="braceleft" unicode="{" horiz-adv-x="358" 
d="M441 739l-4 -23q-32 -2 -54 -13.5t-34 -33t-18 -43t-10 -53.5l-11 -93q-11 -86 -22 -113q-28 -69 -118 -80l-1 -8q67 -16 77 -60.5t-20 -129.5l-27 -86q-10 -33 -13.5 -55t-1.5 -45.5t18.5 -36t47.5 -14.5l-3 -24h-36q-37 0 -62.5 9t-36.5 27.5t-16 37t0 47t9.5 47.5
t13.5 48l31 100q38 128 -76 128l6 24q41 0 64 5.5t36.5 23.5t18 37t10.5 62l14 112q12 88 23 116q34 87 148 87h47z" />
    <glyph glyph-name="bar" unicode="|" horiz-adv-x="251" 
d="M91 -235v940h73v-940h-73z" />
    <glyph glyph-name="braceright" unicode="}" horiz-adv-x="358" 
d="M-39 -172l5 24q42 2 67 24t34 48.5t14 69.5l11 95q10 87 22 116q29 66 118 76l1 9q-67 16 -77.5 60t20.5 129l27 85q10 32 14 55t1.5 46t-19 35.5t-47.5 14.5l4 24h35q32 0 55 -7.5t36 -18.5t18.5 -30.5t6.5 -35.5t-3.5 -41.5t-8.5 -40.5t-12 -41l-32 -100
q-39 -128 76 -128l-5 -24q-42 0 -65 -5.5t-36.5 -23t-18 -37t-9.5 -62.5l-13 -112q-11 -91 -26 -124q-36 -80 -146 -80h-47z" />
    <glyph glyph-name="asciitilde" unicode="~" horiz-adv-x="490" 
d="M412 287l30 -27q-42 -83 -115 -83q-17 0 -84 31q-51 23 -75 23q-27 0 -46 -14t-43 -44l-27 33q18 24 30.5 37.5t38 27.5t55.5 14q35 0 87 -27q54 -27 76 -27q26 0 38 10.5t35 45.5z" />
    <glyph glyph-name="uni00A0" unicode="&#xa0;" horiz-adv-x="181" 
 />
    <glyph glyph-name="exclamdown" unicode="&#xa1;" horiz-adv-x="281" 
d="M194 472q34 0 51 -19t17 -47q0 -37 -22.5 -59t-55.5 -22t-50.5 19t-17.5 45q0 37 22.5 60t55.5 23zM153 256h21l-12 -345q-2 -54 -22.5 -75.5t-77.5 -21.5q-56 0 -68.5 28t11.5 77z" />
    <glyph glyph-name="cent" unicode="&#xa2;" horiz-adv-x="518" 
d="M379 621h29l-15 -71q52 -2 95 -28t43 -72q0 -25 -16.5 -38t-40.5 -13q-25 0 -28 32q-3 46 -21 69.5t-38 26.5l-83 -389q123 0 189 114l15 -11q-20 -44 -49.5 -75t-61 -45t-54.5 -19.5t-46 -6.5l-19 -89h-31l19 88q-191 14 -191 182q0 127 78 201t211 73zM274 142l84 385
q-38 -2 -67.5 -29.5t-44.5 -68.5t-22.5 -81.5t-7.5 -77.5q0 -112 58 -128z" />
    <glyph glyph-name="sterling" unicode="&#xa3;" horiz-adv-x="518" 
d="M426 0h-423l-4 9l32 57q42 10 68 34t34.5 56t11 71t-3.5 79h-95l8 28h84v18.5v19.5v15q0 251 220 251q49 0 83 -11.5t48.5 -30t19.5 -32.5t5 -28q0 -25 -20.5 -40.5t-42.5 -15.5q-25 0 -31 28q-18 60 -33.5 82.5t-42.5 22.5q-29 0 -47.5 -28.5t-18.5 -76.5q0 -76 7 -174
h135l-7 -28h-129q-2 -71 -39 -123.5t-107 -76.5l-1 -2h246q24 0 34 2.5t27 18.5t42 53l17 -13z" />
    <glyph glyph-name="currency" unicode="&#xa4;" horiz-adv-x="518" 
d="M293 503q70 0 104 -34l48 63l46 -44l-58 -57q32 -43 32 -117q0 -67 -34 -114l62 -52l-51 -53l-48 67q-37 -37 -105 -37q-73 0 -109 33l-46 -61l-46 47l55 50q-30 51 -30 120q0 70 33 116l-59 57l44 46l51 -66q38 36 111 36zM288 452q-49 0 -80 -35t-31 -100
q0 -68 30.5 -104.5t84.5 -36.5q50 0 79.5 33.5t29.5 104.5q0 64 -31.5 101t-81.5 37z" />
    <glyph glyph-name="yen" unicode="&#xa5;" horiz-adv-x="518" 
d="M103 627h252l-6 -21l-41 -5q-22 -2 -16 -25q6 -24 26 -106.5t29 -117.5h2q45 59 93.5 132t57.5 96q8 20 -12 21l-49 5l6 21h179l-5 -21l-27 -3q-28 -2 -62 -45q-26 -31 -160 -220h123l-7 -29h-125l-15 -65h135l-6 -29h-136l-31 -154q-5 -14 -1.5 -24t19.5 -11l55 -5
l-5 -21h-297l5 21l54 4q27 1 34 36l35 154h-121l8 29h119l13 65h-116l7 29h108q-54 192 -66 227q-7 21 -12 27t-17 8l-33 6z" />
    <glyph glyph-name="brokenbar" unicode="&#xa6;" horiz-adv-x="251" 
d="M91 635h73v-329h-73v329zM91 -165v330h73v-330h-73z" />
    <glyph glyph-name="section" unicode="&#xa7;" horiz-adv-x="493" 
d="M137 327q0 -29 15.5 -55.5t32.5 -42t48 -38.5q119 -88 118 -150q27 37 27 90q2 82 -86 147q-117 88 -117 152q-38 -51 -38 -103zM454 227q0 -52 -30 -109.5t-72 -104.5q-13 -64 -60 -104t-119 -40q-61 0 -94 24.5t-33 58.5q0 20 20 35.5t34 15.5t18.5 -5t8.5 -23
q10 -36 34.5 -57t51.5 -21q24 0 39 15.5t15 43.5q0 30 -18.5 58.5t-79.5 73.5q-54 39 -80 76t-26 85q0 108 109 202q31 139 176 139q52 0 83 -20.5t31 -53.5q0 -17 -18.5 -29.5t-37.5 -12.5q-20 0 -25 22q-7 35 -22 53.5t-45 18.5q-23 0 -40 -18t-17 -45q0 -18 3.5 -30
t20 -31.5t49.5 -42.5q69 -49 96.5 -88t27.5 -86z" />
    <glyph glyph-name="dieresis" unicode="&#xa8;" horiz-adv-x="376" 
d="M194 658q30 0 45 -18.5t11 -45.5t-24.5 -46t-50.5 -19t-44.5 18.5t-10.5 46.5q4 27 24 45.5t50 18.5zM382 658q30 0 45 -18.5t11 -45.5q-5 -28 -25.5 -46.5t-49.5 -18.5q-30 0 -44.5 18.5t-11.5 46.5q4 27 24.5 45.5t50.5 18.5z" />
    <glyph glyph-name="copyright" unicode="&#xa9;" horiz-adv-x="653" 
d="M365 33q-122 0 -200.5 82.5t-78.5 209.5q0 124 78 208.5t202 84.5t202 -84.5t78 -208.5t-77 -208t-204 -84zM365 595q-115 0 -182 -72.5t-67 -197.5q0 -112 72.5 -191t177.5 -79q115 0 182 73t67 197q0 113 -72 191.5t-178 78.5zM498 382h-19q-31 90 -89 90
q-40 0 -61 -40.5t-21 -99.5q0 -62 21 -104t64 -42q33 0 53 22t37 62h19l-15 -80q-41 -25 -105 -25q-174 0 -174 162q0 72 43 118.5t130 46.5q77 0 117 -24v-86z" />
    <glyph glyph-name="ordfeminine" unicode="&#xaa;" horiz-adv-x="385" 
d="M293 497q-10 5 -21 5q-31 0 -60 -38.5t-44 -82.5t-15 -72q0 -21 15 -21q23 0 59 45q13 16 24.5 41t18 44.5t14 46t9.5 32.5zM301 518h94l-56 -201q-8 -25 4 -25q18 0 54 58l13 -8q-48 -94 -119 -94q-20 0 -33 16.5t-1 58.5l9 32l-4 1q-64 -108 -142 -108
q-27 0 -40.5 17.5t-13.5 45.5q0 22 6.5 48.5t22 55.5t37 52.5t55.5 39t75 15.5q26 0 37 -8z" />
    <glyph glyph-name="guillemotleft" unicode="&#xab;" horiz-adv-x="483" 
d="M285 411l10 -8l-125 -151q-14 -17 -7 -33l68 -149l-14 -8l-143 160q-12 13 8 28zM453 411l9 -8l-125 -151q-13 -15 -6 -33l68 -149l-13 -8l-144 160q-12 13 8 28z" />
    <glyph glyph-name="logicalnot" unicode="&#xac;" horiz-adv-x="490" 
d="M374 110v178h-327v51h386v-229h-59z" />
    <glyph glyph-name="uni00AD" unicode="&#xad;" horiz-adv-x="295" 
d="M58 265h220l-14 -61h-220z" />
    <glyph glyph-name="registered" unicode="&#xae;" horiz-adv-x="201" 
d="M202 541h-46v10h7q4 1 4 6v47q0 6 -4 6l-7 1v9h48q31 0 31 -20q0 -18 -22 -20v-1q15 -6 18 -18q1 -6 13 -10v-10h-15q-19 0 -24 9q-4 12 -4 14q-2 10 -8 10h-3v-17q0 -5 4 -6h8v-10zM190 606v-21h5q13 0 13 12t-12 12q-6 0 -6 -3zM196 491q-37 0 -60.5 23.5t-23.5 63.5
q0 37 24.5 62.5t60.5 25.5q39 0 61.5 -23.5t22.5 -64.5q0 -37 -24 -62t-61 -25zM130 577q0 -31 19 -52.5t48 -21.5t48 20.5t19 54.5q0 33 -19 54t-48 21q-31 0 -49 -21.5t-18 -54.5z" />
    <glyph glyph-name="macron" unicode="&#xaf;" horiz-adv-x="376" 
d="M158 618h248l-14 -57h-247z" />
    <glyph glyph-name="degree" unicode="&#xb0;" horiz-adv-x="294" 
d="M215 406q-50 0 -81.5 30.5t-31.5 86.5q0 53 32.5 84.5t81.5 31.5q50 0 82.5 -30.5t32.5 -85.5t-32.5 -86t-83.5 -31zM214 608q-62 0 -62 -85q0 -46 18.5 -66t45.5 -20q64 0 64 86q0 85 -66 85z" />
    <glyph glyph-name="plusminus" unicode="&#xb1;" horiz-adv-x="476" 
d="M55 259v51h165v169h57v-169h164v-51h-164v-177h-57v177h-165zM55 0v51h386v-51h-386z" />
    <glyph glyph-name="twosuperior" unicode="&#xb2;" 
d="M373 404h-291l-5 6q2 33 41.5 77.5t103.5 81.5q92 53 92 143q0 54 -33 54q-21 0 -38 -19.5t-35 -71.5q-11 -28 -37 -28q-20 0 -33.5 11.5t-13.5 30.5q0 36 46 67t114 31q142 0 142 -113q0 -87 -118 -123q-133 -39 -159 -63h198q12 0 18.5 2t18.5 13.5t29 36.5l15 -6z" />
    <glyph glyph-name="threesuperior" unicode="&#xb3;" 
d="M290 787q58 0 94 -23t36 -70q0 -78 -112 -86l-1 -4q44 -5 71.5 -29.5t27.5 -60.5q0 -56 -44.5 -86.5t-125.5 -30.5q-66 0 -101 24t-35 59q0 18 14.5 32t33.5 14q23 0 30 -25q16 -49 27.5 -66t28.5 -17q20 0 37 29t17 88q0 19 -3.5 31.5t-10 17t-12 6t-13.5 1.5
q-11 0 -31.5 -4.5t-26.5 -4.5q-18 0 -18 18q0 31 21 31q6 0 28 -6t35 -6q27 0 42 25t15 68q0 56 -35 56q-33 0 -59 -73q-4 -11 -7 -16t-9.5 -9t-16.5 -4q-17 0 -30 10t-13 29q0 29 40 55.5t106 26.5z" />
    <glyph glyph-name="acute" unicode="&#xb4;" horiz-adv-x="376" 
d="M246 512l-15 13l66 126q27 49 36 57q10 7 23 7q19 0 34.5 -14t15.5 -31t-10 -29.5t-35 -33.5z" />
    <glyph glyph-name="mu" unicode="&#xb5;" horiz-adv-x="576" 
d="M555 148l18 -11q-35 -71 -75.5 -110t-103.5 -39q-38 0 -53 27t-2 75l25 90h-4q-55 -100 -95 -146.5t-93 -46.5q-16 0 -34 18q-32 -127 -40 -230l-4 -2q-42 0 -80.5 20t-34.5 38q8 31 41 144t44 155l83 331l138 11l-92 -361q-6 -25 -1 -43t19 -18q33 0 68 43.5t81 150.5
q26 61 68 217l132 11l-96 -372q-11 -44 11 -44q15 0 37 27.5t43 64.5z" />
    <glyph glyph-name="paragraph" unicode="&#xb6;" horiz-adv-x="545" 
d="M296 -189q7 30 20.5 83t32.5 134t44 199q28 130 60 300l-35 -1q-32 -2 -59 -33.5t-42.5 -78.5t-24 -97t-8.5 -94q0 -83 60 -103l-4 -17q-18 -5 -52 -5q-93 0 -151 51t-58 138q0 120 61.5 194.5t173.5 74.5h146q3 17 9 47l48 9q-2 -9 -7 -31t-6 -25h98l-4 -23l-101 -4
q-14 -57 -65 -298q-34 -159 -57 -285.5t-25 -134.5h-54z" />
    <glyph glyph-name="periodcentered" unicode="&#xb7;" horiz-adv-x="233" 
d="M120 162q-26 0 -42 16.5t-16 41.5q0 37 22 62t58 25q28 0 44.5 -17.5t16.5 -43.5q0 -84 -83 -84z" />
    <glyph glyph-name="cedilla" unicode="&#xb8;" horiz-adv-x="376" 
d="M182 2h27l-49 -53q30 -5 52 -22.5t22 -50.5q0 -44 -28.5 -66t-75.5 -22q-29 0 -65 15l7 20q13 -5 33 -5q55 0 55 47q0 23 -16.5 34.5t-34.5 13.5l-3 6z" />
    <glyph glyph-name="onesuperior" unicode="&#xb9;" 
d="M353 404h-235l6 23l36 5q15 2 23 9t12 25l55 244q7 31 -15 33l-40 3l5 18l173 23l2 -4l-70 -317q-4 -18 0.5 -25t19.5 -9l33 -5z" />
    <glyph glyph-name="ordmasculine" unicode="&#xba;" horiz-adv-x="343" 
d="M236 523q127 0 127 -111q0 -72 -46.5 -118.5t-122.5 -46.5q-123 0 -123 104q0 76 45.5 124t119.5 48zM246 502q-38 0 -63 -72t-25 -121q0 -43 30 -43q35 0 61.5 74.5t26.5 117.5q0 44 -30 44z" />
    <glyph glyph-name="guillemotright" unicode="&#xbb;" horiz-adv-x="483" 
d="M54 62l-10 8l125 151q14 16 7 32l-69 150l13 8l145 -161q7 -9 5 -14t-13 -13zM222 62l-10 8l125 151q13 15 6 32l-68 150l15 8l142 -161q12 -13 -7 -27z" />
    <glyph glyph-name="onequarter" unicode="&#xbc;" horiz-adv-x="834" 
d="M333 256h-236l6 23l37 5q16 2 23 9t11 25l55 243q7 31 -15 33l-40 3l5 19l174 23l2 -4l-70 -317q-4 -18 0 -25t19 -9l34 -5zM216 -26l-23 20l497 659l24 -20zM580 107h-149l-8 17q45 54 116.5 127t131.5 126h73l-52 -239h59l-9 -31h-59l-13 -61q-4 -21 15 -23l27 -3
l-4 -20h-204l4 20l31 3q23 2 27 23zM477 138h110l41 170h-1q-1 -1 -64.5 -70t-85.5 -100z" />
    <glyph glyph-name="onehalf" unicode="&#xbd;" horiz-adv-x="834" 
d="M308 256h-235l5 23l36 5q17 2 24.5 9t11.5 25l54 243q7 31 -15 33l-39 3l4 19l174 23l1 -4l-70 -317q-4 -18 0.5 -25t19.5 -9l34 -5zM186 -26l-23 20l497 659l24 -20zM738 0h-291l-5 6q2 33 41.5 77.5t103.5 81.5q92 53 92 143q0 55 -33 55q-21 0 -38.5 -19.5
t-34.5 -70.5q-11 -30 -37 -30q-19 0 -33 11.5t-14 30.5q0 37 46 68t114 31q142 0 142 -113q0 -87 -118 -123q-135 -40 -159 -63h198q12 0 18.5 2t18.5 13t29 36l15 -6z" />
    <glyph glyph-name="threequarters" unicode="&#xbe;" horiz-adv-x="834" 
d="M286 639q58 0 94 -23t36 -70q0 -78 -113 -86l-1 -4q44 -5 71.5 -29.5t27.5 -60.5q0 -55 -47 -86t-129 -31q-67 0 -102 24t-35 59q0 18 17.5 32t37.5 14q23 0 30 -25q22 -67 30 -75q7 -8 19 -8q21 0 41 29.5t20 87.5q0 19 -3.5 31.5t-10 17t-12 6t-13.5 1.5
q-12 0 -32 -4.5t-25 -4.5q-19 0 -19 18q0 31 21 31q6 0 28.5 -6t35.5 -6q27 0 41.5 25t14.5 68q0 56 -33 56q-34 0 -60 -73q-4 -11 -7 -16t-9.5 -9t-16.5 -4q-17 0 -30 10t-13 29q0 29 40 55.5t106 26.5zM243 -26l-25 20l497 659l25 -20zM599 107h-151l-7 17
q106 126 249 253h71l-51 -239h58l-8 -31h-59l-13 -61q-4 -21 15 -23l28 -3l-4 -20h-206l4 20l33 3q23 2 27 23zM494 138h112l41 170h-3q-9 -11 -69 -75.5t-81 -94.5z" />
    <glyph glyph-name="questiondown" unicode="&#xbf;" horiz-adv-x="453" 
d="M290 472q33 0 49.5 -18.5t16.5 -47.5q0 -37 -22.5 -59t-56.5 -22q-32 0 -48.5 18.5t-16.5 45.5q0 37 22.5 60t55.5 23zM173 -204q-174 0 -174 127q0 45 29.5 75t101.5 62q53 25 77 47t24 52q0 43 -43 43q-23 0 -40 -5l-5 19q45 39 109 39q44 0 70 -25t26 -66
q0 -18 -6 -32.5t-23 -29t-29.5 -23.5t-41.5 -28q-59 -37 -85.5 -75t-26.5 -94q0 -61 33 -61q29 0 43.5 26t33.5 92q9 33 43 33q26 0 46.5 -15t20.5 -46q0 -37 -47 -76t-136 -39z" />
    <glyph glyph-name="Agrave" unicode="&#xc0;" horiz-adv-x="622" 
d="M373 247h-187q-8 -14 -99 -185q-9 -16 -5 -24.5t26 -10.5l46 -4l-5 -23h-198l4 23l26 3q20 2 32.5 11.5t27.5 31.5q35 53 166.5 286t166.5 305h103q23 -266 62 -592q3 -40 28 -42l40 -3l-5 -23h-288l4 23l50 4q25 3 22 35q-2 21 -8.5 95t-8.5 90zM371 280
q-16 191 -26 272h-2q-71 -144 -141 -272h169zM455 692l-108 50q-52 23 -62 35q-7 9 -7 20q0 19 15 37.5t31 18.5q19 0 62 -51l78 -93z" />
    <glyph glyph-name="Aacute" unicode="&#xc1;" horiz-adv-x="622" 
d="M373 247h-187q-8 -14 -99 -185q-9 -16 -5 -24.5t26 -10.5l46 -4l-5 -23h-198l4 23l26 3q20 2 32.5 11.5t27.5 31.5q35 53 166.5 286t166.5 305h103q23 -266 62 -592q3 -40 28 -42l40 -3l-5 -23h-288l4 23l50 4q25 3 22 35q-2 21 -8.5 95t-8.5 90zM371 280
q-16 191 -26 272h-2q-71 -144 -141 -272h169zM395 703l-11 16l89 99q26 29 37.5 38t22.5 9q16 0 30.5 -18t14.5 -37q0 -7 -2.5 -12.5t-5 -9t-9.5 -8t-12 -6.5t-16.5 -7.5t-18.5 -8.5z" />
    <glyph glyph-name="Acircumflex" unicode="&#xc2;" horiz-adv-x="622" 
d="M373 247h-187q-8 -14 -99 -185q-9 -16 -5 -24.5t26 -10.5l46 -4l-5 -23h-198l4 23l26 3q20 2 32.5 11.5t27.5 31.5q35 53 166.5 286t166.5 305h103q23 -266 62 -592q3 -40 28 -42l40 -3l-5 -23h-288l4 23l50 4q25 3 22 35q-2 21 -8.5 95t-8.5 90zM371 280
q-16 191 -26 272h-2q-71 -144 -141 -272h169zM578 688l-15 -15l-111 76q-16 15 -33 2l-135 -78l-12 17l155 147h53z" />
    <glyph glyph-name="Atilde" unicode="&#xc3;" horiz-adv-x="622" 
d="M373 247h-187q-8 -14 -99 -185q-9 -16 -5 -24.5t26 -10.5l46 -4l-5 -23h-198l4 23l26 3q20 2 32.5 11.5t27.5 31.5q35 53 166.5 286t166.5 305h103q23 -266 62 -592q3 -40 28 -42l40 -3l-5 -23h-288l4 23l50 4q25 3 22 35q-2 21 -8.5 95t-8.5 90zM371 280
q-16 191 -26 272h-2q-71 -144 -141 -272h169zM567 806l18 -7q-29 -99 -97 -99q-20 0 -66 16q-55 19 -72 19q-33 0 -59 -45l-20 11q39 97 101 97q17 0 63 -16q52 -18 74 -18q18 0 30.5 9t27.5 33z" />
    <glyph glyph-name="Adieresis" unicode="&#xc4;" horiz-adv-x="622" 
d="M374 247h-187q-8 -14 -99 -185q-9 -16 -5 -24.5t26 -10.5l45 -4l-4 -23h-198l4 23l25 3q21 2 33.5 11.5t27.5 31.5q35 53 166.5 286t166.5 305h102q23 -266 62 -592q3 -40 28 -42l40 -3l-5 -23h-288l5 23l49 4q25 3 22 35q-1 16 -7.5 89t-8.5 96zM372 280
q-16 191 -26 272h-2q-64 -127 -141 -272h169zM341 821q29 0 43.5 -17.5t11.5 -44.5t-22 -45t-47 -18q-29 0 -43.5 18t-12.5 45q2 26 21 44t49 18zM535 821q29 0 43.5 -17.5t12.5 -44.5q-3 -26 -22.5 -44.5t-47.5 -18.5q-29 0 -44 18t-12 45t22 44.5t48 17.5z" />
    <glyph glyph-name="Aring" unicode="&#xc5;" horiz-adv-x="622" 
d="M373 247h-187q-8 -14 -99 -185q-9 -16 -5 -24.5t26 -10.5l46 -4l-5 -23h-198l4 23l26 3q20 2 32.5 11.5t27.5 31.5q35 53 166.5 286t166.5 305h103q23 -266 62 -592q3 -40 28 -42l40 -3l-5 -23h-288l4 23l50 4q25 3 22 35q-2 21 -8.5 95t-8.5 90zM371 280
q-16 191 -26 272h-2q-71 -144 -141 -272h169zM443 833q-20 0 -35 -16.5t-19 -45.5q-4 -30 6.5 -47t30.5 -17q21 0 37 17t20 47t-7.5 46t-32.5 16zM448 857q42 0 67 -20t19 -66q-11 -87 -112 -87q-41 0 -66 20t-19 67q7 46 38 66t73 20z" />
    <glyph glyph-name="AE" unicode="&#xc6;" horiz-adv-x="890" 
d="M379 660h551l-35 -164h-26q-8 91 -25.5 112t-85.5 21h-69q-23 0 -31 -6t-13 -27l-53 -254h98q43 0 62 16.5t42 69.5h25l-48 -220h-24q2 50 -11 75.5t-54 25.5h-98l-46 -224q-8 -37 15 -45.5t94 -8.5q54 0 82 8.5t60.5 41.5t75.5 107h26l-54 -188h-544l6 23l49 4
q19 1 27 13t15 41l52 228h-168q-40 -58 -99.5 -140t-76.5 -108q-8 -11 -6 -21t15 -11l69 -6l-3 -23h-231l4 23l43 5q19 3 32.5 14t36.5 39q47 56 395 518q19 27 -1 30l-79 8zM297 342h153l68 282h-14q-16 -22 -60.5 -80t-78.5 -105t-68 -97z" />
    <glyph glyph-name="Ccedilla" unicode="&#xc7;" horiz-adv-x="644" 
d="M367 -17l-37 -39q83 -13 83 -77q0 -46 -30 -70t-83 -24q-43 0 -72 17l8 21q18 -7 38 -7q54 0 54 52q0 42 -55 48l-3 8l67 71q-274 11 -274 280q0 56 17.5 122.5t51.5 119.5q56 84 137 128.5t212 44.5q135 0 209 -46l-38 -173h-24q0 30 -3 53.5t-12 51t-23.5 46t-41 30.5
t-62.5 12q-68 0 -120.5 -41.5t-81.5 -107.5t-43 -137.5t-14 -142.5q0 -215 140 -215q74 0 127.5 49.5t110.5 144.5h23l-58 -181q-75 -38 -203 -38z" />
    <glyph glyph-name="Egrave" unicode="&#xc8;" horiz-adv-x="590" 
d="M128 636l8 24h494l-39 -178h-23q-10 96 -28 121.5t-83 25.5h-69q-22 0 -29.5 -5.5t-12.5 -25.5l-51 -234h95q43 0 62 16.5t42 69.5h23l-45 -205h-22q2 47 -12 66.5t-56 19.5h-95l-55 -248q-2 -8 -2.5 -14t1.5 -11t3.5 -8.5t6.5 -6.5t9 -5t12.5 -3.5t14.5 -2t18 -1
t21 -0.5h24q42 0 75 10.5t59 34t43.5 47.5t40.5 64h23l-64 -187h-529l5 23l49 4q20 1 27.5 13t14.5 41l111 497q7 26 4 38.5t-22 14.5zM449 692l-108 50q-52 24 -61 35q-8 9 -8 20q0 19 15 37.5t31 18.5q11 0 23.5 -10t38.5 -40l78 -93z" />
    <glyph glyph-name="Eacute" unicode="&#xc9;" horiz-adv-x="590" 
d="M128 636l8 24h494l-39 -178h-23q-10 96 -28 121.5t-83 25.5h-69q-22 0 -29.5 -5.5t-12.5 -25.5l-51 -234h95q43 0 62 16.5t42 69.5h23l-45 -205h-22q2 47 -12 66.5t-56 19.5h-95l-55 -248q-2 -8 -2.5 -14t1.5 -11t3.5 -8.5t6.5 -6.5t9 -5t12.5 -3.5t14.5 -2t18 -1
t21 -0.5h24q42 0 75 10.5t59 34t43.5 47.5t40.5 64h23l-64 -187h-529l5 23l49 4q20 1 27.5 13t14.5 41l111 497q7 26 4 38.5t-22 14.5zM370 693l-11 17l89 99q26 29 37 37.5t22 8.5q16 0 30.5 -17.5t14.5 -37.5q0 -7 -2.5 -12t-5 -8.5t-9.5 -8t-12 -7t-16.5 -7.5t-18.5 -8z
" />
    <glyph glyph-name="Ecircumflex" unicode="&#xca;" horiz-adv-x="590" 
d="M128 636l8 24h494l-39 -178h-23q-10 96 -28 121.5t-83 25.5h-69q-22 0 -29.5 -5.5t-12.5 -25.5l-51 -234h95q43 0 62 16.5t42 69.5h23l-45 -205h-22q2 47 -12 66.5t-56 19.5h-95l-55 -248q-2 -8 -2.5 -14t1.5 -11t3.5 -8.5t6.5 -6.5t9 -5t12.5 -3.5t14.5 -2t18 -1
t21 -0.5h24q42 0 75 10.5t59 34t43.5 47.5t40.5 64h23l-64 -187h-529l5 23l49 4q20 1 27.5 13t14.5 41l111 497q7 26 4 38.5t-22 14.5zM563 708l-15 -15l-111 76q-16 15 -33 2l-135 -78l-12 17l155 147h53z" />
    <glyph glyph-name="Edieresis" unicode="&#xcb;" horiz-adv-x="590" 
d="M128 636l8 24h494l-39 -178h-23q-10 96 -28 121.5t-83 25.5h-69q-22 0 -29.5 -5.5t-12.5 -25.5l-51 -234h95q43 0 62 16.5t42 69.5h23l-45 -205h-22q2 47 -12 66.5t-56 19.5h-95l-55 -248q-2 -8 -2.5 -14t1.5 -11t3.5 -8.5t6.5 -6.5t9 -5t12.5 -3.5t14.5 -2t18 -1
t21 -0.5h24q42 0 75 10.5t59 34t43.5 47.5t40.5 64h23l-64 -187h-529l5 23l49 4q20 1 27.5 13t14.5 41l111 497q7 26 4 38.5t-22 14.5zM325 831q29 0 43.5 -17.5t11.5 -44.5t-22 -45t-47 -18q-29 0 -43.5 18t-12.5 45q2 26 21 44t49 18zM519 831q29 0 43.5 -17.5t12.5 -44.5
q-3 -26 -22.5 -44.5t-47.5 -18.5q-29 0 -44 18t-12 45t22 44.5t48 17.5z" />
    <glyph glyph-name="Igrave" unicode="&#xcc;" horiz-adv-x="354" 
d="M136 660h299l-7 -23l-42 -4q-19 -2 -27 -13.5t-14 -39.5l-112 -499q-7 -26 -4 -39t22 -15l47 -4l-6 -23h-298l6 23l43 4q19 2 27 14t14 40l112 499q7 25 3.5 37.5t-21.5 14.5l-49 5zM330 687l-107 50q-52 24 -61 35q-8 9 -8 20q0 19 14.5 37.5t31.5 18.5q11 0 23 -10
t39 -40l78 -93z" />
    <glyph glyph-name="Iacute" unicode="&#xcd;" horiz-adv-x="354" 
d="M136 660h299l-7 -23l-42 -4q-20 -2 -28 -13.5t-14 -39.5l-111 -499q-7 -26 -4.5 -39t22.5 -15l47 -4l-6 -23h-298l6 23l43 4q19 2 26.5 13.5t14.5 40.5l112 499q7 25 3.5 37.5t-22.5 14.5l-48 5zM252 693l-11 17l88 99q26 29 37.5 37.5t22.5 8.5q16 0 30.5 -17.5
t14.5 -37.5q0 -7 -2.5 -12t-5 -8.5t-9.5 -8t-12 -7t-16.5 -7.5t-18.5 -8z" />
    <glyph glyph-name="Icircumflex" unicode="&#xce;" horiz-adv-x="354" 
d="M136 660h299l-7 -23l-42 -4q-20 -2 -28 -13.5t-14 -39.5l-111 -499q-7 -26 -4 -39t22 -15l47 -4l-6 -23h-298l6 23l43 4q19 2 26.5 13.5t14.5 40.5l112 499q7 25 3.5 37.5t-21.5 14.5l-49 5zM444 698l-15 -14l-111 75q-15 15 -33 2l-135 -77l-12 16l155 147h53z" />
    <glyph glyph-name="Idieresis" unicode="&#xcf;" horiz-adv-x="354" 
d="M136 660h299l-7 -23l-41 -4q-20 -2 -28 -13.5t-14 -39.5l-112 -499q-7 -26 -4 -39t23 -15l46 -4l-6 -23h-298l6 23l43 4q19 2 27 14t15 40l111 499q7 25 3.5 37.5t-21.5 14.5l-49 5zM207 826q29 0 43.5 -17.5t11.5 -44.5t-22 -45t-47 -18q-29 0 -43.5 18t-12.5 45
q2 26 21 44t49 18zM401 826q29 0 43.5 -17.5t12.5 -44.5q-3 -26 -22.5 -44.5t-47.5 -18.5q-29 0 -44 18t-12 45t22 44.5t48 17.5z" />
    <glyph glyph-name="Eth" unicode="&#xd0;" horiz-adv-x="730" 
d="M145 330h-91l9 33h90l47 216q7 25 4.5 37.5t-22.5 14.5l-47 5l7 24h275q77 0 132.5 -12.5t99 -42.5t65 -85t21.5 -135q0 -118 -60 -212q-54 -84 -140.5 -128.5t-234.5 -44.5h-301l6 23l42 4q19 1 27 13t15 41zM430 330h-135l-57 -256q-6 -29 7.5 -39t50.5 -10
q63 0 113.5 30t81 75t50.5 102t28 107.5t8 95.5q0 40 -5 70.5t-19.5 62.5t-46.5 49.5t-79 17.5q-44 0 -56.5 -7t-17.5 -31l-50 -234h136z" />
    <glyph glyph-name="Ntilde" unicode="&#xd1;" horiz-adv-x="683" 
d="M128 659h187q32 -69 82.5 -170.5t100.5 -201.5l64 -128h3q80 344 87 426q2 25 -5 36t-27 12l-52 3l5 23h208l-5 -23l-33 -3q-35 -3 -49 -48q-11 -35 -36.5 -143.5t-61 -265.5t-39.5 -176h-90q-39 88 -127.5 275.5t-120.5 256.5h-4q-25 -110 -58 -272t-35 -186
q-5 -44 34 -47l50 -4l-5 -23h-216l5 23l40 3q33 3 48 48q29 89 117 505q5 26 -0.5 38t-26.5 14l-47 5zM607 835l18 -7q-29 -99 -97 -99q-20 0 -66 16q-55 19 -72 19q-34 0 -58 -45l-21 11q39 97 101 97q17 0 63 -16q52 -18 74 -18q18 0 30.5 9t27.5 33z" />
    <glyph glyph-name="Ograve" unicode="&#xd2;" horiz-adv-x="709" 
d="M437 677q126 0 202 -69t76 -208q0 -124 -55 -232q-96 -185 -311 -185q-140 0 -212.5 72t-72.5 196q0 130 54 233q100 193 319 193zM450 651q-54 0 -99 -52t-71.5 -128.5t-41 -154t-14.5 -138.5q0 -81 22.5 -125t84.5 -44q50 0 93.5 48.5t71.5 122t43.5 155.5t15.5 154
q0 162 -105 162zM508 702l-108 50q-52 24 -61 35q-8 9 -8 20q0 19 15 37.5t31 18.5q11 0 23.5 -10t38.5 -40l79 -93z" />
    <glyph glyph-name="Oacute" unicode="&#xd3;" horiz-adv-x="709" 
d="M437 677q126 0 202 -69t76 -208q0 -124 -55 -232q-96 -185 -311 -185q-140 0 -212.5 72t-72.5 196q0 130 54 233q100 193 319 193zM450 651q-54 0 -99 -52t-71.5 -128.5t-41 -154t-14.5 -138.5q0 -81 22.5 -125t84.5 -44q50 0 93.5 48.5t71.5 122t43.5 155.5t15.5 154
q0 162 -105 162zM429 703l-10 17l88 99q26 29 37.5 37.5t22.5 8.5q16 0 30.5 -18t14.5 -37q0 -7 -2.5 -12t-5 -8.5t-9.5 -8t-12 -7t-16.5 -7.5t-18.5 -8z" />
    <glyph glyph-name="Ocircumflex" unicode="&#xd4;" horiz-adv-x="709" 
d="M437 677q126 0 202 -69t76 -208q0 -124 -55 -232q-96 -185 -311 -185q-140 0 -212.5 72t-72.5 196q0 130 54 233q100 193 319 193zM450 651q-54 0 -99 -52t-71.5 -128.5t-41 -154t-14.5 -138.5q0 -81 22.5 -125t84.5 -44q50 0 93.5 48.5t71.5 122t43.5 155.5t15.5 154
q0 162 -105 162zM614 708l-15 -14l-111 75q-16 15 -33 2l-135 -77l-12 16l155 147h53z" />
    <glyph glyph-name="Otilde" unicode="&#xd5;" horiz-adv-x="709" 
d="M437 677q126 0 202 -69t76 -208q0 -124 -55 -232q-96 -185 -311 -185q-140 0 -212.5 72t-72.5 196q0 130 54 233q100 193 319 193zM450 651q-54 0 -99 -52t-71.5 -128.5t-41 -154t-14.5 -138.5q0 -81 22.5 -125t84.5 -44q50 0 93.5 48.5t71.5 122t43.5 155.5t15.5 154
q0 162 -105 162zM604 828l17 -7q-27 -99 -96 -99q-20 0 -66 16q-55 19 -73 19q-32 0 -58 -45l-21 11q39 97 101 97q17 0 63 -16q54 -18 74 -18q18 0 30.5 8.5t28.5 33.5z" />
    <glyph glyph-name="Odieresis" unicode="&#xd6;" horiz-adv-x="709" 
d="M437 677q126 0 202 -69t76 -208q0 -124 -55 -232q-96 -185 -311 -185q-140 0 -212.5 72t-72.5 196q0 130 54 233q100 193 319 193zM450 651q-54 0 -99 -52t-71.5 -128.5t-41 -154t-14.5 -138.5q0 -80 22.5 -124.5t84.5 -44.5q50 0 93.5 48.5t71.5 122t43.5 155.5
t15.5 154q0 162 -105 162zM375 841q29 0 43.5 -17.5t11.5 -44.5t-22 -45t-47 -18q-29 0 -43.5 18t-12.5 45q2 26 21 44t49 18zM569 841q29 0 43.5 -17.5t12.5 -44.5q-3 -26 -22.5 -44.5t-47.5 -18.5q-29 0 -44 18t-12 45t22 44.5t48 17.5z" />
    <glyph glyph-name="multiply" unicode="&#xd7;" horiz-adv-x="490" 
d="M424 373l-143 -145l143 -147l-35 -35l-143 146l-144 -146l-33 35l143 147l-143 145l33 37l144 -146l143 146z" />
    <glyph glyph-name="Oslash" unicode="&#xd8;" horiz-adv-x="709" 
d="M672 681l-46 -61q89 -69 89 -220q0 -124 -55 -232q-96 -185 -311 -185q-110 0 -181 46l-59 -78l-20 20l56 75q-81 68 -81 206q0 129 54 232q99 193 318 193q99 0 167 -40l49 64zM223 146l325 420q-21 85 -96 85q-54 0 -100 -52t-72.5 -128.5t-41 -154t-14.5 -138.5
q0 -6 -0.5 -16t-0.5 -16zM554 527l-325 -422q15 -96 102 -96q50 0 93.5 48.5t71.5 122t43.5 155.5t15.5 154q0 25 -1 38z" />
    <glyph glyph-name="Ugrave" unicode="&#xd9;" horiz-adv-x="710" 
d="M122 659h299l-6 -23l-40 -4q-20 -2 -28 -13.5t-14 -39.5l-83 -369q-46 -201 88 -201q57 0 92.5 51t62.5 176l78 343q7 25 4 37.5t-22 14.5l-48 5l6 23h291l-6 -23l-41 -5q-19 -2 -27.5 -13t-14.5 -39l-78 -338q-32 -142 -94.5 -199.5t-208.5 -57.5q-138 0 -198 57.5
t-31 186.5l79 351q7 25 4 37.5t-22 14.5l-48 5zM499 691l-107 50q-52 24 -61 35q-8 9 -8 20q0 19 14.5 37.5t31.5 18.5q11 0 23 -10t39 -40l78 -93z" />
    <glyph glyph-name="Uacute" unicode="&#xda;" horiz-adv-x="710" 
d="M122 659h299l-6 -23l-40 -4q-20 -2 -28 -13.5t-14 -39.5l-83 -369q-46 -201 88 -201q57 0 92.5 51t62.5 176l78 343q7 25 4 37.5t-22 14.5l-48 5l6 23h291l-6 -23l-41 -5q-19 -2 -27.5 -13t-14.5 -39l-78 -338q-32 -142 -94.5 -199.5t-208.5 -57.5q-138 0 -198 57.5
t-31 186.5l79 351q7 25 4 37.5t-22 14.5l-48 5zM430 692l-11 17l89 99q26 29 37 37.5t22 8.5q16 0 30.5 -18t14.5 -37q0 -6 -1 -10.5t-4.5 -8.5t-6.5 -6.5t-10 -6.5t-11.5 -6t-14.5 -6t-16 -7z" />
    <glyph glyph-name="Ucircumflex" unicode="&#xdb;" horiz-adv-x="710" 
d="M122 659h299l-6 -23l-40 -4q-20 -2 -28 -13.5t-14 -39.5l-83 -369q-46 -201 88 -201q57 0 92.5 51t62.5 176l78 343q7 25 4 37.5t-22 14.5l-48 5l6 23h291l-6 -23l-41 -5q-19 -2 -27.5 -13t-14.5 -39l-78 -338q-32 -142 -94.5 -199.5t-208.5 -57.5q-138 0 -198 57.5
t-31 186.5l79 351q7 25 4 37.5t-22 14.5l-48 5zM622 708l-14 -15l-111 76q-17 15 -34 2l-134 -78l-13 17l156 147h53z" />
    <glyph glyph-name="Udieresis" unicode="&#xdc;" horiz-adv-x="710" 
d="M122 659h299l-6 -23l-40 -4q-20 -2 -28 -13.5t-14 -39.5l-83 -369q-46 -201 88 -201q57 0 92.5 51t62.5 176l78 343q7 25 4 37.5t-22 14.5l-48 5l6 23h291l-6 -23l-41 -5q-19 -2 -27.5 -13t-14.5 -39l-78 -338q-32 -142 -94.5 -199.5t-208.5 -57.5q-138 0 -198 57.5
t-31 186.5l79 351q7 25 4 37.5t-22 14.5l-48 5zM386 831q29 0 43.5 -17.5t11.5 -44.5t-22 -45t-47 -18q-29 0 -43.5 18t-12.5 45q2 26 21 44t49 18zM579 831q29 0 43.5 -17.5t12.5 -44.5q-3 -26 -22.5 -44.5t-47.5 -18.5q-29 0 -44 18t-12 45t22 44.5t48 17.5z" />
    <glyph glyph-name="Yacute" unicode="&#xdd;" horiz-adv-x="583" 
d="M92 660h294l-5 -23l-53 -6q-24 -3 -16 -28q13 -52 81 -286h2q29 41 90.5 140.5t84.5 142.5q16 29 -13 32l-50 5l5 23h205l-4 -23q-5 -1 -16 -1.5t-14 -1t-10.5 -1.5t-10 -2t-8 -3t-8 -4.5t-7 -5.5t-8 -7.5t-8 -10t-10.5 -12.5q-25 -30 -186 -274q-22 -31 -30 -75
l-33 -158q-7 -25 -4 -38.5t22 -14.5l61 -5l-6 -23h-326l6 23l56 4q20 1 28 13.5t14 40.5l35 162q8 36 1 63q-45 164 -90 288q-4 12 -9 19.5t-7.5 12t-11 7t-11 3.5t-17 2t-18.5 1zM387 693l-11 17l89 99q26 29 37 37.5t22 8.5q16 0 30.5 -17.5t14.5 -37.5q0 -7 -2.5 -12
t-5 -8.5t-9.5 -8t-12 -7t-16.5 -7.5t-18.5 -8z" />
    <glyph glyph-name="Thorn" unicode="&#xde;" horiz-adv-x="589" 
d="M325 523h83q100 0 147.5 -36t47.5 -123q0 -48 -17 -85t-43.5 -60t-63 -38t-72 -20.5t-73.5 -5.5q-48 0 -86 8l-18 -82q-7 -24 -3.5 -38t23.5 -15l62 -5l-5 -23h-313l6 23l43 4q19 1 27 13.5t15 40.5l112 499q4 19 4.5 28.5t-4.5 16t-18 7.5l-49 5l7 23h291l-7 -23l-40 -4
q-20 -1 -27.5 -12.5t-15.5 -40.5zM305 460l-49 -243q-4 -20 10 -29t41 -9q75 0 111.5 59t36.5 143q0 115 -97 115q-29 0 -38.5 -7.5t-14.5 -28.5z" />
    <glyph glyph-name="germandbls" unicode="&#xdf;" horiz-adv-x="574" 
d="M132 425h-79l12 36h75q39 126 107 191.5t185 65.5q158 0 158 -143q0 -31 -19 -58q-129 -22 -129 -130q0 -41 55 -113q48 -61 48 -115q0 -60 -54 -115.5t-140 -55.5q-60 0 -88 19t-28 44q0 22 17 40.5t34 18.5q12 0 15.5 -1.5t8.5 -10.5q43 -77 85 -77q21 0 34 14t13 40
q0 47 -65 133q-49 60 -49 115q0 113 155 186q15 30 15 72q0 49 -21.5 80.5t-55.5 31.5q-57 0 -92 -67.5t-67 -211.5l-85 -386q-27 -122 -90 -196t-142 -74q-124 0 -124 68q0 22 20.5 42.5t43.5 20.5q24 0 35 -34q19 -66 56 -66q16 0 24 24q74 308 132 612z" />
    <glyph glyph-name="agrave" unicode="&#xe0;" horiz-adv-x="555" 
d="M415 465h123l-97 -370q-12 -43 10 -43q16 0 37.5 24t39.5 63l17 -11q-34 -69 -71.5 -104.5t-99.5 -35.5q-86 0 -53 122l19 69h-4q-102 -191 -231 -191q-82 0 -82 114q0 39 12 86t38.5 97.5t63 92t91.5 68.5t118 27q37 0 64 -16zM401 436q-18 9 -46 9q-48 0 -95.5 -66
t-73.5 -147.5t-26 -137.5q0 -42 26 -42q46 0 99.5 85t85.5 195q21 69 30 104zM377 514l-72 94q-6 8 -15.5 19.5t-13 16.5t-6.5 12.5t-3 15.5q0 16 20.5 30t40.5 14q15 0 21.5 -14t15.5 -56l26 -124z" />
    <glyph glyph-name="aacute" unicode="&#xe1;" horiz-adv-x="555" 
d="M415 465h123l-97 -370q-12 -43 10 -43q16 0 37.5 24t39.5 63l17 -11q-34 -69 -71.5 -104.5t-99.5 -35.5q-86 0 -53 122l19 69h-4q-102 -191 -231 -191q-82 0 -82 114q0 39 12 86t38.5 97.5t63 92t91.5 68.5t118 27q37 0 64 -16zM401 436q-18 9 -46 9q-48 0 -95.5 -66
t-73.5 -147.5t-26 -137.5q0 -42 26 -42q46 0 99.5 85t85.5 195q21 69 30 104zM336 514l-14 12l66 126q25 50 36 58q9 6 22 6q19 0 34.5 -14t15.5 -31t-10 -29.5t-35 -32.5z" />
    <glyph glyph-name="acircumflex" unicode="&#xe2;" horiz-adv-x="555" 
d="M415 465h123l-97 -370q-12 -43 10 -43q16 0 37.5 24t39.5 63l17 -11q-34 -69 -71.5 -104.5t-99.5 -35.5q-86 0 -53 122l19 69h-4q-102 -191 -231 -191q-82 0 -82 114q0 39 12 86t38.5 97.5t63 92t91.5 68.5t118 27q37 0 64 -16zM401 436q-18 9 -46 9q-48 0 -95.5 -66
t-73.5 -147.5t-26 -137.5q0 -42 26 -42q46 0 99.5 85t85.5 195q21 69 30 104zM465 524l-20 -10l-68 92q-6 6 -10 5.5t-11 -7.5l-103 -90l-15 10l141 190h23z" />
    <glyph glyph-name="atilde" unicode="&#xe3;" horiz-adv-x="555" 
d="M415 465h123l-97 -370q-12 -43 10 -43q16 0 37.5 24t39.5 63l17 -11q-34 -69 -71.5 -104.5t-99.5 -35.5q-86 0 -53 122l19 69h-4q-102 -191 -231 -191q-82 0 -82 114q0 39 12 86t38.5 97.5t63 92t91.5 68.5t118 27q37 0 64 -16zM401 436q-18 9 -46 9q-48 0 -95.5 -66
t-73.5 -147.5t-26 -137.5q0 -42 26 -42q46 0 99.5 85t85.5 195q21 69 30 104zM482 647l15 -6q-20 -97 -74 -97q-9 0 -19 2.5t-25.5 8t-21.5 7.5q-47 18 -60 18q-19 0 -28.5 -9t-21.5 -35l-16 6q23 94 82 94q21 0 63 -17t58 -17q33 0 48 45z" />
    <glyph glyph-name="adieresis" unicode="&#xe4;" horiz-adv-x="555" 
d="M415 465h123l-97 -370q-12 -43 10 -43q16 0 37.5 24t39.5 63l17 -11q-34 -69 -71.5 -104.5t-99.5 -35.5q-86 0 -53 122l19 69h-4q-102 -191 -231 -191q-82 0 -82 114q0 39 12 86t38.5 97.5t63 92t91.5 68.5t118 27q37 0 64 -16zM401 436q-18 9 -46 9q-48 0 -95.5 -66
t-73.5 -147.5t-26 -137.5q0 -42 26 -42q46 0 99.5 85t85.5 195q21 69 30 104zM284 658q30 0 45 -18.5t11 -45.5t-24.5 -46t-50.5 -19t-44.5 18.5t-10.5 46.5q4 27 24 45.5t50 18.5zM472 658q30 0 45 -18.5t11 -45.5q-5 -28 -25.5 -46.5t-49.5 -18.5q-30 0 -44.5 18.5
t-11.5 46.5q4 27 24.5 45.5t50.5 18.5z" />
    <glyph glyph-name="aring" unicode="&#xe5;" horiz-adv-x="555" 
d="M416 465h123l-98 -370q-12 -43 10 -43q16 0 37.5 24t39.5 63l17 -11q-34 -69 -71.5 -104.5t-99.5 -35.5q-86 0 -53 122l19 69h-4q-102 -191 -231 -191q-82 0 -82 114q0 39 12 86t38.5 97.5t63 92t91.5 68.5t118 27q36 0 65 -16zM402 436q-18 9 -47 9q-48 0 -95.5 -66
t-73.5 -147.5t-26 -137.5q0 -42 26 -42q47 0 100 84.5t86 195.5q21 69 30 104zM379 682q-21 0 -37.5 -18.5t-20.5 -49.5t7.5 -50t32.5 -19t38 18.5t21 50.5q4 31 -8 49.5t-33 18.5zM385 706q41 0 66 -22t19 -70q-6 -49 -38 -71t-75 -22q-41 0 -67 22.5t-19 70.5t39 70t75 22
z" />
    <glyph glyph-name="ae" unicode="&#xe6;" horiz-adv-x="723" 
d="M474 479h16l-19 -61l2 -2q62 56 145 56q120 0 120 -103q0 -39 -29 -70.5t-75.5 -49.5t-89.5 -28.5t-86 -14.5q-2 -7 -2 -53q0 -44 20 -77.5t59 -33.5q50 0 88.5 30.5t81.5 91.5l13 -14q-88 -162 -244 -162q-140 0 -140 163q0 10 2 24l-2 2q-22 -37 -42.5 -65.5t-49.5 -59
t-63 -47.5t-70 -17q-86 0 -86 114q0 41 12 89t38.5 98t63 91t92 67t119.5 26q53 0 81 -22zM400 437q-16 11 -41 11q-49 0 -96.5 -61.5t-75 -142.5t-27.5 -145q0 -46 28 -46q43 0 109 105q50 81 103 279zM461 230q88 6 128 51.5t40 109.5q0 57 -36 57q-39 0 -80 -71t-52 -147
z" />
    <glyph glyph-name="ccedilla" unicode="&#xe7;" horiz-adv-x="430" 
d="M410 165l15 -12q-70 -140 -198 -162l-40 -42q29 -5 51.5 -22.5t22.5 -50.5q0 -44 -29 -66t-75 -22q-32 0 -65 15l7 20q11 -5 33 -5q54 0 54 47q0 23 -16.5 34.5t-34.5 13.5l-3 6l63 69q-85 -5 -124 32.5t-39 124.5q0 54 18 110.5t51.5 106t90 81t124.5 31.5
q61 0 94.5 -23t33.5 -60q0 -26 -21.5 -46.5t-48.5 -20.5q-37 0 -37 45q-1 80 -40 80q-32 0 -62.5 -49t-47.5 -119t-17 -134q0 -47 19 -77.5t59 -30.5q44 0 88 36t74 90z" />
    <glyph glyph-name="egrave" unicode="&#xe8;" horiz-adv-x="426" 
d="M409 157l13 -12q-48 -88 -108.5 -122.5t-136.5 -34.5q-62 0 -104.5 37.5t-42.5 125.5q0 127 73 219q82 103 211 103q127 0 127 -104q0 -35 -22 -63t-52.5 -45t-71.5 -29.5t-70.5 -18t-58.5 -8.5q-2 -20 -2 -47q0 -51 20 -84.5t61 -33.5q86 0 164 117zM168 228
q78 16 121.5 65.5t43.5 111.5q0 43 -32 43q-39 0 -78 -63t-55 -157zM313 513l-72 94q-5 7 -13 16.5t-11 14t-7 11t-5.5 11.5t-1.5 11q0 17 20 30.5t41 13.5q15 0 21.5 -14t15.5 -55l27 -124z" />
    <glyph glyph-name="eacute" unicode="&#xe9;" horiz-adv-x="426" 
d="M409 157l13 -12q-48 -88 -108.5 -122.5t-136.5 -34.5q-62 0 -104.5 37.5t-42.5 125.5q0 127 73 219q82 103 211 103q127 0 127 -104q0 -35 -22 -63t-52.5 -45t-71.5 -29.5t-70.5 -18t-58.5 -8.5q-2 -20 -2 -47q0 -51 20 -84.5t61 -33.5q86 0 164 117zM168 228
q78 16 121.5 65.5t43.5 111.5q0 43 -32 43q-39 0 -78 -63t-55 -157zM272 513l-15 12l67 126q25 50 36 58q9 6 22 6q19 0 34.5 -14t15.5 -31q0 -11 -6 -22t-13 -17.5t-26 -22.5z" />
    <glyph glyph-name="ecircumflex" unicode="&#xea;" horiz-adv-x="426" 
d="M409 157l13 -12q-48 -88 -108.5 -122.5t-136.5 -34.5q-62 0 -104.5 37.5t-42.5 125.5q0 127 73 219q82 103 211 103q127 0 127 -104q0 -35 -22 -63t-52.5 -45t-71.5 -29.5t-70.5 -18t-58.5 -8.5q-2 -20 -2 -47q0 -51 20 -84.5t61 -33.5q86 0 164 117zM168 228
q78 16 121.5 65.5t43.5 111.5q0 43 -32 43q-39 0 -78 -63t-55 -157zM401 523l-19 -10l-68 92q-11 9 -22 -2l-103 -90l-15 10l141 190h24z" />
    <glyph glyph-name="edieresis" unicode="&#xeb;" horiz-adv-x="426" 
d="M409 157l13 -12q-48 -88 -108.5 -122.5t-136.5 -34.5q-62 0 -104.5 37.5t-42.5 125.5q0 127 73 219q82 103 211 103q127 0 127 -104q0 -35 -22 -63t-52.5 -45t-71.5 -29.5t-70.5 -18t-58.5 -8.5q-2 -20 -2 -47q0 -51 20 -84.5t61 -33.5q86 0 164 117zM168 228
q78 16 121.5 65.5t43.5 111.5q0 43 -32 43q-39 0 -78 -63t-55 -157zM219 658q30 0 45 -18.5t11 -45.5t-24.5 -46t-50.5 -19t-44.5 18.5t-10.5 46.5q4 27 24 45.5t50 18.5zM407 658q30 0 45 -18.5t11 -45.5q-5 -28 -25.5 -46.5t-49.5 -18.5q-30 0 -44.5 18.5t-11.5 46.5
q4 27 24.5 45.5t50.5 18.5z" />
    <glyph glyph-name="igrave" unicode="&#xec;" horiz-adv-x="296" 
d="M278 142l15 -12q-36 -70 -73.5 -106t-100.5 -36q-93 0 -62 115l74 280q5 19 2.5 25.5t-16.5 8.5l-46 5l6 23l200 27l4 -4l-99 -372q-13 -43 10 -43q16 0 40.5 25.5t45.5 63.5zM237 514l-72 94q-5 6 -13 16t-11 14t-7 10.5t-5.5 12t-1.5 11.5q0 16 20 30t40 14
q15 0 22 -14t16 -56l26 -124z" />
    <glyph glyph-name="iacute" unicode="&#xed;" horiz-adv-x="296" 
d="M278 142l15 -12q-36 -70 -73.5 -106t-100.5 -36q-93 0 -62 115l74 280q5 19 2.5 25.5t-16.5 8.5l-46 5l6 23l200 27l4 -4l-99 -372q-13 -43 10 -43q16 0 40.5 25.5t45.5 63.5zM206 513l-14 13l66 126q3 5 8 15t7.5 13.5t6.5 10.5t6 9.5t6 6.5t7 5.5t7.5 2.5t9.5 1
q19 0 34.5 -14t15.5 -31t-10 -29.5t-35 -32.5z" />
    <glyph glyph-name="icircumflex" unicode="&#xee;" horiz-adv-x="296" 
d="M278 142l15 -12q-36 -70 -73.5 -106t-100.5 -36q-93 0 -62 115l74 280q5 19 2.5 25.5t-16.5 8.5l-46 5l6 23l200 27l4 -4l-99 -372q-13 -43 10 -43q16 0 40.5 25.5t45.5 63.5zM327 523l-20 -10l-68 92q-6 6 -10 5.5t-11 -7.5l-103 -90l-15 10l141 190h23z" />
    <glyph glyph-name="idieresis" unicode="&#xef;" horiz-adv-x="296" 
d="M278 142l14 -12q-35 -70 -72.5 -106t-100.5 -36q-93 0 -62 115l74 280q5 19 2.5 25.5t-16.5 8.5l-46 5l6 23l200 27l4 -4l-99 -372q-13 -43 10 -43q16 0 40 25t46 64zM134 658q30 0 45 -18.5t11 -45.5t-24.5 -46t-50.5 -19t-44.5 18.5t-10.5 46.5q4 27 24 45.5t50 18.5z
M322 658q30 0 45 -18.5t11 -45.5q-5 -28 -25.5 -46.5t-49.5 -18.5q-30 0 -44.5 18.5t-11.5 46.5q4 27 24.5 45.5t50.5 18.5z" />
    <glyph glyph-name="eth" unicode="&#xf0;" horiz-adv-x="511" 
d="M471 653l-89 -39q55 -52 89.5 -131.5t34.5 -167.5q0 -86 -29.5 -161.5t-83.5 -116.5q-66 -49 -171 -49q-188 0 -188 176q0 135 74 222t202 87q34 0 51 -7v3q-8 56 -45 114l-115 -51l-14 27l112 48q-52 64 -99 96l1 7l17 8q28 -9 69.5 -34.5t68.5 -50.5l104 47zM325 447
q-36 0 -67.5 -38t-51 -94.5t-30.5 -115.5t-11 -106q0 -39 16 -59.5t41 -20.5q45 0 82.5 73.5t54 150.5t16.5 119q0 34 -3 45q-10 46 -47 46z" />
    <glyph glyph-name="ntilde" unicode="&#xf1;" horiz-adv-x="574" 
d="M160 0l-127 -11l98 387q7 26 4.5 32.5t-18.5 8.5l-51 6l5 22l211 27l3 -3l-58 -201h6q49 91 109.5 148t128.5 57q55 0 69 -41.5t-7 -96.5l-73 -239q-13 -43 10 -43q34 0 83 90l19 -12q-36 -72 -71.5 -107.5t-100.5 -35.5q-45 0 -63.5 30.5t-2.5 84.5l73 251q16 54 -18 54
q-28 0 -68 -44.5t-75 -115.5q-41 -86 -86 -248zM491 647l16 -6q-20 -97 -75 -97q-8 0 -18 2.5t-25.5 8t-21.5 7.5q-47 18 -60 18q-19 0 -28.5 -9t-21.5 -35l-16 6q23 94 82 94q21 0 63 -17t58 -17t27 9t20 36z" />
    <glyph glyph-name="ograve" unicode="&#xf2;" horiz-adv-x="513" 
d="M315 473q191 0 191 -178q0 -57 -18 -114.5t-47 -93.5q-74 -99 -217 -99q-98 0 -144.5 47.5t-46.5 128.5q0 132 78 220.5t204 88.5zM324 448q-37 0 -69.5 -43t-51.5 -103t-29.5 -116.5t-10.5 -91.5q0 -81 54 -81q34 0 65 43.5t50 103t30.5 114t11.5 83.5q0 44 -9.5 67.5
t-40.5 23.5zM355 514l-72 94q-6 8 -15.5 19.5t-13 16.5t-6.5 12.5t-3 15.5q0 16 20.5 30t40.5 14q15 0 22 -14t16 -56l26 -124z" />
    <glyph glyph-name="oacute" unicode="&#xf3;" horiz-adv-x="513" 
d="M315 473q191 0 191 -178q0 -57 -18 -114.5t-47 -93.5q-74 -99 -217 -99q-98 0 -144.5 47.5t-46.5 128.5q0 132 78 220.5t204 88.5zM324 448q-37 0 -69.5 -43t-51.5 -103t-29.5 -116.5t-10.5 -91.5q0 -81 54 -81q34 0 65 43.5t50 103t30.5 114t11.5 83.5q0 44 -9.5 67.5
t-40.5 23.5zM315 513l-15 13l66 126q3 5 8.5 15t7.5 13.5l6 10.5t6 9.5t6 6.5t7.5 5.5t8 2.5t9.5 1q19 0 34 -14t15 -31t-9.5 -29.5t-34.5 -33.5z" />
    <glyph glyph-name="ocircumflex" unicode="&#xf4;" horiz-adv-x="513" 
d="M315 473q191 0 191 -178q0 -57 -18 -114.5t-47 -93.5q-74 -99 -217 -99q-98 0 -144.5 47.5t-46.5 128.5q0 132 78 220.5t204 88.5zM324 448q-37 0 -69.5 -43t-51.5 -103t-29.5 -116.5t-10.5 -91.5q0 -81 54 -81q34 0 65 43.5t50 103t30.5 114t11.5 83.5q0 44 -9.5 67.5
t-40.5 23.5zM443 523l-19 -10l-68 92q-6 6 -10 5.5t-11 -7.5l-104 -90l-14 10l140 190h24z" />
    <glyph glyph-name="otilde" unicode="&#xf5;" horiz-adv-x="513" 
d="M315 473q191 0 191 -178q0 -57 -18 -114.5t-47 -93.5q-74 -99 -217 -99q-98 0 -144.5 47.5t-46.5 128.5q0 132 78 220.5t204 88.5zM324 448q-37 0 -69.5 -43t-51.5 -103t-29.5 -116.5t-10.5 -91.5q0 -81 54 -81q34 0 65 43.5t50 103t30.5 114t11.5 83.5q0 44 -9.5 67.5
t-40.5 23.5zM460 647l16 -6q-20 -97 -74 -97q-11 0 -66 19q-51 17 -60 17q-19 0 -28.5 -9t-21.5 -35l-16 6q23 94 82 94q20 0 63 -17q42 -17 59 -17q31 0 46 45z" />
    <glyph glyph-name="odieresis" unicode="&#xf6;" horiz-adv-x="513" 
d="M315 473q191 0 191 -178q0 -57 -18 -114.5t-47 -93.5q-74 -99 -217 -99q-98 0 -144.5 47.5t-46.5 128.5q0 132 78 220.5t204 88.5zM324 448q-37 0 -69.5 -43t-51.5 -103t-29.5 -116.5t-10.5 -91.5q0 -81 54 -81q34 0 65 43.5t50 103t30.5 114t11.5 83.5q0 44 -9.5 67.5
t-40.5 23.5zM262 658q30 0 45 -18.5t11 -45.5t-24.5 -46t-50.5 -19t-44.5 18.5t-10.5 46.5q4 27 24 45.5t50 18.5zM451 658q30 0 45 -18.5t11 -45.5q-5 -28 -25.5 -46.5t-49.5 -18.5q-30 0 -44.5 18.5t-11.5 46.5q4 27 24.5 45.5t50.5 18.5z" />
    <glyph glyph-name="divide" unicode="&#xf7;" horiz-adv-x="490" 
d="M246 314q-17 0 -29.5 13.5t-12.5 32.5q0 18 12.5 30.5t30.5 12.5q17 0 29 -12.5t12 -30.5q0 -20 -12 -33t-30 -13zM54 203v50h387v-50h-387zM246 51q-17 0 -29.5 13t-12.5 32q0 18 12.5 31t30.5 13q17 0 29 -13t12 -31q0 -19 -12 -32t-30 -13z" />
    <glyph glyph-name="oslash" unicode="&#xf8;" horiz-adv-x="516" 
d="M160 100l213 306q-10 43 -48 43q-36 0 -67.5 -39.5t-51.5 -97t-32 -114t-14 -98.5zM380 367l-215 -311q11 -44 52 -44q38 0 70.5 43t52 104t30 117t10.5 91zM457 480l-23 -33q73 -45 73 -157q0 -121 -62 -202q-77 -101 -221 -101q-56 0 -94 15l-31 -45l-21 20l26 37
q-72 45 -72 150q0 132 78.5 221t203.5 89q53 0 95 -16l27 39z" />
    <glyph glyph-name="ugrave" unicode="&#xf9;" horiz-adv-x="573" 
d="M428 461l130 11l-97 -376q-11 -43 11 -43q17 0 40.5 22.5t47.5 65.5l14 -11q-34 -67 -75.5 -104.5t-105.5 -37.5q-39 0 -53.5 27.5t-1.5 75.5l29 106h-4q-52 -97 -108 -153t-132 -56q-93 0 -58 137l65 251q10 41 -11 43l-53 6l6 23l208 24l2 -4l-91 -362q-7 -26 -4 -40
t22 -14q32 0 76 57.5t79 138.5q27 62 64 213zM376 513l-72 94l-15 20t-13 17t-7 12.5t-3 14.5q0 17 20.5 31t40.5 14q15 0 21.5 -14t15.5 -56l27 -124z" />
    <glyph glyph-name="uacute" unicode="&#xfa;" horiz-adv-x="573" 
d="M428 461l130 11l-97 -376q-11 -43 11 -43q17 0 40.5 22.5t47.5 65.5l14 -11q-34 -67 -75.5 -104.5t-105.5 -37.5q-39 0 -53.5 27.5t-1.5 75.5l29 106h-4q-52 -97 -108 -153t-132 -56q-93 0 -58 137l65 251q10 41 -11 43l-53 6l6 23l208 24l2 -4l-91 -362q-7 -26 -4 -40
t22 -14q32 0 76 57.5t79 138.5q27 62 64 213zM345 513l-15 13l66 126q3 5 8.5 15t7.5 13.5l6 10.5t6 9.5t6 6.5t7.5 5.5t8 2.5t9.5 1q19 0 34 -14t15 -31t-9.5 -29.5t-34.5 -33.5z" />
    <glyph glyph-name="ucircumflex" unicode="&#xfb;" horiz-adv-x="573" 
d="M428 461l130 11l-97 -376q-11 -43 11 -43q17 0 40.5 22.5t47.5 65.5l14 -11q-34 -67 -75.5 -104.5t-105.5 -37.5q-39 0 -53.5 27.5t-1.5 75.5l29 106h-4q-52 -97 -108 -153t-132 -56q-93 0 -58 137l65 251q10 41 -11 43l-53 6l6 23l208 24l2 -4l-91 -362q-7 -26 -4 -40
t22 -14q32 0 76 57.5t79 138.5q27 62 64 213zM473 524l-19 -10l-68 92q-6 6 -10 5.5t-11 -7.5l-104 -90l-14 10l141 190h23z" />
    <glyph glyph-name="udieresis" unicode="&#xfc;" horiz-adv-x="573" 
d="M428 461l130 11l-97 -376q-11 -43 11 -43q17 0 40.5 22.5t47.5 65.5l14 -11q-34 -67 -75.5 -104.5t-105.5 -37.5q-39 0 -53.5 27.5t-1.5 75.5l29 106h-4q-52 -97 -108 -153t-132 -56q-93 0 -58 137l65 251q10 41 -11 43l-53 6l6 23l208 24l2 -4l-91 -362q-7 -26 -4 -40
t22 -14q32 0 76 57.5t79 138.5q27 62 64 213zM282 658q30 0 45 -18.5t11 -45.5t-24.5 -46t-50.5 -19t-44.5 18.5t-10.5 46.5q4 27 24 45.5t50 18.5zM471 658q30 0 45 -18.5t11 -45.5q-5 -28 -25.5 -46.5t-49.5 -18.5q-30 0 -44.5 18.5t-11.5 46.5q4 27 24.5 45.5t50.5 18.5z
" />
    <glyph glyph-name="yacute" unicode="&#xfd;" horiz-adv-x="447" 
d="M14 427l195 45l4 -2q12 -24 31 -174t19 -249h3q66 110 100 261q12 59 4 141q54 24 87 24q6 0 13 -17.5t7 -33.5q0 -52 -94 -220q-85 -153 -151 -255q-66 -105 -109 -147t-98 -42q-67 0 -67 55q0 26 18 47t43 21q17 0 30 -18q27 -36 52 -36q27 0 47 45q16 43 12 96
q-12 220 -58 381q-10 34 -16.5 45t-20.5 11h-50zM281 513l-14 12l66 126q3 5 8 15t7.5 13.5t6.5 10.5t6 9.5t6 6.5t7 5.5t7.5 2.5t9.5 1q19 0 34.5 -14t15.5 -31t-10 -29.5t-35 -32.5z" />
    <glyph glyph-name="thorn" unicode="&#xfe;" horiz-adv-x="548" 
d="M82 626l7 23l216 27l1 -3l-105 -404h4q40 86 105 145t130 59q99 0 99 -127q0 -34 -7.5 -76t-28.5 -93t-51.5 -92t-82.5 -69t-117 -28q-62 0 -96 31l-59 -250l-126 -11l177 813q11 47 -11 49zM235 22q38 0 70.5 38.5t52.5 93t31 108.5t11 92q0 25 -9 41t-24 16
q-32 0 -68.5 -39t-66.5 -104q-25 -51 -69 -222q24 -24 72 -24z" />
    <glyph glyph-name="ydieresis" unicode="&#xff;" horiz-adv-x="447" 
d="M14 427l195 45l4 -2q12 -24 31 -174t19 -249h3q66 110 100 261q12 59 4 141q54 24 87 24q6 0 13 -17.5t7 -33.5q0 -52 -94 -220q-85 -153 -151 -255q-66 -105 -109 -147t-98 -42q-67 0 -67 55q0 26 18 47t43 21q17 0 30 -18q27 -36 52 -36q27 0 47 45q16 43 12 96
q-12 220 -58 381q-10 34 -16.5 45t-20.5 11h-50zM210 658q30 0 45 -18.5t11 -45.5t-24.5 -46t-50.5 -19t-44.5 18.5t-10.5 46.5q4 27 24 45.5t50 18.5zM398 658q30 0 45 -18.5t11 -45.5q-5 -28 -25.5 -46.5t-49.5 -18.5q-30 0 -44.5 18.5t-11.5 46.5q4 27 24.5 45.5
t50.5 18.5z" />
    <glyph glyph-name="dotlessi" unicode="&#x131;" horiz-adv-x="296" 
d="M278 142l15 -12q-36 -70 -73.5 -106t-100.5 -36q-93 0 -62 115l74 280q5 19 2.5 25.5t-16.5 8.5l-46 5l6 23l200 27l4 -4l-99 -372q-13 -43 10 -43q16 0 40.5 25.5t45.5 63.5z" />
    <glyph glyph-name="Lslash" unicode="&#x141;" horiz-adv-x="561" 
d="M61 259l-9 27l98 41l55 253q7 25 4.5 38.5t-21.5 14.5l-48 4l7 23h295l-7 -23l-41 -4q-20 -2 -27.5 -13.5t-14.5 -39.5l-42 -189l130 58l10 -29l-147 -62l-61 -277q-6 -32 10.5 -41t69.5 -9q50 0 78 12t55.5 43.5t75.5 107.5h26l-56 -194h-501l5 23l47 4q14 1 21.5 8
t11 16t8.5 30l49 210z" />
    <glyph glyph-name="lslash" unicode="&#x142;" horiz-adv-x="294" 
d="M49 372l78 32l53 224q4 20 1 28.5t-16 10.5l-55 7l5 22l212 22l3 -1l-59 -254l75 31l8 -26l-92 -39l-79 -329q-10 -44 12 -44q33 0 82 87l17 -15q-34 -67 -74.5 -104t-97.5 -37q-94 0 -65 123l61 259l-60 -26z" />
    <glyph glyph-name="OE" unicode="&#x152;" horiz-adv-x="935" 
d="M486 671q48 0 97 -5.5t60 -5.5h341l-21 -164h-40q-8 88 -17 106q-12 23 -58 26q-13 1 -36 1h-60q-26 0 -34.5 -5.5t-13.5 -25.5l-53 -235h97q42 0 61.5 17t43.5 70h25l-45 -205h-25q2 46 -12 65.5t-56 19.5h-97l-55 -245q-8 -36 13.5 -45t90.5 -9q77 0 113.5 26t98.5 130
h26l-57 -187h-347q-17 0 -83 -4t-78 -4q-165 0 -239 71.5t-74 205.5q0 30 2.5 57.5t12.5 70t26.5 77.5t49.5 73t77.5 64t113 43t152.5 17zM444 76l116 515q6 27 -12.5 41t-65.5 14q-60 0 -108.5 -27.5t-78.5 -70.5t-50.5 -98t-28.5 -107t-8 -101q0 -109 38.5 -167t106.5 -58
q47 0 66 13.5t25 45.5z" />
    <glyph glyph-name="oe" unicode="&#x153;" horiz-adv-x="736" 
d="M725 156l13 -12q-86 -156 -242 -156q-98 0 -123 74q-29 -34 -72.5 -54t-84.5 -20q-94 0 -138 47t-44 129q0 131 80 220t207 89q95 0 137 -73q84 73 173 73q62 0 91 -22t29 -71q0 -40 -26 -72t-70 -50.5t-87 -29t-91 -16.5q1 -6 -0.5 -22.5t-1.5 -26.5q0 -47 20.5 -85.5
t59.5 -38.5q91 0 170 117zM329 448q-36 0 -68.5 -41t-52.5 -99t-31.5 -114.5t-11.5 -94.5q0 -87 50 -87q45 0 84.5 64.5t58.5 142.5t19 138q0 91 -48 91zM480 233q87 16 127.5 60.5t40.5 104.5q0 20 -9.5 35t-25.5 15q-42 0 -80.5 -60t-52.5 -155z" />
    <glyph glyph-name="Scaron" unicode="&#x160;" horiz-adv-x="494" 
d="M481 464h-25q-7 187 -124 187q-52 0 -76.5 -31t-24.5 -72q0 -47 21 -81t87 -75q83 -51 113.5 -90t30.5 -102q0 -95 -60 -155.5t-182 -61.5q-63 0 -122 20t-95 62l22 172h25q11 -105 54 -166.5t115 -61.5q56 0 82.5 31t26.5 82q0 85 -96 146q-88 57 -119 101.5t-31 105.5
q0 35 10 67t34 64t73 51.5t118 19.5q105 0 176 -56zM224 852l14 15l112 -76q14 -10 32 -1l135 77l13 -17l-155 -147h-53z" />
    <glyph glyph-name="scaron" unicode="&#x161;" horiz-adv-x="372" 
d="M263 473q54 0 88 -26.5t34 -53.5q0 -24 -18 -40t-36 -16q-24 0 -34 26q-16 45 -34 63.5t-43 18.5q-42 0 -42 -52q0 -48 82 -109q45 -33 66 -64.5t21 -73.5q0 -66 -53.5 -112t-143.5 -46q-73 0 -110 31t-37 65q0 26 18.5 43t40.5 17q25 0 34 -24q23 -51 53.5 -76t54.5 -25
q22 0 33.5 10t11.5 36q0 49 -86 119q-44 35 -64.5 65t-20.5 69q0 67 50 111t135 44zM185 705l20 9l68 -90q7 -7 10.5 -7t11.5 7l102 90l16 -9l-141 -191h-24z" />
    <glyph glyph-name="Ydieresis" unicode="&#x178;" horiz-adv-x="583" 
d="M92 660h293l-4 -23l-53 -6q-24 -3 -16 -28q13 -52 81 -286h2q29 41 90.5 140.5t84.5 142.5q16 29 -13 32l-50 5l5 23h205l-4 -23q-5 -1 -16 -1.5t-14 -1t-10.5 -1.5t-10 -2t-8 -3t-8 -4.5t-7 -5.5t-8 -7.5t-8 -10t-10.5 -12.5q-25 -30 -186 -274q-22 -31 -30 -75
l-33 -158q-7 -25 -4 -38.5t22 -14.5l61 -5l-6 -23h-326l6 23l56 4q20 1 28 13.5t14 40.5l35 162q8 36 1 63q-45 164 -90 288q-4 12 -9 19.5t-7.5 12t-11 7t-11 3.5t-17 2t-18.5 1zM341 829q29 0 43.5 -17.5t11.5 -44.5t-22 -45t-47 -18q-29 0 -43.5 18t-12.5 45q2 26 21 44
t49 18zM535 829q29 0 43.5 -17.5t12.5 -44.5q-3 -26 -22.5 -44.5t-47.5 -18.5q-29 0 -44 18t-12 45t22 44.5t48 17.5z" />
    <glyph glyph-name="Zcaron" unicode="&#x17d;" horiz-adv-x="596" 
d="M140 660h506l5 -9q-210 -288 -465 -620h189q66 0 95.5 27t90.5 129q5 8 8 13h23l-57 -200h-545l-6 13q86 104 473 617l-146 -1q-46 0 -71.5 -5.5t-47.5 -26t-35.5 -45t-38.5 -79.5h-22zM266 842l14 15l111 -76q15 -11 32 -1l136 77l13 -17l-156 -147h-53z" />
    <glyph glyph-name="zcaron" unicode="&#x17e;" horiz-adv-x="424" 
d="M131 464q15 -3 85 -3h159q59 0 80 9l6 -12q-32 -31 -109 -104.5t-139 -134t-98 -99.5v-2q19 -2 76 -16q56 -16 108 -16q43 0 68.5 18.5t56.5 77.5l17 -8q-26 -80 -70 -135.5t-96 -55.5t-124 24q-82 26 -90 26q-36 0 -55 -33q-5 -9 -9 -9q-7 0 -7 10q0 28 38 70
q111 120 294 291v2h-153q-38 0 -64 -19.5t-51 -60.5l-12 9q14 47 43 102t46 69zM192 704l20 9l68 -90q7 -7 10.5 -7t11.5 7l102 90l16 -9l-141 -191h-24z" />
    <glyph glyph-name="florin" unicode="&#x192;" horiz-adv-x="518" 
d="M459 346h-115q0 -1 -5.5 -29t-11.5 -60.5t-12 -62t-7 -34.5q-26 -131 -89 -213t-152 -82q-58 0 -83 20.5t-23 46.5q1 23 18 39t37 16q8 0 13.5 -1.5t9 -7.5t4 -8.5t4.5 -13.5q26 -63 45 -63q20 0 27 28q12 48 80 425h-89l6 26h89q0 9 11 53q6 29 14.5 55.5t27 63t42 62
t62 44t84.5 18.5q60 0 83 -21.5t23 -50.5q0 -20 -18.5 -34.5t-39.5 -14.5q-8 0 -12.5 2t-7.5 7.5t-4 8t-3 11.5q-8 35 -17.5 51.5t-25.5 16.5q-11 0 -18 -12.5t-14 -41.5q-25 -114 -42 -218h115z" />
    <glyph glyph-name="circumflex" unicode="&#x2c6;" horiz-adv-x="376" 
d="M375 523l-19 -10l-69 92q-6 6 -10 5.5t-11 -7.5l-103 -90l-15 10l141 190h23z" />
    <glyph glyph-name="caron" unicode="&#x2c7;" horiz-adv-x="376" 
d="M187 704l20 9l68 -90q7 -7 10.5 -7t11.5 7l102 90l16 -9l-141 -191h-24z" />
    <glyph glyph-name="uni02C9" unicode="&#x2c9;" horiz-adv-x="376" 
d="M158 618h248l-14 -57h-247z" />
    <glyph glyph-name="breve" unicode="&#x2d8;" horiz-adv-x="376" 
d="M262 523q-31 0 -51 8.5t-28.5 20.5t-10 32.5t1 35.5t7.5 39h21q-1 -9 0.5 -19t7.5 -22.5t23 -20.5t43 -8q79 0 105 70h22q-6 -28 -13 -46.5t-22 -42t-41.5 -35.5t-64.5 -12z" />
    <glyph glyph-name="dotaccent" unicode="&#x2d9;" horiz-adv-x="376" 
d="M289 662q32 0 47.5 -19.5t11.5 -48.5q-5 -28 -26.5 -48.5t-52.5 -20.5q-32 0 -47.5 20t-11.5 49q5 29 25.5 48.5t53.5 19.5z" />
    <glyph glyph-name="ring" unicode="&#x2da;" horiz-adv-x="376" 
d="M288 681q-20 0 -36.5 -18.5t-20.5 -49.5q-4 -32 7 -50.5t33 -18.5q20 0 37 18.5t21 50.5q4 31 -7.5 49.5t-33.5 18.5zM294 705q41 0 66 -22t19 -70t-38 -70.5t-74 -22.5q-41 0 -67 22.5t-19 70.5t39 70t74 22z" />
    <glyph glyph-name="ogonek" unicode="&#x2db;" horiz-adv-x="406" 
d="M193 7h20q-45 -34 -73 -75t-28 -79q0 -51 53 -51q23 0 60 22l8 -15q-58 -65 -126 -65q-80 0 -80 80q0 52 52 103.5t114 79.5z" />
    <glyph glyph-name="tilde" unicode="&#x2dc;" horiz-adv-x="376" 
d="M392 647l16 -6q-20 -97 -75 -97q-13 0 -65 19q-51 17 -60 17q-19 0 -28.5 -9t-21.5 -35l-16 6q23 94 82 94q22 0 62 -17q42 -17 59 -17q16 0 27 9t20 36z" />
    <glyph glyph-name="hungarumlaut" unicode="&#x2dd;" horiz-adv-x="376" 
d="M188 513l-13 10l40 126q11 38 21 51t30 13q16 0 28.5 -10t12.5 -25q0 -6 -1.5 -11t-5.5 -11.5t-7.5 -11t-11.5 -14.5t-13 -17zM330 513l-13 10l46 126q14 38 23.5 51t28.5 13q17 0 29 -9.5t12 -25.5q0 -5 -0.5 -9t-3 -8.5t-3.5 -7.5t-5.5 -8.5t-7 -8.5t-9.5 -11t-10 -12z
" />
    <glyph glyph-name="uni0394" unicode="&#x394;" horiz-adv-x="621" 
d="M-8 0l6 27q17 26 152.5 257.5t216.5 375.5h105l97 -630l-8 -30h-569zM411 79l-68 480h-2l-257 -473q-11 -18 -8.5 -26t24.5 -8h276q21 0 28.5 6.5t6.5 20.5z" />
    <glyph glyph-name="uni03A9" unicode="&#x3a9;" horiz-adv-x="759" 
d="M332 0h-301l20 177h19q9 -45 20.5 -60.5t31.5 -15.5h153l2 5q-79 27 -125.5 88.5t-46.5 149.5q0 147 91 239t268 92q136 0 210.5 -72t74.5 -183q0 -124 -61 -201t-190 -113v-5h141q16 0 26.5 3.5t27 21.5t32.5 51h28l-60 -177h-302l18 78q51 21 88.5 65.5t57 101
t28.5 111t9 110.5q0 83 -32 133t-94 50q-47 0 -84 -25.5t-59.5 -64t-37 -88.5t-20 -95t-5.5 -88q0 -70 24 -129t66 -81z" />
    <glyph glyph-name="uni03BC" unicode="&#x3bc;" horiz-adv-x="576" 
d="M171 -13q-15 0 -33 18q-32 -127 -40 -230l-4 -2q-42 0 -80.5 20t-34.5 38q8 31 41 144t44 155l83 331l138 11l-92 -361q-6 -25 -1 -43t19 -18q33 0 68 43.5t81 150.5q26 61 68 217l132 11l-96 -372q-11 -44 11 -44q15 0 37 27.5t43 64.5l18 -11q-35 -71 -75.5 -110
t-103.5 -39q-38 0 -53 27t-2 75l25 90h-4q-27 -50 -44.5 -78t-42 -58t-49 -43.5t-53.5 -13.5z" />
    <glyph glyph-name="pi" unicode="&#x3c0;" horiz-adv-x="539" 
d="M179 380q-81 -3 -116 -15l-7 15q44 48 83 64.5t109 16.5h279q30 0 48 22l15 -13l-60 -90h-64l-68 -283q-4 -28 -0.5 -34t14.5 -6q33 0 74 70l17 -19q-41 -71 -82 -95t-89 -24q-49 0 -63.5 27.5t2.5 95.5l67 268h-125q-7 -42 -47 -205q-23 -92 -55 -142.5t-59 -50.5
q-50 0 -50 41q0 22 24 32q48 23 77 61t49 124q7 29 16.5 82t10.5 58z" />
    <glyph glyph-name="uni2010" unicode="&#x2010;" horiz-adv-x="295" 
d="M58 265h220l-14 -61h-220z" />
    <glyph glyph-name="figuredash" unicode="&#x2012;" horiz-adv-x="294" 
d="M78 362h219l-13 -61h-219z" />
    <glyph glyph-name="endash" unicode="&#x2013;" horiz-adv-x="437" 
d="M58 264h362l-13 -60h-362z" />
    <glyph glyph-name="emdash" unicode="&#x2014;" horiz-adv-x="857" 
d="M58 264h779l-12 -60h-780z" />
    <glyph glyph-name="quoteleft" unicode="&#x2018;" horiz-adv-x="224" 
d="M322 719q-90 -113 -90 -189q0 -37 11 -59q-12 -10 -48.5 -24t-53.5 -12q-19 25 -19 57q0 51 61 118t128 120z" />
    <glyph glyph-name="quoteright" unicode="&#x2019;" horiz-adv-x="224" 
d="M82 443q91 109 91 189q0 34 -12 60q12 10 49 23.5t54 11.5q18 -25 18 -56q0 -36 -37.5 -87.5t-75.5 -86.5t-76 -65z" />
    <glyph glyph-name="quotesinglbase" unicode="&#x201a;" horiz-adv-x="233" 
d="M-43 -133q94 113 94 199q0 40 -13 62q14 10 53 24.5t56 12.5q20 -28 20 -54q0 -58 -66.5 -132.5t-132.5 -122.5z" />
    <glyph glyph-name="quotedblleft" unicode="&#x201c;" horiz-adv-x="371" 
d="M305 719q-84 -104 -84 -179q0 -35 11 -57q-14 -9 -47.5 -21t-48.5 -11q-18 20 -18 55q0 48 56.5 110.5t120.5 113.5zM468 719q-85 -103 -85 -179q0 -36 12 -57q-15 -9 -48 -21t-48 -11q-19 21 -19 54t35.5 82t70.5 82t71 61z" />
    <glyph glyph-name="quotedblright" unicode="&#x201d;" horiz-adv-x="371" 
d="M243 459q87 100 87 179q0 33 -12 55q13 10 47.5 23t49.5 11q17 -22 17 -55q0 -34 -35 -82t-71 -81t-71 -60zM81 459q86 99 86 179q0 33 -12 55q12 9 46 22.5t50 11.5q19 -25 19 -54q0 -34 -35 -82t-71.5 -81.5t-71.5 -60.5z" />
    <glyph glyph-name="quotedblbase" unicode="&#x201e;" horiz-adv-x="397" 
d="M-43 -133q94 113 94 199q0 40 -13 62q14 10 49.5 24.5t52.5 12.5q20 -28 20 -54q0 -59 -65 -134t-127 -121zM127 -133q96 110 96 199q0 40 -13 62q14 10 49.5 24.5t51.5 12.5q21 -27 21 -54q0 -59 -65 -134.5t-128 -120.5z" />
    <glyph glyph-name="dagger" unicode="&#x2020;" horiz-adv-x="450" 
d="M208 267q3 14 44 77q-47 -8 -179 -36q-7 3 -5.5 23t9 44t12.5 23q6 0 35 -7.5t68.5 -17t64.5 -13.5q5 95 -2 217q-1 11 55 11q56 1 52 -13q-4 -10 -40.5 -96.5t-48.5 -118.5q30 5 70.5 13.5t74 16t35.5 7.5q7 -3 5.5 -23t-9.5 -44t-14 -23q-5 0 -34 7.5t-68 16.5t-65 13
q1 -12 5 -29.5t6.5 -30t2.5 -15.5q-2 -12 -60.5 -217.5t-60.5 -215.5h-15q5 20 33 222.5t29 208.5z" />
    <glyph glyph-name="daggerdbl" unicode="&#x2021;" horiz-adv-x="454" 
d="M294 300q-1 -4 -12.5 -22t-22.5 -35l-11 -17q29 5 70 13t70.5 13.5t35.5 6.5q6 -2 5 -21t-8 -41.5t-13 -21.5q-6 0 -34 6.5t-67 15t-63 13.5q11 -51 6 -67q-25 -83 -86 -307h-18q3 12 23.5 160t20.5 150q5 18 34 64q-86 -15 -179 -34q-7 2 -6 21t8 41.5t13 21.5
q6 0 35.5 -6.5t68.5 -15t64 -12.5q-16 54 -12 78q2 12 43 66q-30 -5 -71 -12.5t-70.5 -13.5t-34.5 -7q-7 2 -6 21t8 41.5t13 21.5q7 0 35.5 -6.5t67.5 -15.5t64 -13q-10 131 -7 184q0 9 27.5 13t53.5 -0.5t23 -15.5q-18 -62 -81 -181q130 23 180 34q7 -2 6 -21t-8 -41.5
t-13 -21.5q-6 0 -35 6.5t-68.5 15t-64.5 12.5q19 -47 16 -70z" />
    <glyph glyph-name="bullet" unicode="&#x2022;" horiz-adv-x="374" 
d="M199 366q54 0 92 -39t39 -95q0 -56 -37.5 -95t-91.5 -39q-56 0 -94 38.5t-39 95.5q0 57 37 95.5t94 38.5z" />
    <glyph glyph-name="onedotenleader" unicode="&#x2024;" horiz-adv-x="470" 
d="M204 -11q-27 0 -43.5 16.5t-16.5 42.5q0 36 22.5 61t58.5 25q29 0 45.5 -18t16.5 -43q0 -38 -22 -61t-61 -23z" />
    <glyph glyph-name="twodotenleader" unicode="&#x2025;" horiz-adv-x="470" 
d="M81 -10q-26 0 -42 16.5t-16 42.5q0 36 21.5 60.5t58.5 24.5q29 0 45.5 -17.5t16.5 -43.5q0 -37 -22 -60t-62 -23zM319 -10q-26 0 -42 16.5t-16 42.5q0 36 21.5 60.5t58.5 24.5q29 0 45 -17.5t16 -43.5q0 -37 -22 -60t-61 -23z" />
    <glyph glyph-name="ellipsis" unicode="&#x2026;" horiz-adv-x="695" 
d="M81 -10q-26 0 -42 16.5t-16 42.5q0 36 21.5 60.5t58.5 24.5q29 0 45.5 -17.5t16.5 -43.5q0 -37 -22 -60t-62 -23zM312 -10q-26 0 -42.5 16.5t-16.5 42.5q0 36 22 60.5t59 24.5q29 0 45 -17.5t16 -43.5q0 -37 -22 -60t-61 -23zM552 -10q-26 0 -42.5 16.5t-16.5 42.5
q0 36 22 60.5t59 24.5q29 0 45 -17.5t16 -43.5q0 -37 -22 -60t-61 -23z" />
    <glyph glyph-name="perthousand" unicode="&#x2030;" horiz-adv-x="1066" 
d="M654 667l25 -20l-531 -675l-26 20l458 574h-176q6 -18 6 -40q0 -101 -49.5 -169t-148.5 -68q-56 0 -86.5 32.5t-30.5 88.5q0 97 49.5 163t144.5 66q58 0 96 -34q11 -10 37 -10h124q33 0 47.5 7t31.5 29zM284 617q-42 0 -69.5 -91t-27.5 -154q0 -32 7.5 -46.5t28.5 -14.5
q22 0 41 31t30 74t17 82.5t6 64.5q0 54 -33 54zM576 339q64 0 93 -31.5t29 -94.5q0 -85 -50.5 -154.5t-141.5 -69.5q-66 0 -94 30.5t-28 89.5q0 54 19 104.5t64.5 88t108.5 37.5zM573 317q-23 0 -42.5 -29.5t-30.5 -71.5t-17 -81t-6 -64q-1 -60 32 -60q30 0 53.5 51.5
t33.5 106.5t10 90q-1 58 -33 58zM907 339q122 0 122 -126q0 -53 -19.5 -102.5t-65 -85.5t-108.5 -36q-65 0 -93 30.5t-28 89.5q0 54 19 104.5t64.5 88t108.5 37.5zM904 317q-30 0 -53.5 -50.5t-33 -104.5t-10.5 -91q0 -60 34 -60q42 0 69 93t26 155q0 58 -32 58z" />
    <glyph glyph-name="guilsinglleft" unicode="&#x2039;" horiz-adv-x="314" 
d="M285 411l10 -8l-125 -151q-14 -17 -7 -33l68 -149l-13 -8l-144 160q-12 13 8 28z" />
    <glyph glyph-name="guilsinglright" unicode="&#x203a;" horiz-adv-x="314" 
d="M54 62l-10 8l125 151q13 15 6 32l-68 150l13 8l145 -161q7 -9 5 -14t-13 -13z" />
    <glyph glyph-name="fraction" unicode="&#x2044;" horiz-adv-x="94" 
d="M-149 -26l-25 20l497 659l24 -20z" />
    <glyph glyph-name="zero.superior" unicode="&#x2070;" 
d="M312 764q-30 0 -55.5 -64t-36.5 -129t-11 -98q0 -55 33 -55q41 0 70.5 112t29.5 176q0 58 -30 58zM309 787q42 0 71 -13t42.5 -34.5t18.5 -42.5t5 -45q0 -37 -6 -72t-21 -69.5t-37.5 -60t-58 -41t-79.5 -15.5q-139 0 -139 135q0 47 11.5 91t35 82.5t64 61.5t93.5 23z" />
    <glyph glyph-name="four.superior" unicode="&#x2074;" 
d="M257 511h-150l-8 16q111 131 248 253h73l-52 -238h59l-9 -31h-59l-13 -62q-4 -20 15 -22l27 -3l-4 -20h-204l4 20l31 3q23 2 28 22zM153 542h110l42 169h-2q-5 -6 -67 -73t-83 -96z" />
    <glyph glyph-name="five.superior" unicode="&#x2075;" 
d="M404 702h-185q-10 0 -14 -3t-8 -14l-29 -84l2 -2q60 44 122 44q120 0 120 -106q0 -71 -48.5 -105.5t-128.5 -34.5q-60 0 -96.5 23.5t-36.5 58.5q0 17 17 30.5t38 13.5q13 0 18.5 -7.5t10.5 -23.5q24 -75 53 -75q23 0 38 32t15 78q0 74 -60 74q-40 0 -72 -37l-21 18
l54 196l4 3h246l3 -6z" />
    <glyph glyph-name="six.superior" unicode="&#x2076;" 
d="M324 787q59 0 88.5 -21.5t29.5 -47.5q0 -22 -14 -32.5t-32 -10.5q-16 0 -22.5 6.5t-10.5 22.5q-20 63 -49 63q-27 0 -53 -45t-41 -120h4q47 40 96 40q105 0 105 -102q0 -64 -47 -103.5t-125 -39.5q-145 0 -145 142q0 103 57.5 175.5t158.5 72.5zM252 418q28 0 45 36.5
t17 84.5q0 24 -11.5 43t-30.5 19q-23 0 -37 -13q-28 -25 -28 -93q0 -29 12 -53t33 -24z" />
    <glyph glyph-name="seven.superior" unicode="&#x2077;" 
d="M184 781h283l2 -6q-12 -59 -113 -162q-54 -57 -54 -172q0 -44 -50 -44q-57 0 -57 53q0 74 97 146q90 67 112 98h-187q-21 0 -31.5 -8.5t-36.5 -44.5l-17 8z" />
    <glyph glyph-name="eight.superior" unicode="&#x2078;" 
d="M278 594q-29 0 -48.5 -35.5t-19.5 -82.5q0 -28 11 -43t29 -15q27 0 46 36t20 89q0 51 -38 51zM298 787q147 0 147 -92q0 -75 -99 -87v-6q81 -28 81 -87q0 -118 -170 -118q-82 0 -120 28.5t-38 74.5q0 42 31 70.5t82 33.5v6q-28 10 -44 25.5t-16 44.5q0 45 34.5 76
t111.5 31zM308 766q-23 0 -39 -34t-16 -72q0 -49 35 -49q23 0 38 31.5t15 70.5q0 28 -7.5 40.5t-25.5 12.5z" />
    <glyph glyph-name="nine.superior" unicode="&#x2079;" 
d="M284 787q80 0 116 -38t36 -113q0 -46 -12 -87t-35.5 -76t-64.5 -55.5t-94 -20.5q-56 0 -92 23t-35 56q0 17 14.5 30t35.5 13t28 -24q23 -78 63 -78q56 0 80 171h-4q-31 -37 -85 -37q-111 0 -111 96q0 66 47.5 103t112.5 37zM292 768q-25 0 -42 -36.5t-17 -73.5
q0 -28 10.5 -48.5t33.5 -20.5q25 0 36 13q18 21 18 89q0 77 -39 77z" />
    <glyph glyph-name="parenleft.superior" unicode="&#x207d;" horiz-adv-x="226" 
d="M335 797l-1 -16q-149 -41 -149 -327q0 -35 13 -65.5t37 -38.5l-5 -15q-113 11 -113 166q0 123 60 209.5t158 86.5z" />
    <glyph glyph-name="parenright.superior" unicode="&#x207e;" horiz-adv-x="216" 
d="M62 336v16q150 40 150 327q0 35 -13 65.5t-37 38.5l5 14q60 -5 86.5 -51t26.5 -117q0 -123 -60 -208t-158 -85z" />
    <glyph glyph-name="n.superior" unicode="&#x207f;" horiz-adv-x="384" 
d="M159 254l-91 -7l58 219q6 21 -9 23l-29 4l4 14l136 16l3 -2l-35 -114h2q73 115 147 115q67 0 40 -85l-37 -121q-7 -24 6 -24q16 0 45 49l15 -6q-21 -43 -47.5 -65.5t-73.5 -22.5q-60 0 -39 69l42 136q8 28 -9 28q-14 0 -43 -37t-43 -68q-14 -33 -42 -121z" />
    <glyph glyph-name="zero.inferior" unicode="&#x2080;" 
d="M230 253q-30 0 -55 -63.5t-36 -129t-11 -98.5q0 -55 33 -55q28 0 52.5 62t35.5 127t11 99q0 58 -30 58zM227 276q42 0 71 -13t42.5 -34.5t18.5 -42.5t5 -45q0 -37 -6 -72t-21 -69.5t-37.5 -60t-57.5 -41t-79 -15.5q-139 0 -139 135q0 47 11.5 91t35 82.5t64 61.5t92.5 23
z" />
    <glyph glyph-name="one.inferior" unicode="&#x2081;" 
d="M271 -107h-235l6 23l36 5q15 2 23 9t12 25l55 244q7 31 -15 33l-40 3l5 18l173 23l2 -4l-70 -317q-4 -18 0.5 -25t19.5 -9l33 -5z" />
    <glyph glyph-name="two.inferior" unicode="&#x2082;" 
d="M292 -107h-291l-5 6q2 33 41.5 77.5t103.5 81.5q92 53 92 143q0 54 -33 54q-21 0 -38 -19.5t-35 -71.5q-12 -28 -37 -28q-20 0 -33.5 11.5t-13.5 30.5q0 36 46 67t114 31q142 0 142 -112q0 -87 -118 -123q-131 -39 -159 -64h198q12 0 18.5 2t18.5 13.5t29 36.5l15 -6z
" />
    <glyph glyph-name="three.inferior" unicode="&#x2083;" 
d="M209 276q58 0 94 -23t36 -70q0 -78 -113 -86l-1 -4q44 -5 71.5 -29.5t27.5 -60.5q0 -56 -44.5 -86.5t-125.5 -30.5q-66 0 -101 24t-35 59q0 18 14.5 32t33.5 14q23 0 30 -25q16 -49 27.5 -66t28.5 -17q20 0 37 29t17 88q0 19 -3.5 31.5t-10 17t-12 6t-13.5 1.5
q-11 0 -31.5 -4.5t-26.5 -4.5q-18 0 -18 18q0 31 21 31q6 0 28.5 -6t35.5 -6q27 0 42 25t15 68q0 56 -35 56q-33 0 -59 -73q-4 -11 -7 -16t-9.5 -9t-16.5 -4q-17 0 -30 10t-13 29q0 29 40 55.5t106 26.5z" />
    <glyph glyph-name="four.inferior" unicode="&#x2084;" 
d="M175 0h-150l-8 17q111 130 248 253h73l-52 -239h59l-9 -31h-59l-13 -62q-4 -20 15 -22l27 -3l-4 -20h-204l4 20l31 3q23 2 28 22zM71 31h110l42 169h-2q-4 -5 -66.5 -72t-83.5 -97z" />
    <glyph glyph-name="five.inferior" unicode="&#x2085;" 
d="M322 191h-185q-10 0 -14 -3t-8 -14l-29 -84l2 -2q60 44 122 44q120 0 120 -106q0 -71 -48.5 -105.5t-128.5 -34.5q-60 0 -96.5 23.5t-36.5 58.5q0 17 16.5 30.5t38.5 13.5q13 0 18.5 -7.5t10.5 -23.5q24 -75 53 -75q23 0 38 32t15 78q0 74 -60 74q-40 0 -72 -37l-21 18
l54 196l4 3h246l3 -6z" />
    <glyph glyph-name="six.inferior" unicode="&#x2086;" 
d="M242 276q59 0 88.5 -21.5t29.5 -47.5q0 -22 -14 -32.5t-32 -10.5q-16 0 -22.5 6.5t-10.5 22.5q-20 63 -49 63q-27 0 -52.5 -45t-40.5 -120h3q47 40 96 40q105 0 105 -102q0 -64 -46.5 -103.5t-124.5 -39.5q-145 0 -145 142q0 102 57 175t158 73zM171 -93q28 0 44.5 36.5
t16.5 84.5q0 24 -11.5 43t-30.5 19q-23 0 -36 -13q-28 -25 -28 -93q0 -29 12 -53t33 -24z" />
    <glyph glyph-name="seven.inferior" unicode="&#x2087;" 
d="M103 270h283l2 -6q-12 -59 -113 -162q-54 -57 -54 -171q0 -45 -50 -45q-57 0 -57 53q0 75 97 146q93 72 112 98h-187q-21 0 -31.5 -8.5t-36.5 -44.5l-17 8z" />
    <glyph glyph-name="eight.inferior" unicode="&#x2088;" 
d="M197 83q-29 0 -49 -35t-20 -83q0 -58 41 -58q27 0 46 36t20 89q0 51 -38 51zM217 276q146 0 146 -92q0 -75 -98 -87v-6q81 -28 81 -87q0 -118 -170 -118q-83 0 -121 28.5t-38 74.5q0 43 31 71t83 33v6q-28 10 -44 25.5t-16 44.5q0 45 34.5 76t111.5 31zM227 255
q-23 0 -39 -34t-16 -72q0 -49 35 -49q22 0 37 31.5t15 70.5q0 53 -32 53z" />
    <glyph glyph-name="nine.inferior" unicode="&#x2089;" 
d="M203 276q79 0 115 -38t36 -113q0 -98 -51.5 -168.5t-153.5 -70.5q-56 0 -92 23t-35 56q0 17 14.5 30t35.5 13t28 -24q23 -78 63 -78q55 0 79 171h-4q-14 -17 -38 -27t-46 -10q-111 0 -111 96q0 66 47.5 103t112.5 37zM210 257q-24 0 -41 -36.5t-17 -73.5q0 -69 44 -69
q24 0 35 13q18 21 18 89q0 77 -39 77z" />
    <glyph glyph-name="parenleft.inferior" unicode="&#x208d;" horiz-adv-x="226" 
d="M254 286l-1 -16q-149 -41 -149 -327q0 -35 13 -65.5t37 -38.5l-5 -15q-113 11 -113 166q0 123 60 209.5t158 86.5z" />
    <glyph glyph-name="parenright.inferior" unicode="&#x208e;" horiz-adv-x="216" 
d="M-20 -175v16q150 40 150 327q0 35 -13 65.5t-37 38.5l5 14q60 -5 86.5 -51t26.5 -117q0 -123 -60 -208t-158 -85z" />
    <glyph glyph-name="colonmonetary" unicode="&#x20a1;" horiz-adv-x="518" 
d="M390 640l15 56h32l-16 -56q25 -2 45 -6q3 1 10.5 29.5t7.5 31.5h31l-19 -67q83 -26 83 -85q0 -19 -16 -32.5t-34 -13.5q-20 0 -22 23q-7 40 -24 63l-159 -545q28 0 45 2.5t39 12.5t42 32.5t41 58.5l16 -12q-14 -29 -27 -48t-35 -41t-56 -35.5t-79 -17.5l-21 -69h-28
l20 67q-41 0 -49 1l-22 -68h-31l22 74q-134 37 -134 233q0 183 91.5 295t231.5 117zM231 97l152 518q-74 -18 -125 -131.5t-51 -246.5q0 -105 24 -140zM459 605q-20 12 -46 13l-161 -553q5 -5 16 -11t19 -10l8 -3z" />
    <glyph glyph-name="Euro" unicode="&#x20ac;" horiz-adv-x="518" 
d="M258 381h211l-11 -27h-205q-6 -35 -9 -68h175l-12 -27h-166q-13 -222 102 -222q44 0 77 25t65 86l19 -14q-31 -64 -50 -86q-54 -59 -172 -59q-49 0 -85 17t-56 43.5t-31 64t-13.5 72t-0.5 73.5h-67l12 27h57q6 46 12 68h-41l11 27h35q71 258 294 258q69 0 108.5 -28.5
t39.5 -77.5q0 -21 -15.5 -35.5t-40.5 -14.5q-15 0 -21 7t-8 24q-7 52 -21.5 76t-55.5 24q-42 0 -79 -60t-58 -173z" />
    <glyph glyph-name="uni2113" unicode="&#x2113;" horiz-adv-x="427" 
d="M378 138l13 -9q-36 -77 -76 -106.5t-101 -29.5t-91.5 21.5t-33 58.5t6.5 88q0 1 4.5 19t4.5 20q-17 -11 -69 -33l-6 14q44 23 80 51l54 255q25 118 69 164.5t118 46.5q47 0 66.5 -28t19.5 -69q0 -168 -199 -331l-25 -123q-19 -96 48 -96q38 0 62.5 18.5t54.5 68.5z
M292 522l-44 -206q57 51 100 139.5t43 163.5q0 54 -27 54q-13 0 -22.5 -8.5t-22.5 -43t-27 -99.5z" />
    <glyph glyph-name="trademark" unicode="&#x2122;" horiz-adv-x="309" 
d="M161 563v77h-8q-8 0 -11 -5t-6 -20h-11v35h103v-35h-11q-4 25 -17 25h-7v-77q0 -8 6 -8l12 -2v-10h-69v10l12 2q7 0 7 8zM370 628v-66q0 -7 6 -7l12 -2v-10h-64v10l10 2q4 0 4 7v71h-2l-28 -87h-13l-26 87h-1v-51q2 -26 6 -27l11 -2v-10h-47v10l10 2q7 0 7 27v46
q0 9 -7 11l-10 1v10h57l17 -49h2l4 13l10 24l4 12h56v-10l-11 -1q-7 -2 -7 -11z" />
    <glyph glyph-name="Omega" unicode="&#x2126;" horiz-adv-x="759" 
d="M332 0h-301l20 177h19q9 -45 20.5 -60.5t31.5 -15.5h153l2 5q-79 27 -125.5 88.5t-46.5 149.5q0 147 91 239t268 92q136 0 210.5 -72t74.5 -183q0 -124 -61 -201t-190 -113v-5h141q16 0 26.5 3.5t27 21.5t32.5 51h28l-60 -177h-302l18 78q51 21 88.5 65.5t57 101
t28.5 111t9 110.5q0 83 -32 133t-94 50q-47 0 -84 -25.5t-59.5 -64t-37 -88.5t-20 -95t-5.5 -88q0 -70 24 -129t66 -81z" />
    <glyph glyph-name="estimated" unicode="&#x212e;" horiz-adv-x="784" 
d="M785 303h-559q-4 0 -4 -4v-183q0 -12 7 -20q40 -42 85.5 -62t109.5 -20q142 0 230 102h58q-49 -58 -126 -92t-163 -34q-150 0 -255.5 95t-105.5 229q0 135 105.5 230t255.5 95q151 0 256.5 -93.5t105.5 -228.5v-14zM624 331v188q0 13 -8 20q-41 42 -85.5 58.5
t-106.5 16.5q-66 0 -110 -17.5t-84 -58.5q-8 -8 -8 -22v-185q0 -6 4 -6h395q3 0 3 6z" />
    <glyph glyph-name="onethird" unicode="&#x2153;" horiz-adv-x="834" 
d="M314 256h-234l5 23l36 5q16 2 23.5 9t11.5 25l55 243q7 31 -16 33l-38 3l4 19l173 23l2 -4l-70 -317q-4 -18 0 -25t19 -9l35 -5zM199 -26l-23 20l497 659l24 -20zM657 383q58 0 94 -23.5t36 -70.5q0 -76 -114 -86l-1 -4q44 -5 72 -29.5t28 -59.5q0 -56 -44.5 -87
t-125.5 -31q-66 0 -101.5 24t-35.5 59q0 19 14.5 32.5t34.5 13.5q22 0 30 -24q15 -48 26.5 -65.5t29.5 -17.5q20 0 36.5 28.5t16.5 88.5q0 19 -3 31t-9.5 16.5t-12 6t-13.5 1.5q-11 0 -31.5 -4.5t-26.5 -4.5q-19 0 -19 18q0 31 21 31q7 0 29 -5.5t35 -5.5q27 0 42 25t15 67
q0 57 -34 57q-33 0 -60 -74q-4 -11 -6.5 -16t-9 -9t-16.5 -4q-17 0 -30 10.5t-13 29.5q0 29 40 55.5t106 26.5z" />
    <glyph glyph-name="twothirds" unicode="&#x2154;" horiz-adv-x="834" 
d="M356 256h-292l-5 6q2 33 41.5 77.5t103.5 81.5q92 53 92 143q0 54 -33 54q-21 0 -38 -19.5t-35 -71.5q-11 -28 -37 -28q-20 0 -33 11t-13 31q0 36 45.5 67t114.5 31q142 0 142 -112q0 -88 -119 -124q-134 -40 -158 -63h197q13 0 19 2t18 13.5t29 36.5l15 -6zM225 -26
l-24 20l497 659l24 -20zM669 383q58 0 94 -23.5t36 -70.5q0 -77 -114 -86l-1 -4q45 -5 72.5 -29t27.5 -60q0 -56 -44.5 -87t-125.5 -31q-66 0 -101 24t-35 59q0 19 14 32.5t34 13.5q14 0 20 -5.5t10 -18.5q15 -48 26.5 -65.5t29.5 -17.5q20 0 37 29t17 88q0 25 -7 38t-14 15
t-18 2t-31.5 -4.5t-26.5 -4.5q-18 0 -18 18q0 31 21 31q6 0 28.5 -5.5t35.5 -5.5q26 0 41 24.5t15 67.5q0 57 -34 57q-33 0 -60 -74q-4 -11 -6.5 -16t-9 -9t-16.5 -4q-17 0 -30 10.5t-13 29.5q0 29 39.5 55.5t106.5 26.5z" />
    <glyph glyph-name="oneeighth" unicode="&#x215b;" horiz-adv-x="834" 
d="M660 190q-29 0 -48.5 -35.5t-19.5 -83.5q0 -28 11 -42.5t29 -14.5q27 0 46 36t20 89q0 51 -38 51zM680 383q146 0 146 -92q0 -76 -102 -88v-2q36 -12 60.5 -35t24.5 -55q0 -118 -170 -118q-82 0 -120 28.5t-38 74.5q0 43 33 72t84 33v3q-64 21 -64 72q0 45 34.5 76
t111.5 31zM690 362q-23 0 -39 -34t-16 -72q0 -49 35 -49q22 0 37 32t15 70q0 53 -32 53zM222 -26l-23 20l497 659l23 -20zM337 256h-234l6 23l35 5q16 2 24 9t12 25l54 243q7 32 -14 33l-40 3l5 19l173 23l2 -4l-71 -317q-4 -18 1 -25t19 -9l34 -5z" />
    <glyph glyph-name="threeeighths" unicode="&#x215c;" horiz-adv-x="834" 
d="M669 190q-29 0 -49 -35.5t-20 -83.5q0 -57 41 -57q27 0 46 36t20 89q0 51 -38 51zM689 383q146 0 146 -92q0 -76 -102 -88v-2q36 -12 60.5 -35t24.5 -55q0 -118 -170 -118q-83 0 -121 28.5t-38 74.5q0 43 33 72t85 33v3q-64 21 -64 72q0 45 34.5 76t111.5 31zM699 362
q-23 0 -39 -34t-16 -72q0 -49 35 -49q22 0 37 32t15 70q0 53 -32 53zM234 -26l-24 20l497 659l24 -20zM293 639q58 0 94 -23t36 -70q0 -78 -113 -86l-1 -4q45 -5 72.5 -29.5t27.5 -60.5q0 -56 -44.5 -86.5t-125.5 -30.5q-66 0 -101 24t-35 59q0 18 14.5 32t33.5 14
q23 0 30 -25q16 -49 27.5 -66t28.5 -17q20 0 37 29t17 88q0 19 -3.5 31.5t-10 17t-12 6t-13.5 1.5q-11 0 -31.5 -4.5t-26.5 -4.5q-18 0 -19 18q0 31 21 31q6 0 28.5 -6t35.5 -6q26 0 41 25t15 68q0 56 -34 56t-60 -73q-4 -11 -6.5 -16t-9 -9t-16.5 -4q-17 0 -30 10t-13 29
q0 29 40 55.5t106 26.5z" />
    <glyph glyph-name="fiveeighths" unicode="&#x215d;" horiz-adv-x="834" 
d="M669 190q-29 0 -49 -35.5t-20 -83.5q0 -57 41 -57q27 0 46 36t20 89q0 51 -38 51zM689 383q146 0 146 -92q0 -76 -102 -88v-2q36 -12 60.5 -35t24.5 -55q0 -118 -170 -118q-83 0 -121 28.5t-38 74.5q0 43 33 72t85 33v3q-64 21 -64 72q0 45 34.5 76t111.5 31zM699 362
q-23 0 -39 -34t-16 -72q0 -49 35 -49q22 0 37 32t15 70q0 53 -32 53zM234 -26l-24 20l496 659l25 -20zM404 554h-184q-11 0 -15 -3t-8 -14l-28 -84l2 -2q58 44 122 44q120 0 120 -106q0 -71 -48.5 -105.5t-129.5 -34.5q-59 0 -96 23.5t-37 58.5q0 17 17 30.5t39 13.5
q8 0 14 -5t8.5 -10.5t6.5 -16.5q23 -74 53 -74q22 0 37 32t15 78q0 32 -14 53t-45 21q-42 0 -72 -38l-22 19l55 196l3 3h246l3 -6z" />
    <glyph glyph-name="seveneighths" unicode="&#x215e;" horiz-adv-x="834" 
d="M661 190q-29 0 -48.5 -35.5t-19.5 -83.5q0 -28 11 -42.5t29 -14.5q27 0 46 36t20 89q0 51 -38 51zM681 383q147 0 147 -92q0 -77 -103 -88v-2q36 -12 60.5 -35t24.5 -55q0 -118 -170 -118q-82 0 -120 28.5t-38 74.5q0 43 33 72t84 33v3q-64 21 -64 72q0 45 34.5 76
t111.5 31zM691 362q-23 0 -39 -34t-16 -72q0 -49 35 -49q23 0 38 31.5t15 70.5q0 28 -7.5 40.5t-25.5 12.5zM207 -26l-23 20l498 659l23 -20zM201 633h283l2 -6q-12 -58 -114 -162q-54 -58 -54 -172q0 -44 -50 -44q-56 0 -56 53q0 73 96 146q94 70 112 98h-187
q-20 0 -30.5 -8.5t-37.5 -44.5l-16 8z" />
    <glyph glyph-name="arrowleft" unicode="&#x2190;" horiz-adv-x="482" 
d="M457 209h-347l161 -144l-27 -35l-219 200v1l219 200l27 -35l-161 -144h347v-43z" />
    <glyph glyph-name="arrowright" unicode="&#x2192;" horiz-adv-x="482" 
d="M25 252h347l-160 144l27 35l218 -200v-1l-218 -200l-27 35l160 144h-347v43z" />
    <glyph glyph-name="partialdiff" unicode="&#x2202;" horiz-adv-x="507" 
d="M124 583q-18 18 -14 44q3 19 19 32q49 37 141 37q100 0 161 -79.5t61 -203.5q0 -74 -16 -145t-48.5 -136t-91.5 -105t-137 -40q-80 0 -119.5 39.5t-39.5 109.5q0 97 58 157t154 60q43 0 74.5 -18t41.5 -38h1q37 129 37 224q0 72 -21 104t-76 32q-82 0 -159 -77
q-10 -13 -26 3zM201 8q26 0 52 28.5t47.5 75t35.5 85.5t26 79q-23 28 -72 28q-66 0 -105.5 -65.5t-39.5 -144.5q0 -86 56 -86z" />
    <glyph glyph-name="Delta" unicode="&#x2206;" horiz-adv-x="621" 
d="M-8 0l6 27q17 26 152.5 257.5t216.5 375.5h105l97 -630l-8 -30h-569zM411 79l-68 480h-2l-257 -473q-11 -18 -8.5 -26t24.5 -8h276q21 0 28.5 6.5t6.5 20.5z" />
    <glyph glyph-name="product" unicode="&#x220f;" horiz-adv-x="706" 
d="M402 -64l138 644q5 22 -1 31.5t-27 9.5h-132q-37 0 -45 -38l-138 -647q-8 -36 1.5 -45t58.5 -10l-4 -22h-280l4 22q49 1 60 9.5t19 45.5l134 638q8 35 -1.5 44t-57.5 11l4 21h637l-4 -21q-48 -2 -60.5 -11.5t-20.5 -43.5l-142 -638q-8 -36 2 -45t58 -10l-4 -22h-279l3 22
q49 1 59 9t18 46z" />
    <glyph glyph-name="summation" unicode="&#x2211;" horiz-adv-x="560" 
d="M274 207l-145 426l3 17h450l-34 -175h-22q-9 80 -31 113t-88 33h-134l109 -323l-282 -336h210q82 0 110.5 14.5t73.5 81.5h26l-73 -199h-460l4 21z" />
    <glyph glyph-name="minus" unicode="&#x2212;" horiz-adv-x="490" 
d="M54 203v50h387v-50h-387z" />
    <glyph glyph-name="uni2215" unicode="&#x2215;" horiz-adv-x="94" 
d="M-149 -26l-25 20l497 659l24 -20z" />
    <glyph glyph-name="uni2219" unicode="&#x2219;" horiz-adv-x="233" 
d="M120 162q-26 0 -42 16.5t-16 41.5q0 37 22 62t58 25q28 0 44.5 -17.5t16.5 -43.5q0 -84 -83 -84z" />
    <glyph glyph-name="radical" unicode="&#x221a;" horiz-adv-x="512" 
d="M579 791l-258 -953h-24l-155 434l-67 -28l-7 25l160 68l77 -233q19 -55 30 -105h2q1 12 25 107l180 685h37z" />
    <glyph glyph-name="infinity" unicode="&#x221e;" horiz-adv-x="739" 
d="M693 241q0 -67 -41.5 -113.5t-107.5 -46.5q-42 0 -81 23t-83 81q-40 -50 -80.5 -77t-91.5 -27q-59 0 -102.5 44t-43.5 111q0 69 43.5 113.5t109.5 44.5q88 0 167 -102q49 55 75 73q43 29 93 29q62 -1 102.5 -43t40.5 -110zM216 140q61 0 133 94q-47 62 -69 79
q-31 24 -69 24q-40 0 -64.5 -29t-24.5 -73q0 -40 26.5 -67.5t67.5 -27.5zM542 337q-14 0 -28 -5t-24.5 -11.5t-23.5 -18.5t-20 -19.5t-19.5 -22.5t-16.5 -19q49 -59 76.5 -80t61.5 -21q38 0 61.5 30t23.5 66q0 43 -24.5 72t-66.5 29z" />
    <glyph glyph-name="integral" unicode="&#x222b;" horiz-adv-x="327" 
d="M353 732q0 -24 -15 -37.5t-36 -13.5q-18 0 -30.5 9.5t-17.5 20.5t-13 20.5t-17 9.5q-6 0 -8.5 -7t-2.5 -31.5t4 -70.5q30 -380 36 -494q4 -75 -11.5 -147t-54.5 -125t-95 -53q-33 0 -54 15.5t-21 41.5q0 23 15 38.5t38 15.5q16 0 27.5 -11t17 -23.5t13.5 -23.5t17 -11
q30 0 18 153q-6 69 -15.5 198.5t-14.5 196.5q-14 175 29.5 279.5t123.5 104.5q31 0 49 -16t18 -39z" />
    <glyph glyph-name="approxequal" unicode="&#x2248;" horiz-adv-x="490" 
d="M412 209l30 -29q-22 -41 -48.5 -61.5t-66.5 -20.5q-8 0 -20 3.5t-19.5 6.5t-24 11t-21.5 10l-14 7t-13.5 6.5t-10.5 4t-11.5 3.5t-11 2t-13.5 1q-27 0 -46.5 -14t-42.5 -44l-28 32q19 24 31 37.5t38 27.5t56 14q33 0 87 -26q56 -28 76 -28q26 0 38 10.5t35 46.5zM412 358
l30 -30q-22 -40 -48.5 -60.5t-66.5 -20.5q-11 0 -23.5 4t-35.5 15.5t-26 12.5q-50 22 -74 22q-45 0 -89 -58l-28 33q19 24 31 37.5t38 27.5t56 14q31 0 87 -27q56 -28 75 -28t31 7t19 16t24 35z" />
    <glyph glyph-name="notequal" unicode="&#x2260;" horiz-adv-x="490" 
d="M361 412l-34 -71h114v-52h-139l-55 -124h194v-52h-216l-42 -91l-40 20l33 71h-122v52h142l57 124h-199v52h224l44 90z" />
    <glyph glyph-name="lessequal" unicode="&#x2264;" horiz-adv-x="482" 
d="M430 135v-57l-381 173v69l381 172v-58l-333 -148l-1 -1zM45 0v51h386v-51h-386z" />
    <glyph glyph-name="greaterequal" unicode="&#x2265;" horiz-adv-x="482" 
d="M53 492l381 -172v-69l-381 -173v57l334 148v2l-334 149v58zM54 0v51h387v-51h-387z" />
    <glyph glyph-name="uni25A0" unicode="&#x25a0;" horiz-adv-x="285" 
d="M45 334h195v-200h-195v200z" />
    <glyph glyph-name="uni25B6" unicode="&#x25b6;" horiz-adv-x="409" 
d="M50 74q1 310 0 310h1l324 -153v-1l-324 -157z" />
    <glyph glyph-name="uni25B7" unicode="&#x25b7;" horiz-adv-x="409" 
d="M86 329l1 -197l207 100zM50 76q1 310 0 310h1l324 -153v-1l-324 -157z" />
    <glyph glyph-name="uni25C0" unicode="&#x25c0;" horiz-adv-x="409" 
d="M359 383q-1 -310 0 -310h-1l-324 153v1l324 157z" />
    <glyph glyph-name="uni25C1" unicode="&#x25c1;" horiz-adv-x="409" 
d="M322 132v197l-208 -100zM359 385q-1 -310 0 -310h-1l-324 153v1l324 157z" />
    <glyph glyph-name="uni25C6" unicode="&#x25c6;" horiz-adv-x="335" 
d="M29 236l137 137l140 -141l-137 -137z" />
    <glyph glyph-name="uni25C9" unicode="&#x25c9;" horiz-adv-x="331" 
d="M167 376q54 0 91.5 -39t37.5 -94t-38 -94t-92 -39q-55 0 -93 38.5t-38 94.5t38 94.5t94 38.5zM165 340q-38 0 -63 -28.5t-25 -68.5t25.5 -68.5t63.5 -28.5t63 28.5t25 68.5t-25 68.5t-64 28.5zM166 295q21 0 34.5 -15.5t13.5 -36.5q0 -22 -13.5 -37.5t-34.5 -15.5
t-35 15.5t-14 37.5q0 21 14 36.5t35 15.5z" />
    <glyph glyph-name="lozenge" unicode="&#x25ca;" horiz-adv-x="524" 
d="M510 318l-179 -346h-76l-174 343l178 343h76zM433 316l-111 231q-5 10 -15 34t-10 25h-3q0 -1 -10 -25t-15 -34l-112 -229l113 -235q14 -30 22 -58h4q2 9 25 56z" />
    <glyph glyph-name="uni2610" unicode="&#x2610;" horiz-adv-x="687" 
d="M101 542h498v-506l-38 -36h-495v509zM88 503v-480h468v480h-468z" />
    <glyph glyph-name="uni2611" unicode="&#x2611;" horiz-adv-x="687" 
d="M101 542h498v-506l-38 -36h-495v509zM88 503v-480h468v480h-468zM427 439q9 12 33 22.5t46 12.5v-2q-25 -27 -50.5 -63.5t-54.5 -89.5t-45 -83t-49 -97t-39 -79h-1q-18 15 -63.5 96t-45.5 99q5 10 19.5 23.5t23.5 15.5h1q5 -25 29.5 -85.5t40.5 -90.5q95 240 155 321z
" />
    <glyph glyph-name="Euro.fitted" unicode="&#xe000;" horiz-adv-x="518" 
d="M258 381h211l-11 -27h-205q-6 -35 -9 -68h175l-12 -27h-166q-13 -222 102 -222q44 0 77 25t65 86l19 -14q-31 -64 -50 -86q-54 -59 -172 -59q-49 0 -85 17t-56 43.5t-31 64t-13.5 72t-0.5 73.5h-67l12 27h57q6 46 12 68h-41l11 27h35q71 258 294 258q69 0 108.5 -28.5
t39.5 -77.5q0 -21 -15.5 -35.5t-40.5 -14.5q-15 0 -21 7t-8 24q-7 52 -21.5 76t-55.5 24q-42 0 -79 -60t-58 -173z" />
    <glyph glyph-name="Euro.oldstyle" unicode="&#xe001;" horiz-adv-x="508" 
d="M240 341h204l-17 -27h-194q-3 -18 -10 -67h177l-16 -26h-162q-8 -179 93 -179q78 0 137 106l15 -10q-9 -23 -24.5 -45.5t-40.5 -47t-63.5 -39.5t-83.5 -15q-48 0 -83 15.5t-53.5 37.5t-28.5 55.5t-11.5 60.5t-0.5 61h-55l12 26h45q7 47 13 67h-42l16 27h35q36 109 98 160
t161 51q70 0 105.5 -29.5t35.5 -62.5q0 -25 -16 -40t-40 -15q-23 0 -27 25q-5 34 -9 50.5t-17 31.5t-34 15q-82 0 -119 -186z" />
    <glyph glyph-name="cent.fitted" unicode="&#xe003;" horiz-adv-x="529" 
d="M379 621h29l-15 -71q52 -2 95 -28t43 -72q0 -25 -16.5 -38t-40.5 -13q-25 0 -28 32q-3 46 -21 69.5t-38 26.5l-83 -389q123 0 189 114l15 -11q-20 -44 -49.5 -75t-61 -45t-54.5 -19.5t-46 -6.5l-19 -89h-31l19 88q-191 14 -191 182q0 127 78 201t211 73zM274 142l84 385
q-38 -2 -67.5 -29.5t-44.5 -68.5t-22.5 -81.5t-7.5 -77.5q0 -112 58 -128z" />
    <glyph glyph-name="colonmonetary.fitted" unicode="&#xe004;" horiz-adv-x="518" 
d="M390 640l15 56h32l-16 -56q25 -2 45 -6q3 1 10.5 29.5t7.5 31.5h31l-19 -67q83 -26 83 -85q0 -19 -16 -32.5t-34 -13.5q-20 0 -22 23q-7 40 -24 63l-159 -545q28 0 45 2.5t39 12.5t42 32.5t41 58.5l16 -12q-14 -29 -27 -48t-35 -41t-56 -35.5t-79 -17.5l-21 -69h-28
l20 67q-41 0 -49 1l-22 -68h-31l22 74q-134 37 -134 233q0 183 91.5 295t231.5 117zM231 97l152 518q-74 -18 -125 -131.5t-51 -246.5q0 -105 24 -140zM459 605q-20 12 -46 13l-161 -553q5 -5 16 -11t19 -10l8 -3z" />
    <glyph glyph-name="colonmonetary.oldstyle" unicode="&#xe005;" horiz-adv-x="479" 
d="M291 40q52 6 89 29.5t68 86.5l15 -9q-49 -124 -183 -146l-23 -81h-25l23 81q-31 0 -48 5l-25 -86h-25l26 91q-70 18 -101 66.5t-31 135.5q0 135 73.5 228t202.5 100l18 62h25l-18 -61q28 -2 46 -5l20 66h26l-22 -74q34 -9 55 -27t20 -44q0 -18 -12.5 -33t-26.5 -15
q-18 0 -23 14q-2 6 -6.5 22.5t-8.5 25.5t-10 14zM199 80l119 436q-35 -8 -63 -46t-44 -86.5t-24 -93t-8 -74.5q0 -47 3 -74.5t6 -36.5t11 -25zM266 41l125 468q-14 7 -46 7l-125 -460q29 -13 46 -15z" />
    <glyph glyph-name="currency.taboldstyle" unicode="&#xe006;" horiz-adv-x="508" 
d="M269 444q73 0 114 -35l50 67l48 -46l-59 -61q32 -44 32 -126q0 -74 -37 -122l66 -55l-53 -58l-52 73q-41 -40 -113 -40q-77 0 -115 36l-49 -66l-49 51l58 53q-34 57 -34 128q0 75 36 124l-64 62l48 48l55 -71q46 38 118 38zM264 391q-53 0 -85.5 -37.5t-32.5 -107.5
q0 -69 32.5 -110t89.5 -41q54 0 85.5 36t31.5 112q0 68 -33.5 108t-87.5 40z" />
    <glyph glyph-name="dollar.fitted" unicode="&#xe007;" horiz-adv-x="518" 
d="M288 400l47 203q-41 6 -79 -20t-38 -84q0 -37 16.5 -58.5t53.5 -40.5zM388 703l-18 -77q57 -4 102.5 -33t44.5 -75q0 -21 -15 -37t-40 -16q-23 0 -29 24q-17 82 -69 108l-47 -209q97 -55 119 -74q39 -35 42 -97q1 -11 1 -23q0 -31 -13 -63t-40 -63t-78.5 -50t-119.5 -18
l-22 -96h-31l21 98q-74 4 -124 39.5t-50 79.5q0 29 21.5 46t44.5 17q19 0 25.5 -9t9.5 -25q11 -58 36.5 -89t45.5 -31l49 224q-86 38 -117.5 75.5t-31.5 98.5q0 97 64.5 151t169.5 49l19 75h30zM282 242l-48 -219q123 -3 123 113q0 32 -16 56t-59 50z" />
    <glyph glyph-name="egrave.superior" unicode="&#xe008;" horiz-adv-x="297" 
d="M240 552l-61 67q-21 24 -21 36t16.5 24t30.5 12q11 0 15.5 -8.5t11.5 -34.5l22 -87zM313 356l9 -10q-58 -98 -156 -98q-105 0 -105 96q0 74 51.5 126t126.5 52q95 0 95 -64q0 -28 -33 -50t-68.5 -32.5t-69.5 -14.5v-19q0 -22 11.5 -37t33.5 -15q54 -2 105 66zM164 377
q42 9 67.5 38t25.5 61q0 28 -22 28q-21 0 -43 -40t-28 -87z" />
    <glyph glyph-name="florin.fitted" unicode="&#xe009;" horiz-adv-x="518" 
d="M459 346h-115q0 -1 -17 -89t-19 -97q-27 -131 -89.5 -213t-151.5 -82q-58 0 -83 20.5t-23 46.5q1 23 18 39t37 16q5 0 8.5 -0.5t6.5 -2.5l4.5 -3t3.5 -5t2.5 -5.5t2.5 -7t3 -7.5q24 -63 45 -63q20 0 27 28q12 48 80 425h-89l6 26h89q0 9 11 53q6 29 14.5 55.5t27 63
t42 62t62 44t84.5 18.5q60 0 83 -21.5t23 -50.5q0 -20 -18.5 -34.5t-39.5 -14.5q-8 0 -12.5 2t-7.5 7.5t-4 8t-3 11.5q-8 35 -17.5 51.5t-25.5 16.5q-11 0 -18 -12.5t-14 -41.5q-25 -114 -42 -218h115z" />
    <glyph glyph-name="florin.oldstyle" unicode="&#xe00a;" horiz-adv-x="508" 
d="M442 290h-110l-27 -154q-24 -134 -85 -205t-148 -71q-63 0 -88 21.5t-25 49.5q0 18 17.5 34t42.5 16q13 0 19.5 -7.5t13.5 -24.5q13 -37 23 -50.5t23 -13.5q19 0 27 34q32 170 65 371h-83l7 28h80l9 43q55 243 234 243q100 0 100 -64q0 -21 -15 -37t-36 -16
q-6 0 -10.5 0.5t-8 2.5t-5.5 3.5t-4 5.5t-2.5 5.5t-2 7t-2.5 7.5q-15 38 -22.5 49.5t-20.5 11.5q-22 0 -34 -67l-37 -195h112z" />
    <glyph glyph-name="g.superior" unicode="&#xe00b;" horiz-adv-x="354" 
d="M399 479h-37q12 -21 12 -42q0 -47 -34 -73t-99 -26q-7 0 -37 2q-16 -3 -16 -14q0 -12 38 -22q10 -3 43.5 -11t46.5 -12q30 -11 40.5 -28t10.5 -47q0 -40 -45 -71.5t-113 -31.5q-64 0 -104 22.5t-40 60.5q0 41 75 48q3 1 5 1v2q-36 18 -36 52q0 17 19 32t52 22v2
q-60 17 -60 76q0 39 32 70t106 31q51 0 82 -17l78 16l3 -2zM263 504q-24 0 -39 -33.5t-15 -69.5q0 -46 27 -46q28 0 40.5 35t12.5 73q0 41 -26 41zM227 122q25 0 43 12.5t18 37.5q0 5 -1 8.5t-2 6.5t-4.5 5.5t-5 4t-6.5 4l-7 3.5t-8.5 3t-8.5 3q-25 10 -78 18
q-11 -1 -21.5 -10.5t-10.5 -26.5q0 -36 27.5 -52.5t64.5 -16.5z" />
    <glyph glyph-name="numbersign.fitted" unicode="&#xe00c;" horiz-adv-x="518" 
d="M357 373h-111l-34 -91h113zM492 373h-98l-33 -91h97l-21 -68h-98l-65 -183h-38l65 183h-111l-65 -183h-38l64 183h-95l24 68h93l34 91h-95l22 67h95l60 171h39l-61 -171h112l60 171h38l-60 -171h97z" />
    <glyph glyph-name="numbersign.oldstyle" unicode="&#xe00d;" horiz-adv-x="508" 
d="M329 267h-112l-30 -92h113zM468 267h-109l-31 -92h109l-20 -68h-108l-59 -186h-30l59 186h-113l-58 -186h-31l60 186h-107l22 68h106l30 92h-107l21 68h106l55 173h29l-55 -173h113l56 173h28l-55 -173h108z" />
    <glyph glyph-name="bullet.001" unicode="&#xe00e;" horiz-adv-x="717" 
d="M353 96q10 30 -4 55q-28 48 -40 87t-12 90q0 78 46.5 129t134.5 71q110 28 140 45l12 -14q-52 -68 -124 -191t-120 -233q81 3 145 47.5t74 139.5q1 8 4 46.5t5.5 59.5t8 54t15 59t22.5 46l18 -1q-20 -77 -12 -150q5 -40 5 -114q0 -86 -61.5 -137t-164.5 -71
q-71 -12 -84 -24zM342 87l-18 -8q-20 30 -38.5 51.5t-58.5 43.5t-87 22q-31 0 -51 -3t-28 -6.5t-25 -12.5l-4 12q19 32 56.5 51t79.5 19q14 0 27 -3t23 -7t21.5 -13t18.5 -14.5t17.5 -19.5l15 -20t14.5 -23.5t12.5 -22.5t12.5 -24t12 -22zM672 18l-5 -8q-39 23 -93 37
t-102 14q-81 0 -118 -16q-60 -53 -43 -186l-14 -2q-8 27 -42 49q-12 8 -8 22q8 26 35 70t50 68q74 31 175 31q129 0 165 -79z" />
    <glyph glyph-name="bullet.002" unicode="&#xe00f;" horiz-adv-x="762" 
d="M243 223q-39 -2 -116 -14t-107 -19l-3 7l44 33l-8 28q96 -14 181 -18q-21 25 -21 57q0 38 31.5 62t99.5 24q83 0 218 -69q119 -57 180 -66v-3q-50 -40 -172.5 -94t-229.5 -54q-113 0 -113 85q0 5 2.5 11.5t7 15.5t6.5 14zM344 295q-40 0 -63.5 -16t-23.5 -42
q0 -25 21.5 -42t64.5 -17q105 0 203 58v4q-124 55 -202 55z" />
    <glyph glyph-name="bullet.003" unicode="&#xe010;" horiz-adv-x="799" 
d="M38 281q12 30 54 62.5t81 32.5q47 0 86 -20t93 -63q-6 24 -6 37q0 33 25.5 58t66.5 25q13 0 25 -2t20 -3.5t18.5 -8t15.5 -9t16.5 -14.5t15 -16t19 -21.5t20.5 -23.5q72 -81 160 -81q8 0 15.5 1.5t12.5 3t10.5 5t8 5t7.5 6t6 5.5l6 -5q-9 -40 -64 -66q-7 -3 -13 -8
q-69 -114 -259 -114q-81 0 -139.5 39t-58.5 99q0 29 12 42.5t44 20.5q-45 22 -91.5 36.5t-67.5 14.5q-84 0 -132 -48z" />
    <glyph glyph-name="bullet.024" unicode="&#xe011;" horiz-adv-x="313" 
d="M217 240q25 -40 45 -101.5t26 -98.5h-1q-115 112 -254 199v1q141 89 254 200l1 -1q-31 -140 -71 -199z" />
    <glyph glyph-name="bullet.025" unicode="&#xe012;" horiz-adv-x="313" 
d="M104 240q-25 39 -45 100.5t-26 98.5l1 1q113 -111 254 -200v-1q-139 -87 -254 -199h-1q31 139 71 200z" />
    <glyph glyph-name="bullet.028" unicode="&#xe013;" horiz-adv-x="435" 
d="M362 75l-53 164h-228zM405 457l-68 -218l68 -219h-1l-374 219v1l374 218z" />
    <glyph glyph-name="bullet.029" unicode="&#xe014;" horiz-adv-x="435" 
d="M73 403l54 -164h227zM30 21l68 218l-68 219h1l374 -219v-1l-374 -218z" />
    <glyph glyph-name="bullet.030" unicode="&#xe015;" horiz-adv-x="669" 
d="M291 239l111 159l-324 -159h213zM648 215l-315 13l136 -207l-1 -1l-444 218v1l444 219l1 -1l-137 -207l316 12v-47z" />
    <glyph glyph-name="bullet.031" unicode="&#xe016;" horiz-adv-x="669" 
d="M381 239l-111 -159l324 159h-213zM24 263l316 -13l-137 207l1 1l444 -218v-1l-444 -219l-1 1l137 207l-316 -12v47z" />
    <glyph glyph-name="bullet.032" unicode="&#xe017;" horiz-adv-x="560" 
d="M407 172q0 -37 -39.5 -69t-81.5 -32q-30 0 -53 11t-60 46q-30 30 -78 69.5t-69 53.5v1q11 11 31 17q120 135 210 135q94 0 94 -110h-11q-26 57 -91 57q-49 0 -86.5 -15.5t-84.5 -64.5q48 2 280 2q39 -48 39 -101zM397 274q91 7 135 23l1 -2l-18 -48l-106 8z" />
    <glyph glyph-name="bullet.033" unicode="&#xe018;" horiz-adv-x="560" 
d="M152 302q0 38 39 70t81 32q31 0 54 -10.5t60 -46.5q29 -29 77 -68.5t70 -54.5v-1q-11 -11 -31 -17q-121 -135 -211 -135q-94 0 -94 110h11q28 -57 91 -57q51 0 88 15.5t83 64.5q-46 -2 -280 -2q-38 49 -38 100zM162 201q-91 -7 -135 -23l-1 2l18 48l105 -8z" />
    <glyph glyph-name="bullet.034" unicode="&#xe019;" horiz-adv-x="356" 
d="M50 315l58 57h198v-207l-55 -57h-201v207zM81 307v-168h161v168h-161z" />
    <glyph glyph-name="bullet.035" unicode="&#xe01a;" horiz-adv-x="512" 
d="M229 458h54l-16 -194l126 149l38 -39l-149 -126l195 17v-55l-195 17l149 -126l-38 -39l-126 149l16 -194h-54l16 194l-126 -149l-39 39l149 126l-194 -17v55l194 -17l-149 126l39 39l126 -149z" />
    <glyph glyph-name="bullet.036" unicode="&#xe01b;" horiz-adv-x="495" 
d="M227 338v112h39v-112h-39zM227 25v112h39v-112h-39zM348 257h112v-39h-112v39zM35 257h112v-39h-112v39zM162 294l-79 79l28 28l79 -79zM384 73l-80 79l28 28l79 -80zM305 322l79 80l28 -28l-80 -79zM83 101l80 79l27 -27l-79 -80zM249 309q29 0 49.5 -21t20.5 -51
t-20.5 -51t-50.5 -21t-50.5 21t-20.5 51t20.5 51t51.5 21z" />
    <glyph glyph-name="bullet.037" unicode="&#xe01c;" horiz-adv-x="478" 
d="M245 447l21 -145l117 88l9 -9l-89 -117l145 -20v-13l-145 -20l89 -117l-9 -9l-117 88l-21 -145h-12l-22 144l-115 -87l-9 9l86 115l-143 22v13l145 20l-88 117l9 9l117 -88l20 145h12z" />
    <glyph glyph-name="bullet.038" unicode="&#xe01d;" horiz-adv-x="564" 
d="M414 479q10 13 48.5 30t62.5 22l4 -5q-183 -199 -384 -526h-10q-24 20 -62 95t-38 100q4 7 24.5 25.5t31.5 22.5h2q15 -83 54 -176q36 66 125 207t142 205z" />
    <glyph glyph-name="sterling.fitted" unicode="&#xe01e;" horiz-adv-x="518" 
d="M426 0h-423l-4 9l32 57q42 10 68 34t34.5 56t11 71t-3.5 79h-95l8 28h84v18.5v19.5v15q0 251 220 251q49 0 83 -11.5t48.5 -30t19.5 -32.5t5 -28q0 -25 -20.5 -40.5t-42.5 -15.5q-25 0 -31 28q-18 60 -33.5 82.5t-42.5 22.5q-29 0 -47.5 -28.5t-18.5 -76.5q0 -76 7 -174
h135l-7 -28h-129q-2 -71 -39 -123.5t-107 -76.5l-1 -2h246q24 0 34 2.5t27 18.5t42 53l17 -13z" />
    <glyph glyph-name="sterling.oldstyle" unicode="&#xe01f;" horiz-adv-x="508" 
d="M397 0h-393l-4 8l29 52q32 9 53 24t29.5 35t10.5 33t3 32q-1 9 -2 39t-1 39h-78l7 26h68q0 11 -1 30.5t-1 35.5q0 35 11 68t33.5 63t63 48t93.5 18q80 0 113.5 -31.5t33.5 -65.5q0 -21 -17 -33.5t-36 -12.5q-31 0 -39 34q-11 41 -25 62.5t-43 21.5q-23 0 -35 -27.5
t-12 -71.5q-1 -20 2.5 -68.5t3.5 -70.5h135l-7 -26h-130q-6 -44 -36.5 -88t-89.5 -73v-2h221q28 0 42.5 11.5t54.5 60.5l15 -8z" />
    <glyph glyph-name="yen.fitted" unicode="&#xe025;" horiz-adv-x="518" 
d="M103 627h252l-6 -21l-41 -5q-22 -2 -16 -25q6 -24 26 -106.5t29 -117.5h2q45 59 93.5 132t57.5 96q8 20 -12 21l-49 5l6 21h179l-5 -21l-27 -3q-17 -2 -30 -12t-32 -33q-26 -31 -160 -220h123l-7 -29h-125l-15 -65h135l-6 -29h-136l-31 -154q-5 -14 -1.5 -24t19.5 -11
l55 -5l-5 -21h-297l5 21l54 4q25 2 34 36l35 154h-121l8 29h119l13 65h-116l7 29h108q-54 192 -66 227q-7 21 -12 27t-17 8l-33 6z" />
    <glyph glyph-name="yen.oldstyle" unicode="&#xe026;" horiz-adv-x="508" 
d="M358 0h-277l5 23q7 1 25.5 1t26 1.5t17 8.5t12.5 21l26 120h-111l6 28h111l13 68h-110l6 28h102q-34 117 -60 187q-10 26 -44 30l-25 3l5 23h246l-6 -26l-30 -4q-12 -3 -14.5 -9t1.5 -15q10 -37 48 -174h2q74 117 106 172q7 15 4 20.5t-16 7.5l-29 5l5 23h174l-5 -23
l-33 -3q-27 -2 -55 -34q-59 -69 -134 -183h107l-5 -28h-112l-15 -68h112l-6 -28h-111l-26 -120q-4 -10 -0.5 -16t6 -9t11.5 -4.5t15.5 -1.5h17.5t18 -1z" />
    <glyph glyph-name="acute.cap" unicode="&#xf6c9;" horiz-adv-x="382" 
d="M266 703l-11 17l89 99q26 29 37 37.5t22 8.5q16 0 30.5 -18t14.5 -37q0 -6 -1 -10.5t-4.5 -8.5t-6.5 -6.5t-10 -6.5t-11.5 -6t-14.5 -6t-16 -7z" />
    <glyph glyph-name="caron.cap" unicode="&#xf6ca;" horiz-adv-x="382" 
d="M178 852l14 15l110 -76q15 -11 33 -1l135 77l13 -17l-155 -147h-53z" />
    <glyph glyph-name="dieresis.cap" unicode="&#xf6cb;" horiz-adv-x="382" 
d="M221 841q29 0 43.5 -17.5t11.5 -44.5t-22 -45t-47 -18q-29 0 -43.5 18t-12.5 45q2 26 21 44t49 18zM415 841q29 0 43.5 -17.5t12.5 -44.5q-3 -26 -22.5 -44.5t-47.5 -18.5q-29 0 -44 18t-12 45t22 44.5t48 17.5z" />
    <glyph glyph-name="grave.cap" unicode="&#xf6ce;" horiz-adv-x="382" 
d="M344 702l-107 50q-52 24 -61 35q-8 9 -8 20q0 19 15 37.5t31 18.5q11 0 23 -10t39 -40l78 -93z" />
    <glyph glyph-name="hungarumlaut.cap" unicode="&#xf6cf;" horiz-adv-x="382" 
d="M220 704l-15 11l51 118q7 15 10.5 22t11.5 13.5t19 6.5q15 0 32 -14t17 -27q0 -23 -31 -51zM378 703l-15 11l53 118q7 15 11 22t12.5 13.5t19.5 6.5q16 0 31.5 -14t15.5 -28q0 -22 -33 -50z" />
    <glyph glyph-name="macron.cap" unicode="&#xf6d0;" horiz-adv-x="382" 
d="M189 787h259l-14 -60h-260z" />
    <glyph glyph-name="R_p" unicode="&#xf6dd;" horiz-adv-x="1051" 
d="M267 309h36q53 0 90 41.5t37 117.5q0 46 -18.5 75t-58.5 29q-19 0 -25.5 -4t-10.5 -25zM873 370q-42 0 -108 -119q-34 -61 -69 -213q23 -17 60 -17q45 0 81.5 64.5t52 132.5t14.5 102q0 50 -31 50zM636 -198l-121 -10l46 208h-82q-43 0 -69.5 9.5t-38 32.5t-14 47
t-0.5 66q0 4 1.5 21t1.5 23t-0.5 21t-2.5 22t-6.5 17.5t-12 15.5t-18.5 9t-25 4h-34l-45 -215q-4 -19 -5 -26.5t3 -13.5t16 -7l43 -4l-5 -22h-263l6 22l36 4q18 1 25.5 11.5t13.5 35.5l99 450q7 23 4 35t-20 13l-42 3l6 22h230q36 0 59.5 -1.5t51.5 -9.5t44.5 -21.5
t27.5 -39.5t11 -63q0 -63 -46.5 -107.5t-126.5 -49.5v-5q62 -14 85 -52.5t23 -95.5q-1 -30 0 -53.5t6.5 -39t21.5 -24.5t46 -11l71 326q7 36 -13 37l-47 5l4 15l192 26l2 -5l-39 -175h3q97 180 206 180q91 0 91 -111q0 -29 -7 -67.5t-26.5 -85.5t-47.5 -86t-76 -65.5
t-106 -26.5q-50 0 -85 29z" />
    <glyph glyph-name="cent.inferior" unicode="&#xf6df;" 
d="M186 -28l54 237q-44 -1 -71 -47.5t-27 -99.5q0 -75 44 -90zM205 -61l-14 -61h-26l15 61q-66 -1 -105 30t-39 90q0 83 59.5 126.5t149.5 42.5l13 50h25l-13 -51q39 -2 68 -19t29 -48q0 -15 -13 -24.5t-30 -9.5q-11 0 -14.5 4t-5.5 14q-6 50 -39 62l-54 -239
q33 -3 68.5 14.5t61.5 58.5l14 -10q-21 -40 -62.5 -64.5t-87.5 -26.5z" />
    <glyph glyph-name="cent.superior" unicode="&#xf6e0;" 
d="M267 483l54 237q-44 -1 -71 -47.5t-27 -99.5q0 -75 44 -90zM286 450l-14 -61h-26l15 61q-66 -1 -105 30t-39 90q0 83 59.5 126.5t149.5 42.5l13 50h25l-13 -51q39 -2 68 -19t29 -48q0 -15 -13 -24.5t-30 -9.5q-11 0 -14.5 4t-5.5 14q-6 50 -39 62l-54 -239
q33 -3 68.5 14.5t61.5 58.5l14 -10q-21 -40 -62.5 -64.5t-87.5 -26.5z" />
    <glyph glyph-name="comma.inferior" unicode="&#xf6e1;" horiz-adv-x="161" 
d="M-35 -199q63 66 63 148q0 23 -8 42q11 8 36 18.5t38 9.5q13 -16 13 -41q0 -40 -22.5 -78t-46.5 -60t-64 -53z" />
    <glyph glyph-name="comma.superior" unicode="&#xf6e2;" horiz-adv-x="161" 
d="M47 312q63 65 63 148q0 22 -8 41q11 8 36 18.5t38 9.5q13 -16 13 -41q0 -39 -22.5 -77t-47 -60.5t-63.5 -52.5z" />
    <glyph glyph-name="dollar.inferior" unicode="&#xf6e3;" 
d="M191 139l28 111q-77 0 -77 -59q0 -34 49 -52zM224 270l12 48h26l-13 -49q40 -3 74 -21t34 -50q0 -16 -14 -27t-30 -11q-9 0 -15 4.5t-7.5 8.5t-3.5 13q-11 55 -44 62l-29 -120q69 -30 92.5 -51.5t23.5 -61.5q0 -49 -43.5 -86.5t-126.5 -36.5l-16 -61h-26l16 63
q-52 3 -85.5 25t-33.5 57q0 17 13.5 29t30.5 12q14 0 18.5 -5t9.5 -22q18 -67 51 -75l30 123q-63 27 -84.5 48t-21.5 64q0 53 43.5 86.5t118.5 33.5zM191 27l-28 -117q34 -2 57 12.5t23 48.5q0 33 -52 56z" />
    <glyph glyph-name="dollar.superior" unicode="&#xf6e4;" 
d="M273 650l28 111q-77 0 -77 -59q0 -34 49 -52zM306 781l12 48h26l-13 -49q40 -3 74 -21t34 -50q0 -16 -14 -27t-30 -11q-9 0 -15 4.5t-7.5 8.5t-3.5 13q-11 55 -44 62l-29 -120q69 -30 92.5 -51.5t23.5 -61.5q0 -49 -43.5 -86.5t-126.5 -36.5l-16 -61h-26l16 63
q-52 3 -85.5 25t-33.5 57q0 17 13.5 29t30.5 12q14 0 18.5 -5t9.5 -22q18 -67 51 -75l30 123q-63 27 -84.5 48t-21.5 64q0 53 43.5 86.5t118.5 33.5zM273 538l-28 -117q34 -2 57 12.5t23 48.5q0 33 -52 56z" />
    <glyph glyph-name="hyphen.inferior" unicode="&#xf6e5;" horiz-adv-x="214" 
d="M43 101h158l-14 -47h-157z" />
    <glyph glyph-name="hyphen.superior" unicode="&#xf6e6;" horiz-adv-x="214" 
d="M125 612h158l-14 -47h-157z" />
    <glyph glyph-name="period.inferior" unicode="&#xf6e7;" horiz-adv-x="161" 
d="M65 -4q25 0 36.5 -14.5t11.5 -35.5q0 -27 -16 -43.5t-40 -16.5q-53 0 -53 49q0 27 17.5 44t43.5 17z" />
    <glyph glyph-name="period.superior" unicode="&#xf6e8;" horiz-adv-x="161" 
d="M146 507q25 0 36.5 -14.5t11.5 -35.5q0 -27 -16 -43.5t-40 -16.5q-53 0 -53 49q0 27 17.5 44t43.5 17z" />
    <glyph glyph-name="b.superior" unicode="&#xf6ea;" horiz-adv-x="370" 
d="M199 264q40 0 69 71.5t29 115.5q0 27 -18 27q-34 0 -76 -70q-14 -22 -24.5 -56.5t-10.5 -52.5q0 -35 31 -35zM112 636l137 14l2 -1l-61 -225h2q72 98 141 98q30 0 45.5 -19.5t15.5 -51.5q0 -87 -54 -145.5t-138 -58.5q-58 0 -100 30l-25 -23l-14 3l82 334q6 23 -7 26
l-30 5z" />
    <glyph glyph-name="d.superior" unicode="&#xf6eb;" horiz-adv-x="385" 
d="M297 495q-11 7 -30 7q-42 0 -77.5 -64.5t-35.5 -119.5q0 -32 18 -32q16 0 29.5 13t36.5 46q26 35 59 150zM277 636l143 15l4 -3l-84 -333q-5 -25 7 -25q8 0 27 18.5t30 37.5l10 -7q-47 -90 -125 -91q-21 0 -29 17t-1 47l12 54l-1 1q-20 -31 -29 -43.5t-29.5 -34.5
t-43 -31.5t-50.5 -9.5q-30 0 -45 20t-15 52q0 26 10 58t30.5 65.5t60.5 56t92 22.5q36 0 50 -10l21 85q5 20 -11 22l-37 4z" />
    <glyph glyph-name="e.superior" unicode="&#xf6ec;" horiz-adv-x="297" 
d="M313 356l9 -10q-58 -98 -156 -98q-105 0 -105 96q0 74 51.5 126t126.5 52q95 0 95 -64q0 -28 -33 -50t-68.5 -32.5t-69.5 -14.5v-19q0 -22 11.5 -37t33.5 -15q54 -2 105 66zM164 377q42 9 67.5 38t25.5 61q0 28 -22 28q-21 0 -43 -40t-28 -87z" />
    <glyph glyph-name="i.superior" unicode="&#xf6ed;" horiz-adv-x="214" 
d="M86 507l148 16l2 -2l-59 -205q-7 -24 6 -24q19 0 47 48l16 -9q-19 -38 -50.5 -61t-70.5 -23q-62 0 -41 70l44 151q6 19 -8 21l-34 4v14zM200 646q44 0 44 -45q0 -20 -13.5 -34.5t-38.5 -14.5q-21 0 -33.5 12t-12.5 31q0 21 13.5 36t40.5 15z" />
    <glyph glyph-name="l.superior" unicode="&#xf6ee;" horiz-adv-x="214" 
d="M118 636l137 15l4 -3l-87 -335q-5 -23 8 -23q22 0 53 53l13 -9q-17 -37 -47.5 -61.5t-70.5 -24.5q-62 0 -43 72l70 274q6 23 -8 24l-32 4z" />
    <glyph glyph-name="m.superior" unicode="&#xf6ef;" horiz-adv-x="564" 
d="M164 254l-91 -7l58 219q6 21 -9 23l-33 4l4 13l142 16l2 -2l-33 -106h2q33 53 62 79.5t72 26.5q41 0 49 -27t-13 -83l3 -1q30 40 44 57t43.5 36.5t60.5 19.5q67 0 38 -85l-40 -121q-8 -25 6 -25q9 0 25 16t28 36l13 -8q-44 -88 -122 -88q-29 0 -39.5 18t-0.5 51l42 138
q9 29 -7 29q-15 0 -46 -41t-43 -72q-23 -56 -41 -116l-90 -7l56 208q7 28 -12 28q-18 0 -45 -37.5t-43 -74.5q-19 -44 -42 -117z" />
    <glyph glyph-name="r.superior" unicode="&#xf6f1;" horiz-adv-x="283" 
d="M165 254l-90 -7l52 216q6 23 -9 24l-29 3l5 16l128 16l1 -2l-20 -76h3q48 78 97 79q36 0 36 -40q0 -21 -14 -37.5t-31 -16.5q-13 0 -21 10q-16 18 -29 18q-23 0 -48 -79z" />
    <glyph glyph-name="s.superior" unicode="&#xf6f2;" horiz-adv-x="267" 
d="M206 522q50 0 72.5 -17t22.5 -38q0 -16 -12 -26.5t-27 -10.5q-18 0 -23 17q-16 57 -51 57q-26 0 -26 -30q0 -20 59 -56q22 -13 32 -21t19.5 -22.5t9.5 -31.5q0 -35 -35.5 -65.5t-92.5 -30.5q-44 0 -71.5 20t-27.5 42q0 20 13.5 32.5t32.5 12.5q13 0 20 -19q12 -37 29 -53
t32 -16q29 0 29 26q0 25 -68 67q-23 14 -36 29.5t-13 40.5q0 36 32 64.5t80 28.5z" />
    <glyph glyph-name="t.superior" unicode="&#xf6f3;" horiz-adv-x="231" 
d="M241 342l13 -7q-44 -88 -119 -88q-66 0 -47 71l48 177h-41l8 21h39l16 51l92 33l6 -2l-23 -82h54l-7 -21h-54l-47 -183q-4 -21 9 -21q20 0 53 51z" />
    <glyph glyph-name="dollar.oldstyle" unicode="&#xf724;" horiz-adv-x="508" 
d="M318 523l17 67h29l-17 -70q126 -24 126 -99q0 -21 -13.5 -35.5t-31.5 -14.5q-17 0 -22.5 6.5t-8.5 20.5q-8 38 -24.5 64t-33.5 29l-39 -162q89 -38 119.5 -69.5t30.5 -89.5q0 -31 -11 -59t-35.5 -54t-71 -41.5t-110.5 -15.5l-21 -83h-28l21 83q-70 5 -117.5 37t-47.5 71
q0 29 14 44.5t38 15.5q12 0 17 -1t10 -8t8 -22q16 -94 85 -111l43 177q-51 21 -82.5 40.5t-45 40t-17.5 36t-4 39.5q0 72 58 121t165 43zM276 344l36 154q-49 3 -78.5 -19t-29.5 -66q0 -16 18 -35t54 -34zM269 193l-41 -172q41 -2 72.5 22.5t31.5 67.5q0 51 -63 82z" />
    <glyph glyph-name="zero.oldstyle" unicode="&#xf730;" horiz-adv-x="519" 
d="M318 479q85 0 135.5 -47t50.5 -145q0 -68 -26.5 -136.5t-73.5 -107.5q-67 -54 -167 -54q-192 0 -192 185q0 68 22 129.5t63 101.5q74 74 188 74zM316 453q-35 0 -62.5 -37.5t-42 -92.5t-22 -105.5t-7.5 -88.5q0 -116 48 -116q34 0 62 40.5t43.5 98t23.5 110t8 87.5
q0 104 -51 104z" />
    <glyph glyph-name="one.oldstyle" unicode="&#xf731;" horiz-adv-x="357" 
d="M89 446l227 34l2 -3l-91 -410q-7 -36 21 -39l58 -5l-6 -23h-306l5 23l46 4q19 2 27.5 10t13.5 30l75 322q2 9 -2.5 18t-14.5 11l-60 7z" />
    <glyph glyph-name="two.oldstyle" unicode="&#xf732;" horiz-adv-x="494" 
d="M403 0h-394l-3 5q42 126 193 197q121 55 121 172q0 33 -13.5 56t-39.5 23q-35 0 -54.5 -28t-41.5 -93q-12 -39 -46 -39q-23 0 -39 12t-16 35q0 61 59.5 100t141.5 39q193 0 193 -145q0 -61 -48.5 -97.5t-145.5 -59.5q-134 -31 -176 -70h205q106 0 164 9l1 -2z" />
    <glyph glyph-name="three.oldstyle" unicode="&#xf733;" horiz-adv-x="472" 
d="M289 373q0 36 -12.5 59t-33.5 23q-25 0 -44.5 -21.5t-39.5 -83.5q-7 -21 -14 -27.5t-26 -6.5q-45 0 -45 45q0 39 48 78.5t135 39.5q173 0 173 -135q0 -53 -41 -90.5t-133 -46.5v-7q153 -28 153 -135q0 -51 -21 -88t-56 -55.5t-72.5 -27t-79.5 -8.5q-92 0 -137 34.5
t-45 81.5q0 26 17 41.5t41 15.5q18 0 26 -10t13 -31q13 -56 31.5 -83t48.5 -27q36 0 59.5 53t23.5 125q0 54 -18 75.5t-40 21.5q-15 0 -33.5 -3.5t-28.5 -3.5q-23 0 -23 19q0 15 6 21t22 6q9 0 26 -3t31 -3q43 0 66 43.5t23 113.5z" />
    <glyph glyph-name="four.oldstyle" unicode="&#xf734;" horiz-adv-x="487" 
d="M230 80h-220l-11 28q25 29 48.5 56.5t51 57t45 48.5t50.5 52.5t45 46t51 51.5l48 48h109l-75 -346h93l-12 -42h-91l-37 -182h-136zM68 122h171l74 280h-2q-56 -57 -137.5 -150.5t-105.5 -129.5z" />
    <glyph glyph-name="five.oldstyle" unicode="&#xf735;" horiz-adv-x="473" 
d="M406 352h-238q-14 0 -18.5 -5t-8.5 -18l-44 -136l1 -2q75 54 154 54q83 0 124.5 -40t41.5 -110q0 -100 -68 -154.5t-167 -54.5q-87 0 -134 37t-47 81q0 25 15.5 41.5t44.5 16.5q25 0 36 -43q16 -60 36.5 -85t54.5 -25q36 0 60 46t24 127q0 49 -23.5 82t-67.5 33
q-61 0 -104 -53l-17 18l81 301l6 5h179q115 0 141 9l2 -7z" />
    <glyph glyph-name="six.oldstyle" unicode="&#xf736;" horiz-adv-x="517" 
d="M521 572l-5 -18q-28 5 -71 5q-88 0 -153 -73t-91 -190h2q22 21 65 45t75 24q144 0 144 -149q0 -99 -63 -163t-172 -64q-59 0 -99.5 16t-60.5 45.5t-28.5 62.5t-8.5 76q0 78 24.5 149.5t69.5 128.5t116 91t158 34q56 0 98 -20zM279 309q-40 0 -73 -44q-25 -37 -25 -119
q0 -133 69 -133q47 0 74 61t27 142q0 44 -19.5 68.5t-52.5 24.5z" />
    <glyph glyph-name="seven.oldstyle" unicode="&#xf737;" horiz-adv-x="440" 
d="M113 468h368l3 -5q-16 -92 -165 -258q-47 -52 -73.5 -123t-28.5 -134q-1 -33 -14.5 -47.5t-43.5 -14.5q-68 0 -68 64q0 63 43.5 121.5t119.5 124.5q118 106 157 160h-260q-27 0 -41 -11t-45 -61l-18 9z" />
    <glyph glyph-name="eight.oldstyle" unicode="&#xf738;" horiz-adv-x="510" 
d="M322 592q183 0 183 -137q0 -65 -44.5 -100.5t-102.5 -40.5v-8q115 -27 115 -127q0 -53 -19 -91t-53 -59t-74 -30.5t-89 -9.5q-204 0 -204 159q0 69 45.5 113t122.5 48v8q-89 19 -89 110q0 165 209 165zM327 568q-40 0 -64 -57.5t-24 -121.5q0 -75 47 -75q38 0 64.5 49
t26.5 120q0 27 -2.5 43t-14 29t-33.5 13zM276 292q-44 0 -75 -53t-31 -134q0 -92 67 -92q41 0 69.5 57t28.5 132q0 90 -59 90z" />
    <glyph glyph-name="nine.oldstyle" unicode="&#xf739;" horiz-adv-x="502" 
d="M18 -78l8 20q26 -16 94 -16q40 0 72.5 16t53 38.5t37.5 58.5t25.5 64t18.5 67l-3 1q-23 -26 -58 -44t-68 -18q-66 0 -104.5 37t-38.5 106q0 99 62.5 163t158.5 64q198 0 198 -219q0 -70 -19 -134t-56 -119t-101 -88t-146 -33q-85 0 -134 36zM282 454q-37 0 -65.5 -58
t-28.5 -129q0 -48 18 -75.5t51 -27.5q52 0 70 41q6 9 12 50.5t7 79.5q2 119 -64 119z" />
    <glyph glyph-name="cent.oldstyle" unicode="&#xf7a2;" horiz-adv-x="508" 
d="M245 67l84 365q-40 0 -73 -42t-49 -95.5t-16 -99.5q0 -109 54 -128zM336 457l16 68h30l-17 -71q31 -2 57 -10t48.5 -27.5t22.5 -48.5q1 -24 -15 -37.5t-39 -13.5q-19 0 -27 7.5t-8 25.5q-1 33 -15.5 56.5t-31.5 25.5l-85 -376q104 -4 173 100l21 -11q-65 -121 -201 -124
l-21 -85h-30l21 85q-181 15 -181 171q0 120 80 193t202 72z" />
    <glyph glyph-name="fi" unicode="&#xfb01;" horiz-adv-x="581" 
d="M53 425l11 36h76l9 42q6 26 15 50.5t29.5 56t47 54t70 38.5t96.5 16q89 0 128.5 -29.5t39.5 -75.5q0 -31 -21.5 -49.5t-51.5 -18.5q-43 0 -41 38q1 59 -12.5 84.5t-49.5 25.5q-32 0 -63 -40t-50 -128l-14 -64h92q97 0 197 10l3 -3l-99 -372q-13 -43 10 -43q16 0 40 24
t47 67l16 -11q-32 -70 -72 -107.5t-104 -37.5q-96 0 -63 115l73 275q7 28 -0.5 37.5t-32.5 9.5h-116q1 2 -20 -93t-43 -194.5t-24 -107.5q-29 -130 -91.5 -201t-153.5 -71q-53 0 -82.5 20t-29.5 51q1 22 23 42.5t45 20.5q14 0 20.5 -5.5t11.5 -18.5q35 -79 54 -79
q10 0 18 10t11 21q32 113 129 605h-78z" />
    <glyph glyph-name="fl" unicode="&#xfb02;" horiz-adv-x="581" 
d="M52 425l11 36h77l5 23q7 32 17 60.5t29.5 61.5t45.5 56.5t66.5 39.5t89.5 16q91 0 131 -35l90 35l7 -3l-153 -618q-10 -43 13 -43q38 0 87 91l16 -12q-34 -71 -72.5 -108t-101.5 -37q-92 0 -63 123l122 507q-8 75 -69 75q-78 0 -117 -179l-12 -53h111l-10 -36h-109
q1 3 -42.5 -193.5t-48.5 -217.5q-28 -120 -86.5 -188t-151.5 -68q-56 0 -85 20t-29 52q0 23 21 42.5t45 19.5q15 0 22 -6t12 -20q17 -45 29.5 -60t26.5 -15q18 0 25 30q16 56 60.5 265t69.5 339h-79z" />
    <glyph glyph-name="one.superior" 
d="M353 404h-235l6 23l36 5q15 2 23 9t12 25l55 244q7 31 -15 33l-40 3l5 18l173 23l2 -4l-70 -317q-4 -18 0.5 -25t19.5 -9l33 -5z" />
    <glyph glyph-name="two.superior" 
d="M373 404h-291l-5 6q2 33 41.5 77.5t103.5 81.5q92 53 92 143q0 54 -33 54q-21 0 -38 -19.5t-35 -71.5q-11 -28 -37 -28q-20 0 -33.5 11.5t-13.5 30.5q0 36 46 67t114 31q142 0 142 -113q0 -87 -118 -123q-133 -39 -159 -63h198q12 0 18.5 2t18.5 13.5t29 36.5l15 -6z" />
    <glyph glyph-name="three.superior" 
d="M290 787q58 0 94 -23t36 -70q0 -78 -112 -86l-1 -4q44 -5 71.5 -29.5t27.5 -60.5q0 -56 -44.5 -86.5t-125.5 -30.5q-66 0 -101 24t-35 59q0 18 14.5 32t33.5 14q23 0 30 -25q16 -49 27.5 -66t28.5 -17q20 0 37 29t17 88q0 19 -3.5 31.5t-10 17t-12 6t-13.5 1.5
q-11 0 -31.5 -4.5t-26.5 -4.5q-18 0 -18 18q0 31 21 31q6 0 28 -6t35 -6q27 0 42 25t15 68q0 56 -35 56q-33 0 -59 -73q-4 -11 -7 -16t-9.5 -9t-16.5 -4q-17 0 -30 10t-13 29q0 29 40 55.5t106 26.5z" />
    <glyph glyph-name="zero.slash" horiz-adv-x="518" 
d="M433 623l23 45l23 -17l-21 -40q82 -51 82 -183q0 -126 -49 -245q-80 -194 -251 -194q-57 0 -96 17l-25 -48l-23 15l24 47q-76 53 -76 185q0 138 53 252q83 182 244 182q56 0 92 -16zM403 564q-10 50 -47 50q-42 0 -78.5 -63t-57 -150t-32.5 -161.5t-12 -112.5zM181 78
q6 -29 20 -46.5t32 -17.5q40 0 75.5 65.5t56 154t32 166t11.5 115.5z" />
    <glyph glyph-name="percent.oldstyle" horiz-adv-x="697" 
d="M604 576l23 -17l-479 -586l-24 17l413 498h-166q6 -36 6 -50q0 -90 -46 -141t-135 -51q-60 0 -89 31.5t-29 87.5q0 82 45.5 134t132.5 52q53 0 97 -27q15 -11 42 -11h111q30 0 43 6.5t29 25.5zM256 532q-35 0 -59 -83.5t-23 -136.5q0 -47 26 -47q35 0 58.5 78.5
t23.5 139.5q0 49 -26 49zM487 -12q-57 0 -88 32t-31 84q0 82 46.5 136t131.5 53q58 0 89.5 -31.5t31.5 -83.5q0 -86 -46.5 -138t-133.5 -52zM544 274q-35 0 -58.5 -84.5t-22.5 -137.5q0 -45 27 -45q35 0 58 82.5t23 136.5q0 29 -6.5 38.5t-20.5 9.5z" />
    <glyph glyph-name="perthousand.oldstyle" horiz-adv-x="1014" 
d="M605 576l22 -17l-479 -586l-24 18l413 497h-167q7 -21 7 -50q0 -90 -46 -141t-135 -51q-60 0 -89 31.5t-29 87.5q0 82 45.5 134t132.5 52q53 0 97 -27q15 -11 42 -11h111q30 0 43 6.5t29 25.5zM256 532q-35 0 -59 -83.5t-23 -136.5q0 -47 26 -47q35 0 58.5 78.5
t23.5 139.5q0 49 -26 49zM487 -12q-57 0 -88 32t-31 84q0 82 46.5 136t131.5 54q58 0 89.5 -32t31.5 -84q0 -85 -46.5 -137.5t-133.5 -52.5zM544 274q-35 0 -58.5 -84.5t-22.5 -137.5q0 -45 27 -45q35 0 58 82.5t23 136.5q0 29 -6.5 38.5t-20.5 9.5zM804 -12q-57 0 -88 32
t-31 84q0 81 47 135.5t131 54.5q58 0 89.5 -32t31.5 -84q0 -86 -46.5 -138t-133.5 -52zM861 274q-35 0 -58.5 -84.5t-22.5 -137.5q1 -45 27 -45q35 0 58.5 83t23.5 136q0 29 -6.5 38.5t-21.5 9.5z" />
    <glyph glyph-name="zero.fitted" horiz-adv-x="518" 
d="M353 614q-57 0 -113 -158q-25 -69 -41.5 -160t-16.5 -172q0 -48 14 -79t40 -31q66 0 127 219q39 140 39 280q0 101 -49 101zM341 639q49 0 86 -14.5t57.5 -36t33.5 -51.5t16.5 -55.5t3.5 -53.5q0 -137 -47 -251q-37 -89 -96 -138.5t-154 -49.5q-195 0 -195 216
q0 146 48 252q85 182 247 182z" />
    <glyph glyph-name="one.fitted" horiz-adv-x="518" 
d="M66 0l5 23l58 5q18 2 27 9t13 27l104 478q4 21 1 28.5t-15 8.5l-62 6l5 18l235 36l3 -5l-126 -570q-4 -20 2 -26.5t25 -8.5l60 -6l-5 -23h-330z" />
    <glyph glyph-name="two.fitted" horiz-adv-x="518" 
d="M432 0h-430l-2 5q13 68 65 128t144 125q169 117 169 262q0 42 -17 68t-46 26q-40 0 -65 -26t-50 -105q-6 -18 -9.5 -26t-12.5 -15t-23 -7q-27 0 -45.5 15t-18.5 41q0 55 64.5 101.5t162.5 46.5q101 0 153 -43.5t52 -122.5q0 -80 -47 -129t-150 -90q-102 -40 -157.5 -71
t-95.5 -76h309q31 0 45.5 11.5t48.5 59.5l19 -9z" />
    <glyph glyph-name="three.fitted" horiz-adv-x="518" 
d="M273 326q-24 0 -47 -5.5t-31 -5.5q-10 0 -14.5 1t-8 6t-3.5 16q0 31 31 31q12 0 33.5 -6.5t43.5 -6.5q100 0 100 166q0 92 -59 92q-31 0 -55 -32t-51 -92q-16 -33 -39 -33q-53 0 -56 54q-3 42 54.5 85t155.5 43q193 0 193 -148q0 -63 -47.5 -100.5t-133.5 -45.5v-4
q81 -17 116 -53.5t35 -95.5q0 -54 -22 -95t-59.5 -63.5t-81.5 -33.5t-94 -11q-100 0 -153.5 38.5t-53.5 88.5q0 30 20.5 50t44.5 20q29 0 37 -40q15 -64 42 -98t59 -34q43 0 74.5 55t31.5 134q0 123 -62 123z" />
    <glyph glyph-name="four.fitted" horiz-adv-x="518" 
d="M494 182h-85l-26 -125q-4 -17 1 -22.5t20 -7.5l40 -5l-5 -22h-276l3 22l45 6q10 1 14.5 3t9 8t6.5 18l26 125h-232l-8 25q47 61 187.5 227.5t168.5 193.5h121l-86 -406h85zM82 222h193l79 337l-2 -1q-81 -94 -270 -336z" />
    <glyph glyph-name="five.fitted" horiz-adv-x="518" 
d="M192 628h196q139 0 159 10l10 -12l-74 -115h-262q-16 0 -23 -5.5t-14 -23.5l-50 -155l2 -2q74 55 161 55q193 0 193 -164q0 -113 -76 -170t-191 -57q-100 0 -146.5 36t-48.5 86q-2 29 18 50.5t48 21.5q19 0 26.5 -10t13.5 -35q16 -66 37 -95t59 -29q46 0 76.5 47.5
t30.5 142.5q0 58 -28 92.5t-78 34.5q-74 0 -115 -59l-18 19l87 333z" />
    <glyph glyph-name="six.fitted" horiz-adv-x="518" 
d="M376 639q88 0 126.5 -29.5t38.5 -61.5q0 -24 -20.5 -43t-44.5 -19q-16 0 -22 7.5t-10 26.5q-16 56 -29 75t-46 19q-51 0 -96.5 -79t-66.5 -217h2q24 28 68.5 51.5t76.5 23.5q154 0 154 -169q0 -107 -71.5 -171t-182.5 -64q-64 0 -106 18.5t-62 53.5t-27.5 72t-7.5 87
q0 103 37.5 200t104.5 155q79 64 184 64zM282 334q-24 0 -35.5 -8t-26.5 -33q-32 -52 -32 -141q0 -68 15 -103t56 -35q45 0 74.5 66t29.5 151q0 48 -23 75.5t-58 27.5z" />
    <glyph glyph-name="seven.fitted" horiz-adv-x="518" 
d="M158 628h422l5 -6q-27 -99 -193 -285q-55 -62 -87.5 -140.5t-31.5 -151.5q0 -29 -14.5 -42.5t-49.5 -13.5q-72 0 -72 56q0 32 13 64.5t41.5 69t52.5 62.5t68 70l19 19q20 21 50.5 51.5t47.5 48t37 40t34 41.5h-289q-39 0 -56.5 -12t-43.5 -60l-19 14z" />
    <glyph glyph-name="eight.fitted" horiz-adv-x="518" 
d="M335 639q109 0 155 -42.5t46 -105.5q0 -127 -153 -150v-4q118 -35 118 -138q0 -110 -71 -160t-183 -50q-219 0 -219 171q0 74 55.5 125t133.5 56v3q-19 6 -33 12t-33 19.5t-29 37t-10 54.5q0 62 32.5 102t80.5 55t110 15zM342 614q-30 0 -53 -32.5t-33.5 -73.5t-10.5 -79
q0 -82 60 -82q39 0 66.5 53t27.5 134q0 80 -57 80zM288 322q-37 0 -64.5 -36.5t-39 -82t-11.5 -88.5q0 -54 17.5 -77.5t53.5 -23.5q48 0 80 64.5t32 146.5q0 97 -68 97z" />
    <glyph glyph-name="nine.fitted" horiz-adv-x="518" 
d="M234 248q-69 0 -109 41.5t-40 115.5q0 104 62.5 169t168.5 65q209 0 209 -235q2 -142 -64 -267q-76 -148 -245 -148q-85 0 -130 30.5t-47 77.5q-1 26 20 46t45 20q20 0 28.5 -7.5t13.5 -26.5q14 -58 30.5 -85.5t46.5 -27.5q26 0 48.5 21.5t37 50t28.5 74.5t21 77t15 74
l-2 1q-60 -66 -137 -66zM299 308q43 0 65 39q11 18 18.5 63t7.5 87q0 114 -62 114q-46 0 -75 -57.5t-29 -134.5q0 -111 75 -111z" />
    <glyph glyph-name="zero.taboldstyle" horiz-adv-x="508" 
d="M312 479q85 0 135.5 -47t50.5 -145q0 -68 -26.5 -136.5t-73.5 -107.5q-67 -54 -167 -54q-191 0 -191 185q0 68 22 129.5t63 101.5q74 74 187 74zM310 453q-35 0 -62.5 -37.5t-41.5 -92.5t-21.5 -105.5t-7.5 -88.5q0 -56 10 -86t37 -30q34 0 62 40.5t43.5 98t23.5 110
t8 87.5q0 104 -51 104z" />
    <glyph glyph-name="one.taboldstyle" horiz-adv-x="508" 
d="M165 446l227 34l2 -3l-90 -410q-5 -21 0 -27.5t20 -8.5l67 -8l-6 -23h-324l5 23l55 7q20 3 28 9.5t13 27.5l75 322q6 24 -16 29l-61 7z" />
    <glyph glyph-name="two.taboldstyle" horiz-adv-x="508" 
d="M407 0h-394l-3 5q42 126 193 197q121 55 121 172q0 33 -13.5 56t-39.5 23q-35 0 -54.5 -28t-41.5 -93q-12 -39 -46 -39q-23 0 -39 12t-16 35q0 61 59.5 100t141.5 39q193 0 193 -145q0 -61 -48.5 -97.5t-145.5 -59.5q-134 -31 -176 -70h205q105 0 164 9l1 -2z" />
    <glyph glyph-name="three.taboldstyle" horiz-adv-x="508" 
d="M306 373q0 36 -12.5 59t-33.5 23q-25 0 -44.5 -21.5t-39.5 -83.5q-7 -21 -14 -27.5t-26 -6.5q-45 0 -45 45q0 39 48 78.5t135 39.5q173 0 173 -135q0 -53 -41 -90.5t-133 -46.5v-7q153 -28 153 -135q0 -51 -21 -88t-56 -55.5t-72.5 -27t-79.5 -8.5q-92 0 -137 34.5
t-45 81.5q0 26 17 41.5t41 15.5q18 0 26 -10t13 -31q13 -56 31.5 -83t48.5 -27q36 0 59.5 53t23.5 125q0 54 -18 75.5t-40 21.5q-15 0 -33.5 -3.5t-28.5 -3.5q-23 0 -23 19q0 15 6 21t22 6q8 0 25 -3t32 -3q43 0 66 43.5t23 113.5z" />
    <glyph glyph-name="four.taboldstyle" horiz-adv-x="508" 
d="M239 80h-220l-11 28q25 29 48.5 56.5t51 57t45 48.5t50.5 52.5t45 46t51 51.5l48 48h109l-75 -346h93l-12 -42h-91l-37 -182h-136zM77 122h171l74 280h-2q-56 -57 -137.5 -150.5t-105.5 -129.5z" />
    <glyph glyph-name="five.taboldstyle" horiz-adv-x="508" 
d="M417 352h-238q-14 0 -18.5 -5t-8.5 -18l-44 -136l1 -2q75 54 154 54q83 0 124.5 -40t41.5 -110q0 -100 -68 -154.5t-167 -54.5q-87 0 -134 37t-47 81q0 25 15.5 41.5t44.5 16.5q25 0 36 -43q16 -60 36.5 -85t54.5 -25q36 0 60 46t24 127q0 49 -23.5 82t-67.5 33
q-61 0 -104 -53l-17 18l81 301l6 5h179q115 0 141 9l2 -7z" />
    <glyph glyph-name="six.taboldstyle" horiz-adv-x="508" 
d="M518 572l-5 -18q-28 5 -71 5q-88 0 -153 -73t-91 -190h2q22 21 65 45t75 24q144 0 144 -149q0 -99 -63 -163t-172 -64q-59 0 -99.5 16t-60.5 45.5t-28.5 62.5t-8.5 76q0 78 24.5 149.5t69.5 128.5t116 91t158 34q56 0 98 -20zM276 309q-40 0 -73 -44q-25 -37 -25 -119
q0 -133 69 -133q47 0 74 61t27 142q0 44 -19.5 68.5t-52.5 24.5z" />
    <glyph glyph-name="seven.taboldstyle" horiz-adv-x="508" 
d="M141 468h368l3 -5q-16 -92 -165 -258q-47 -52 -73.5 -123t-28.5 -134q-1 -33 -14.5 -47.5t-43.5 -14.5q-68 0 -68 64q0 63 43.5 121.5t119.5 124.5q118 106 157 160h-260q-27 0 -41 -11t-45 -61l-18 9z" />
    <glyph glyph-name="eight.taboldstyle" horiz-adv-x="508" 
d="M321 592q182 0 182 -137q0 -65 -44.5 -100.5t-101.5 -40.5v-8q115 -27 115 -127q0 -53 -19 -91t-53 -59t-74.5 -30.5t-89.5 -9.5q-204 0 -204 159q0 69 46 113t123 48v8q-89 19 -89 110q0 165 209 165zM326 568q-40 0 -64 -57.5t-24 -121.5q0 -75 47 -75q38 0 64 49
t26 120q0 42 -9 63.5t-40 21.5zM275 292q-44 0 -75.5 -53t-31.5 -134q0 -92 68 -92q41 0 69.5 57t28.5 132q0 90 -59 90z" />
    <glyph glyph-name="nine.taboldstyle" horiz-adv-x="508" 
d="M19 -78l8 20q26 -16 94 -16q40 0 72.5 16t53 38.5t37.5 58t26 64t18 67.5l-3 1q-22 -26 -57 -44t-69 -18q-66 0 -104.5 37t-38.5 106q0 100 62.5 163.5t159.5 63.5q198 0 198 -219q0 -70 -19 -134t-56 -119t-101.5 -88t-146.5 -33q-85 0 -134 36zM284 454
q-38 0 -66.5 -58t-28.5 -129q0 -48 18.5 -75.5t51.5 -27.5q52 0 70 41q6 9 12 50.5t7 79.5q2 119 -64 119z" />
    <glyph glyph-name="a.superior" horiz-adv-x="385" 
d="M293 497q-10 5 -21 5q-31 0 -60 -38.5t-44 -82.5t-15 -72q0 -21 15 -21q23 0 59 45q13 16 24.5 41t18 44.5t14 46t9.5 32.5zM301 518h94l-56 -201q-8 -25 4 -25q18 0 54 58l13 -8q-48 -94 -119 -94q-20 0 -33 16.5t-1 58.5l9 32l-4 1q-64 -108 -142 -108
q-27 0 -40.5 17.5t-13.5 45.5q0 22 6.5 48.5t22 55.5t37 52.5t55.5 39t75 15.5q26 0 37 -8z" />
    <glyph glyph-name="o.superior" horiz-adv-x="343" 
d="M236 523q127 0 127 -111q0 -72 -46.5 -118.5t-122.5 -46.5q-123 0 -123 104q0 76 45.5 124t119.5 48zM246 502q-38 0 -63 -72t-25 -121q0 -43 30 -43q35 0 61.5 74.5t26.5 117.5q0 44 -30 44z" />
    <glyph glyph-name="h.superior" horiz-adv-x="377" 
d="M112 623l3 13l142 15l4 -3l-64 -241h2q73 115 150 115q67 0 39 -85l-41 -120q-8 -27 7 -27q9 0 25.5 16t28.5 36l10 -9q-21 -41 -48.5 -63t-75.5 -22q-28 0 -38.5 17.5t0.5 51.5l43 135q10 29 -7 29t-45.5 -36t-43.5 -69q-14 -33 -42 -121l-91 -7l85 347q6 23 -8 24z" />
    <glyph glyph-name="zero.numerator" 
d="M281 616q-30 0 -55 -63.5t-36 -129t-11 -98.5q0 -55 33 -55q28 0 52.5 62t35.5 127.5t11 99.5q0 57 -30 57zM278 639q42 0 71 -13t42.5 -34.5t18.5 -42t5 -44.5q0 -38 -6 -73t-21 -69.5t-37.5 -60t-57.5 -41t-79 -15.5q-139 0 -139 135q0 47 11.5 91t35 82.5t64 61.5
t92.5 23z" />
    <glyph glyph-name="one.numerator" 
d="M322 256h-235l6 23l36 5q15 2 23 9t12 25l55 243q7 31 -15 33l-40 4l5 18l173 23l2 -4l-70 -317q-4 -18 0.5 -25t19.5 -9l33 -5z" />
    <glyph glyph-name="two.numerator" 
d="M343 256h-291l-5 6q2 33 41.5 77.5t103.5 81.5q92 53 92 143q0 54 -33 54q-21 0 -38 -19.5t-35 -71.5q-11 -28 -37 -28q-20 0 -33.5 11.5t-13.5 30.5q0 36 46 67t114 31q142 0 142 -112q0 -88 -118 -124q-133 -39 -159 -63h198q12 0 18.5 2t18.5 13.5t29 36.5l15 -6z" />
    <glyph glyph-name="three.numerator" 
d="M260 639q58 0 94 -23t36 -70q0 -78 -113 -86l-1 -4q44 -5 71.5 -29.5t27.5 -60.5q0 -56 -44.5 -86.5t-125.5 -30.5q-66 0 -101 24t-35 59q0 18 14.5 32t33.5 14q23 0 30 -25q16 -49 27.5 -66t28.5 -17q20 0 37 29t17 88q0 19 -3.5 31.5t-10 17t-12 6t-13.5 1.5
q-11 0 -31.5 -4.5t-26.5 -4.5q-18 0 -18 18q0 31 21 31q6 0 28.5 -6t35.5 -6q27 0 42 25t15 68q0 56 -35 56q-33 0 -59 -73q-4 -11 -7 -16t-9.5 -9t-16.5 -4q-17 0 -30 10t-13 29q0 29 40 55.5t106 26.5z" />
    <glyph glyph-name="four.numerator" 
d="M226 363h-150l-8 16q108 128 248 254h73l-52 -239h59l-9 -31h-59l-13 -62q-4 -20 15 -22l27 -3l-4 -20h-204l4 20l31 3q23 2 28 22zM122 394h110l42 169h-2q-4 -5 -66.5 -72t-83.5 -97z" />
    <glyph glyph-name="five.numerator" 
d="M373 554h-185q-10 0 -14 -3t-8 -14l-29 -84l2 -2q61 44 122 44q120 0 120 -106q0 -71 -48.5 -105.5t-128.5 -34.5q-60 0 -96.5 23.5t-36.5 58.5q0 17 16.5 30.5t38.5 13.5q13 0 18.5 -7.5t10.5 -23.5q24 -75 53 -75q23 0 38 32t15 78q0 74 -60 74q-40 0 -72 -37l-21 18
l54 196l4 3h246l3 -6z" />
    <glyph glyph-name="six.numerator" 
d="M293 639q59 0 88.5 -21.5t29.5 -47.5q0 -22 -14 -32.5t-32 -10.5q-16 0 -22.5 6.5t-10.5 22.5q-20 63 -49 63q-27 0 -52.5 -45t-40.5 -120h3q47 40 96 40q105 0 105 -103q0 -63 -47 -102.5t-124 -39.5q-145 0 -145 141q0 103 57 176t158 73zM222 270q28 0 44.5 36.5
t16.5 84.5q0 24 -11.5 43t-30.5 19q-23 0 -36 -13q-28 -25 -28 -93q0 -29 12 -53t33 -24z" />
    <glyph glyph-name="seven.numerator" 
d="M154 633h283l2 -6q-12 -59 -113 -162q-54 -57 -54 -172q0 -44 -50 -44q-57 0 -57 53q0 74 97 146q90 67 112 98h-187q-21 0 -31.5 -8.5t-36.5 -44.5l-17 8z" />
    <glyph glyph-name="eight.numerator" 
d="M248 446q-29 0 -49 -35t-20 -83q0 -58 41 -58q27 0 46 36t20 89q0 51 -38 51zM268 639q146 0 146 -92q0 -75 -98 -87v-6q81 -28 81 -87q0 -118 -170 -118q-83 0 -121 28.5t-38 74.5q0 43 31 71t83 33v6q-28 10 -44 25.5t-16 44.5q0 45 34.5 76t111.5 31zM278 618
q-23 0 -39 -34t-16 -72q0 -49 35 -49q22 0 37 31.5t15 70.5q0 53 -32 53z" />
    <glyph glyph-name="nine.numerator" 
d="M254 639q79 0 115 -38t36 -112q0 -99 -51.5 -169.5t-153.5 -70.5q-56 0 -92 23t-35 56q0 17 14.5 30t35.5 13t28 -24q23 -78 63 -78q55 0 79 171h-4q-14 -17 -38 -27t-46 -10q-111 0 -111 96q0 66 47.5 103t112.5 37zM261 620q-24 0 -41 -36.5t-17 -73.5q0 -69 44 -69
q24 0 35 13q18 21 18 89q0 77 -39 77z" />
    <glyph glyph-name="period.numerator" horiz-adv-x="161" 
d="M116 359q25 0 36.5 -14.5t11.5 -35.5q0 -27 -16 -43.5t-40 -16.5q-53 0 -53 49q0 27 17.5 44t43.5 17z" />
    <glyph glyph-name="comma.numerator" horiz-adv-x="161" 
d="M16 164q63 65 63 148q0 22 -8 41q11 8 36 18.5t38 9.5q13 -16 13 -41q0 -39 -22.5 -77t-47 -60.5t-63.5 -52.5z" />
    <glyph glyph-name="dollar.numerator" 
d="M242 502l28 111q-77 0 -77 -59q0 -34 49 -52zM275 633l12 48h26l-13 -49q40 -3 74 -21t34 -50q0 -16 -14 -26.5t-30 -10.5q-9 0 -15 4t-7.5 8.5t-3.5 12.5q-11 55 -44 62l-29 -120q69 -30 92.5 -51.5t23.5 -61.5q0 -49 -43.5 -86.5t-126.5 -36.5l-16 -61h-26l16 63
q-52 3 -85.5 25t-33.5 57q0 17 13.5 29t30.5 12q14 0 18.5 -5t9.5 -22q18 -67 51 -75l30 123q-63 27 -84.5 48t-21.5 64q0 53 43.5 86.5t118.5 33.5zM242 390l-28 -117q34 -2 57 12.5t23 48.5q0 33 -52 56z" />
    <glyph glyph-name="cent.numerator" 
d="M237 335l54 237q-44 -1 -71 -47.5t-27 -99.5q0 -75 44 -90zM256 302l-14 -61h-26l15 61q-66 -1 -105 30t-39 90q0 83 59.5 126.5t149.5 42.5l13 50h25l-13 -51q39 -2 68 -19t29 -48q0 -15 -13 -24.5t-30 -9.5q-11 0 -14.5 4t-5.5 14q-6 50 -39 62l-54 -239
q33 -3 68.5 14.5t61.5 58.5l14 -10q-21 -40 -62.5 -64.5t-87.5 -26.5z" />
    <glyph glyph-name="hyphen.numerator" horiz-adv-x="214" 
d="M94 464h158l-14 -47h-157z" />
    <glyph glyph-name="parenleft.numerator" horiz-adv-x="226" 
d="M305 649l-1 -16q-149 -41 -149 -327q0 -35 13 -65.5t37 -38.5l-5 -15q-113 11 -113 166q0 123 60 209.5t158 86.5z" />
    <glyph glyph-name="parenright.numerator" horiz-adv-x="216" 
d="M31 188v16q150 40 150 326q0 35 -13 65.5t-37 38.5l5 15q113 -11 113 -168q0 -123 -60 -208t-158 -85z" />
    <glyph glyph-name="zero.denominator" 
d="M236 360q-30 0 -55 -63.5t-36 -129t-11 -98.5q0 -55 33 -55q28 0 52.5 62t35.5 127t11 99q0 58 -30 58zM233 383q42 0 71 -13t42.5 -34.5t18.5 -42.5t5 -45q0 -37 -6 -72t-21 -69.5t-37.5 -60t-57.5 -41t-79 -15.5q-139 0 -139 135q0 47 11.5 91t35 82.5t64 61.5t92.5 23
z" />
    <glyph glyph-name="one.denominator" 
d="M277 0h-235l6 23l36 5q15 2 23 9t12 25l55 243q7 31 -15 33l-40 4l5 18l173 23l2 -4l-70 -317q-4 -18 0.5 -25t19.5 -9l33 -5z" />
    <glyph glyph-name="two.denominator" 
d="M298 0h-291l-5 6q2 33 41.5 77.5t103.5 81.5q92 53 92 143q0 54 -33 54q-21 0 -38 -19.5t-35 -71.5q-11 -28 -37 -28q-20 0 -33.5 11.5t-13.5 30.5q0 36 46 67t114 31q142 0 142 -113q0 -88 -118 -122q-134 -41 -159 -64h198q12 0 18.5 2t18.5 13.5t29 36.5l15 -6z" />
    <glyph glyph-name="three.denominator" 
d="M215 383q58 0 94 -23t36 -70q0 -78 -112 -86l-1 -4q44 -5 71.5 -29.5t27.5 -60.5q0 -56 -44.5 -86.5t-125.5 -30.5q-66 0 -101 24t-35 59q0 18 14.5 32t33.5 14q23 0 30 -25q16 -49 27.5 -66t28.5 -17q20 0 37 29t17 88q0 19 -3.5 31.5t-10 17t-12 6t-13.5 1.5
q-11 0 -31.5 -4.5t-26.5 -4.5q-18 0 -19 18q0 31 21 31q6 0 28.5 -6t35.5 -6q27 0 42 25t15 68q0 56 -35 56q-33 0 -59 -73q-4 -11 -7 -16t-9.5 -9t-16.5 -4q-17 0 -30 10t-13 29q0 29 40 55.5t106 26.5z" />
    <glyph glyph-name="four.denominator" 
d="M181 107h-150l-8 16q111 131 248 253h73l-52 -238h59l-9 -31h-59l-13 -62q-4 -20 15 -22l27 -3l-4 -20h-204l4 20l31 3q23 2 28 22zM77 138h110l42 169h-2q-5 -6 -67 -73t-83 -96z" />
    <glyph glyph-name="five.denominator" 
d="M328 298h-185q-10 0 -14 -3t-8 -14l-29 -84l2 -2q60 44 122 44q120 0 120 -106q0 -71 -48.5 -105.5t-128.5 -34.5q-60 0 -96.5 23.5t-36.5 58.5q0 17 17 30.5t38 13.5q20 0 29 -32q24 -74 53 -74q23 0 38 32t15 78q0 74 -60 74q-40 0 -72 -38l-21 19l54 196l4 3h246l3 -6
z" />
    <glyph glyph-name="six.denominator" 
d="M248 383q59 0 88.5 -21.5t29.5 -47.5q0 -22 -14 -32.5t-32 -10.5q-16 0 -22.5 6.5t-10.5 22.5q-20 63 -49 63q-27 0 -52.5 -45t-40.5 -120h3q47 40 96 40q105 0 105 -102q0 -64 -46.5 -103.5t-124.5 -39.5q-145 0 -145 142q0 102 57 175t158 73zM177 14q28 0 44.5 36.5
t16.5 84.5q0 24 -11.5 43t-30.5 19q-23 0 -36 -13q-28 -25 -28 -93q0 -29 12 -53t33 -24z" />
    <glyph glyph-name="seven.denominator" 
d="M109 377h283l2 -6q-12 -59 -113 -162q-54 -57 -54 -172q0 -44 -50 -44q-57 0 -57 53q0 74 97 146q90 67 112 98h-187q-21 0 -31.5 -8.5t-36.5 -44.5l-17 8z" />
    <glyph glyph-name="eight.denominator" 
d="M203 190q-29 0 -48.5 -35.5t-19.5 -83.5q0 -28 11 -42.5t29 -14.5q27 0 46 36t20 89q0 51 -38 51zM223 383q146 0 146 -92q0 -75 -98 -87v-6q81 -28 81 -87q0 -118 -170 -118q-82 0 -120 28.5t-38 74.5q0 42 31 70.5t82 33.5v6q-28 10 -44 25.5t-16 44.5q0 45 34.5 76
t111.5 31zM233 362q-23 0 -39 -34t-16 -72q0 -49 35 -49q22 0 37 31.5t15 70.5q0 53 -32 53z" />
    <glyph glyph-name="nine.denominator" 
d="M209 383q79 0 115 -38t36 -113q0 -99 -51.5 -169t-153.5 -70q-56 0 -92 23t-35 56q0 17 14.5 30t35.5 13t28 -24q23 -78 63 -78q55 0 79 171h-4q-14 -17 -38 -27t-46 -10q-111 0 -111 96q0 66 47.5 103t112.5 37zM216 364q-24 0 -41 -36.5t-17 -73.5q0 -69 44 -69
q24 0 35 13q18 21 18 89q0 77 -39 77z" />
    <glyph glyph-name="period.denominator" horiz-adv-x="161" 
d="M71 104q25 0 36.5 -15t11.5 -36q0 -26 -16 -42.5t-40 -16.5q-27 0 -40 13.5t-13 34.5q0 28 17 45t44 17z" />
    <glyph glyph-name="comma.denominator" horiz-adv-x="161" 
d="M-29 -92q63 65 63 148q0 22 -8 41q11 8 36 18.5t38 9.5q13 -16 13 -41q0 -39 -22.5 -77t-47 -60.5t-63.5 -52.5z" />
    <glyph glyph-name="dollar.denominator" 
d="M197 246l28 111q-76 0 -76 -60q0 -32 48 -51zM230 377l12 48h26l-13 -49q40 -3 74 -21t34 -50q0 -16 -14 -26.5t-30 -10.5q-9 0 -15 4t-7.5 8.5t-3.5 12.5q-11 55 -44 62l-29 -120q69 -29 92.5 -50.5t23.5 -61.5q0 -49 -43.5 -86.5t-125.5 -36.5l-16 -62h-26l16 62
q-52 3 -85.5 25t-33.5 57q0 17 13.5 29.5t30.5 12.5q14 0 18.5 -5t9.5 -23q18 -67 51 -75l30 123q-63 27 -84.5 48t-21.5 64q0 54 43.5 87.5t117.5 33.5zM198 134l-28 -117q33 -2 56 12.5t23 48.5q0 32 -51 56z" />
    <glyph glyph-name="cent.denominator" 
d="M192 79l54 237q-44 -1 -71 -47.5t-27 -99.5q0 -75 44 -90zM211 46l-14 -61h-26l15 61q-66 -1 -105 30t-39 90q0 83 59.5 126.5t149.5 42.5l13 50h25l-13 -51q39 -2 68 -19t29 -48q0 -15 -13 -24.5t-30 -9.5q-11 0 -14.5 4t-5.5 14q-6 50 -39 62l-54 -239q33 -3 68.5 14.5
t61.5 58.5l14 -10q-21 -40 -62.5 -64.5t-87.5 -26.5z" />
    <glyph glyph-name="hyphen.denominator" horiz-adv-x="214" 
d="M49 208h158l-14 -47h-157z" />
    <glyph glyph-name="parenleft.denominator" horiz-adv-x="226" 
d="M260 393l-1 -16q-149 -41 -149 -327q0 -35 13 -65.5t37 -38.5l-5 -15q-113 11 -113 166q0 123 60 209.5t158 86.5z" />
    <glyph glyph-name="parenright.denominator" horiz-adv-x="216" 
d="M-13 -68v16q150 40 150 327q0 35 -13 65.5t-37 38.5l5 14q60 -5 86.5 -51t26.5 -117q0 -123 -60 -208t-158 -85z" />
    <glyph glyph-name="at.cap" horiz-adv-x="826" 
d="M576 510h107q-39 -128 -85 -295q-12 -41 -11.5 -60.5t21.5 -19.5q45 0 80.5 29.5t55 74.5t29 89.5t9.5 82.5q0 126 -76.5 195t-196.5 69q-89 0 -158.5 -37t-110.5 -100t-62 -139t-21 -161q0 -55 14.5 -105t45 -93.5t86.5 -69.5t130 -26q85 0 142 28.5t118 100.5l9 -12
q-106 -159 -305 -159q-52 0 -98 11t-87.5 36t-71.5 62.5t-47.5 94t-17.5 127.5q0 202 118.5 333.5t320.5 131.5q150 0 227 -72.5t77 -203.5q0 -56 -17 -111.5t-48 -102t-81.5 -75.5t-111.5 -29q-113 0 -68 130l-1 1q-31 -53 -78 -92t-99 -39q-28 0 -46.5 20.5t-18.5 65.5
q-1 75 29 148.5t91 125t137 51.5q34 0 65 -20zM390 168q74 0 147 225q24 73 26 79q-13 19 -44 19q-42 0 -80.5 -55.5t-57.5 -119t-19 -103.5q0 -45 28 -45z" />
    <glyph glyph-name="emdash.cap" horiz-adv-x="857" 
d="M83 359h779l-12 -60h-780z" />
    <glyph glyph-name="endash.cap" horiz-adv-x="437" 
d="M83 359h362l-13 -60h-362z" />
    <glyph glyph-name="exclamdown.cap" horiz-adv-x="281" 
d="M234 648q34 0 51 -19t17 -47q0 -37 -22.5 -59t-55.5 -22t-50.5 19t-17.5 45q0 37 22.5 60t55.5 23zM193 432h21l-12 -345q-2 -54 -22.5 -75.5t-76.5 -21.5q-57 0 -69.5 28t11.5 77z" />
    <glyph glyph-name="guillemotleft.cap" horiz-adv-x="483" 
d="M296 476l10 -8l-126 -151q-14 -17 -7 -33l69 -149l-14 -8l-144 160q-12 13 8 28zM464 476l9 -8l-125 -151q-13 -15 -6 -33l68 -149l-13 -8l-144 160q-12 13 8 28z" />
    <glyph glyph-name="guillemotright.cap" horiz-adv-x="483" 
d="M64 127l-10 8l125 151q14 16 7 32l-69 150l13 8l145 -161q12 -13 -8 -27zM232 127l-10 8l126 151q13 15 6 32l-69 150l15 8l143 -161q12 -13 -7 -27z" />
    <glyph glyph-name="guilsinglleft.cap" horiz-adv-x="314" 
d="M295 476l10 -8l-125 -151q-14 -17 -7 -33l68 -149l-13 -8l-144 160q-12 13 8 28z" />
    <glyph glyph-name="guilsinglright.cap" horiz-adv-x="314" 
d="M64 127l-10 8l125 151q13 15 6 32l-68 150l13 8l145 -161q12 -13 -8 -27z" />
    <glyph glyph-name="hyphen.cap" horiz-adv-x="295" 
d="M83 360h220l-14 -61h-220z" />
    <glyph glyph-name="questiondown.cap" horiz-adv-x="453" 
d="M330 667q33 0 49.5 -18.5t16.5 -47.5q0 -37 -22.5 -59t-56.5 -22q-32 0 -48.5 18.5t-16.5 45.5q0 37 22.5 60t55.5 23zM212 -9q-173 0 -173 127q0 45 29.5 75t101.5 62q53 25 77 47t24 52q0 43 -43 43q-23 0 -40 -5l-5 19q45 39 109 39q44 0 70 -25t26 -66
q0 -18 -6.5 -32.5t-22.5 -29t-29.5 -24t-42.5 -27.5q-58 -37 -84.5 -75t-26.5 -94q0 -61 33 -61q20 0 34.5 16.5t21.5 36t21 65.5q9 33 43 33q26 0 47 -15t21 -46q0 -37 -48 -76t-137 -39z" />
    <glyph glyph-name="braceleft.cap" horiz-adv-x="358" 
d="M452 789l-4 -23q-32 -2 -54 -13.5t-34 -33t-18 -43t-10 -53.5l-11 -93q-11 -86 -22 -113q-28 -69 -118 -80l-1 -8q67 -16 77 -60.5t-20 -129.5l-27 -86q-10 -33 -13.5 -55t-1.5 -45.5t18.5 -36t47.5 -14.5l-3 -24h-36q-37 0 -62.5 9t-36.5 27.5t-16 37t0 47t9.5 47.5
t13.5 48l31 100q38 128 -76 128l6 24q41 0 64 5.5t36.5 23.5t18 37t10.5 62l14 112q12 88 23 116q34 87 148 87h47z" />
    <glyph glyph-name="braceright.cap" horiz-adv-x="358" 
d="M-28 -122l5 24q42 2 67 24t34 48.5t14 69.5l11 95q10 87 22 116q29 66 118 76l1 9q-35 8 -54 22t-23.5 38.5t0.5 53.5t20 76l27 84q10 33 14 55.5t1.5 46t-19 36t-47.5 14.5l4 24h35q32 0 55 -7.5t36 -18.5t18.5 -30.5t6.5 -35.5t-3.5 -42t-8.5 -41t-12 -41l-32 -99
q-39 -129 76 -129l-5 -24q-41 0 -64.5 -5t-37 -23t-18 -37.5t-9.5 -62.5l-13 -112q-11 -91 -26 -124q-36 -80 -146 -80h-47z" />
    <glyph glyph-name="bracketleft.cap" horiz-adv-x="359" 
d="M339 707l-159 -746q-5 -18 -1.5 -29t24 -18t68.5 -12l-6 -25h-190l195 914h190l-6 -25q-73 -9 -91 -19t-24 -40z" />
    <glyph glyph-name="bracketright.cap" horiz-adv-x="359" 
d="M110 -39l159 746q6 29 -8.5 40t-83.5 19l6 25h190l-194 -914h-191l6 25q74 9 92 19t24 40z" />
    <glyph glyph-name="parenleft.cap" horiz-adv-x="403" 
d="M212 205q0 -129 30 -205.5t93 -117.5l-11 -20q-101 26 -152 123t-51 226q0 98 22 191.5t66.5 177.5t123.5 140.5t181 67.5l5 -23q-60 -15 -112.5 -55t-97.5 -106t-71 -169t-26 -230z" />
    <glyph glyph-name="parenright.cap" horiz-adv-x="403" 
d="M321 445q0 130 -29.5 206t-93.5 118l12 19q102 -26 153 -123t51 -226q0 -97 -22.5 -191t-67 -178t-123.5 -140.5t-181 -67.5l-5 23q60 15 112.5 55t97 106t70.5 169t26 230z" />
    <glyph glyph-name="periodcentered.cap" horiz-adv-x="233" 
d="M141 261q-26 0 -42 16.5t-16 41.5q0 37 22 62t58 25q28 0 44.5 -17.5t16.5 -43.5q0 -84 -83 -84z" />
    <glyph glyph-name="breve.cap" horiz-adv-x="382" 
d="M305 716q-51 0 -76.5 19t-27 48t1.5 64h23q-3 -69 88 -69q90 0 105 69h24q-10 -58 -39 -94.5t-99 -36.5z" />
    <glyph glyph-name="cedilla.cap" horiz-adv-x="406" 
d="M181 0h31l-53 -55q34 -5 58 -23.5t24 -53.5q0 -45 -29.5 -68.5t-82.5 -23.5q-44 0 -71 17l8 21q18 -7 37 -7q54 0 54 51q0 23 -17.5 34t-37.5 13l-3 7z" />
    <glyph glyph-name="circumflex.cap" horiz-adv-x="382" 
d="M458 718l-15 -15l-110 76q-17 15 -34 2l-134 -78l-13 17l155 147h53z" />
    <glyph glyph-name="dotaccent.cap" horiz-adv-x="382" 
d="M319 855q32 0 48.5 -20t13.5 -49q-3 -30 -23.5 -50t-52.5 -20t-48.5 20t-13.5 50q3 29 23.5 49t52.5 20z" />
    <glyph glyph-name="ogonek.cap" horiz-adv-x="406" 
d="M193 7h20q-45 -34 -73 -75t-28 -79q0 -51 53 -51q23 0 60 22l8 -15q-58 -65 -126 -65q-80 0 -80 80q0 52 52 103.5t114 79.5z" />
    <glyph glyph-name="ring.cap" horiz-adv-x="382" 
d="M322 833q-20 0 -35 -16.5t-19 -45.5q-4 -30 6.5 -47t30.5 -17q21 0 37 17t20 47t-7.5 46t-32.5 16zM328 857q41 0 66 -20t19 -66q-11 -87 -112 -87q-41 0 -66 20t-19 67q13 86 112 86z" />
    <glyph glyph-name="tilde.cap" horiz-adv-x="382" 
d="M456 836l18 -7q-29 -99 -97 -99q-17 0 -66 15q-52 19 -72 19q-34 0 -58 -45l-21 11q39 97 101 97q14 0 63 -15q52 -18 74 -18q18 0 30.5 9t27.5 33z" />
    <glyph glyph-name="emdash.alt" horiz-adv-x="647" 
d="M58 264h569l-13 -60h-569z" />
    <glyph glyph-name="arrowleft.alt1" horiz-adv-x="668" 
d="M643 214l-439 10q33 -30 55 -82t23 -99l-1 -1q-103 137 -256 193v2q159 59 256 193l1 -1q0 -85 -78 -182l439 10v-43z" />
    <glyph glyph-name="arrowright.alt1" horiz-adv-x="668" 
d="M25 258l439 -10q-33 30 -55 82t-23 99l1 1q103 -137 256 -193v-2q-159 -59 -256 -193l-1 1q0 85 78 182l-439 -10v43z" />
    <glyph glyph-name="arrowleft.alt2" horiz-adv-x="425" 
d="M400 211h-174v-160l-1 -1l-200 179v1l200 181l1 -1v-160h174v-39z" />
    <glyph glyph-name="arrowright.alt2" horiz-adv-x="425" 
d="M25 250h175v160v1l200 -179v-1l-200 -181v1v160h-175v39z" />
    <glyph glyph-name="slash.frac" horiz-adv-x="94" 
d="M-149 -26l-25 20l497 659l24 -20z" />
    <glyph glyph-name="space.frac" horiz-adv-x="91" 
 />
    <glyph glyph-name="uni00A0.frac" horiz-adv-x="91" 
 />
    <glyph glyph-name="Euro.taboldstyle" horiz-adv-x="508" 
d="M240 341h204l-17 -27h-194q-3 -18 -10 -67h177l-16 -26h-162q-8 -179 93 -179q79 0 138 106l15 -10q-9 -23 -24.5 -45.5t-41 -47t-64 -39.5t-83.5 -15q-48 0 -83 15.5t-53.5 37.5t-28.5 55.5t-11.5 60.5t-0.5 61h-55l12 26h45q7 47 13 67h-42l16 27h35q36 109 98 160
t161 51q70 0 105.5 -29.5t35.5 -62.5q0 -25 -16 -40t-40 -15q-23 0 -27 25q-5 34 -9 50.5t-17 31.5t-34 15q-82 0 -119 -186z" />
    <glyph glyph-name="cent.taboldstyle" horiz-adv-x="508" 
d="M245 67l84 365q-40 0 -73 -42t-49 -95.5t-16 -99.5q0 -109 54 -128zM336 457l16 68h30l-17 -71q31 -2 57 -10t48.5 -27.5t22.5 -48.5q1 -24 -15 -37.5t-39 -13.5q-19 0 -27 7.5t-8 25.5q-1 33 -15.5 56.5t-31.5 25.5l-85 -376q104 -4 173 100l21 -11q-65 -121 -201 -124
l-21 -85h-30l21 85q-181 15 -181 171q0 120 80 193t202 72z" />
    <glyph glyph-name="colonmonetary.taboldstyle" horiz-adv-x="508" 
d="M297 40q52 6 89 29.5t68 86.5l15 -9q-49 -124 -183 -146l-23 -81h-25l23 81q-31 0 -48 5l-25 -86h-25l26 91q-70 18 -101 66.5t-31 135.5q0 135 73.5 228t202.5 100l18 62h25l-18 -61q28 -2 46 -5l20 66h26l-22 -74q34 -9 55 -27t20 -44q0 -18 -12.5 -33t-26.5 -15
q-18 0 -23 14q-2 6 -6.5 22.5t-8.5 25.5t-10 14zM205 80l119 436q-35 -8 -63 -46t-44 -86.5t-24 -93t-8 -74.5q0 -47 3 -74.5t6 -36.5t11 -25zM272 41l125 468q-14 7 -46 7l-125 -460q29 -13 46 -15z" />
    <glyph glyph-name="dollar.taboldstyle" horiz-adv-x="508" 
d="M318 523l17 67h29l-17 -70q126 -24 126 -99q0 -21 -13.5 -35.5t-31.5 -14.5q-17 0 -22.5 6.5t-8.5 20.5q-8 38 -24.5 64t-33.5 29l-39 -162q89 -38 119.5 -69.5t30.5 -89.5q0 -31 -11 -59t-35.5 -54t-71 -41.5t-110.5 -15.5l-21 -83h-28l21 83q-70 5 -117.5 37t-47.5 71
q0 29 14 44.5t38 15.5q12 0 17 -1t10 -8t8 -22q16 -94 85 -111l43 177q-51 21 -82.5 40.5t-45 40t-17.5 36t-4 39.5q0 72 58 121t165 43zM276 344l36 154q-49 3 -78.5 -19t-29.5 -66q0 -16 18 -35t54 -34zM269 193l-41 -172q41 -2 72.5 22.5t31.5 67.5q0 51 -63 82z" />
    <glyph glyph-name="florin.taboldstyle" horiz-adv-x="508" 
d="M442 290h-110l-27 -154q-24 -134 -85 -205t-148 -71q-63 0 -88 21.5t-25 49.5q0 18 17.5 34t42.5 16q13 0 19.5 -7.5t13.5 -24.5q13 -37 23 -50.5t23 -13.5q19 0 27 34q32 170 65 371h-83l7 28h80l9 43q55 243 234 243q100 0 100 -64q0 -21 -15 -37t-36 -16
q-6 0 -10.5 0.5t-8 2.5t-5.5 3.5t-4 5.5t-2.5 5.5t-2 7t-2.5 7.5q-15 38 -22.5 49.5t-20.5 11.5q-22 0 -34 -67l-37 -195h112z" />
    <glyph glyph-name="numbersign.taboldstyle" horiz-adv-x="508" 
d="M329 267h-112l-30 -92h113zM468 267h-109l-31 -92h109l-20 -68h-108l-59 -186h-30l59 186h-113l-58 -186h-31l60 186h-107l22 68h106l30 92h-107l21 68h106l55 173h29l-55 -173h113l56 173h28l-55 -173h108z" />
    <glyph glyph-name="sterling.taboldstyle" horiz-adv-x="508" 
d="M397 0h-393l-4 8l29 52q32 9 53 24t29.5 35t10.5 33t3 32q-1 9 -2 39t-1 39h-78l7 26h68q0 11 -1 30.5t-1 35.5q0 35 11 68t33.5 63t63 48t93.5 18q80 0 113.5 -31.5t33.5 -65.5q0 -21 -17 -33.5t-36 -12.5q-31 0 -39 34q-11 41 -25 62.5t-43 21.5q-23 0 -35 -27.5
t-12 -71.5q-1 -20 2.5 -68.5t3.5 -70.5h135l-7 -26h-130q-6 -44 -36.5 -88t-89.5 -73v-2h221q28 0 42.5 11.5t54.5 60.5l15 -8z" />
    <glyph glyph-name="yen.taboldstyle" horiz-adv-x="508" 
d="M358 0h-277l5 23q7 1 25.5 1t26 1.5t17 8.5t12.5 21l26 120h-111l6 28h111l13 68h-110l6 28h102q-34 117 -60 187q-10 26 -44 30l-25 3l5 23h246l-6 -26l-30 -4q-12 -3 -14.5 -9t1.5 -15q10 -37 48 -174h2q74 117 106 172q7 15 4 20.5t-16 7.5l-29 5l5 23h174l-5 -23
l-33 -3q-27 -2 -55 -34q-59 -69 -134 -183h107l-5 -28h-112l-15 -68h112l-6 -28h-111l-26 -120q-4 -10 -0.5 -16t6 -9t11.5 -4.5t15.5 -1.5h17.5t18 -1z" />
    </font>
</defs>
</svg>
